solid x carriage
facet normal -0.999999999613419 -2.7805802303527e-005 5.28386239114078e-009
outer loop
vertex -13.8254053555142 18.846332353676 6.82404765107948
vertex -13.8250294512679 5.78195971599053 -0.0337461278812282
vertex -13.8250418392495 5.77275374362643 6.8058147418062
endloop
endfacet
facet normal -0.999999999613419 -2.7805802303527e-005 5.28386239114078e-009
outer loop
vertex -13.8250294512679 5.78195971599053 -0.0337461278812282
vertex -13.8254053555142 18.846332353676 6.82404765107948
vertex -13.8253929675319 18.8555383260365 -0.0155132186032641
endloop
endfacet
facet normal 0.999999999613492 2.78031621467055e-005 -5.28741534235416e-009
outer loop
vertex 7.77509362954547 5.78255943365234 -0.0331066450325783
vertex 7.77471776081672 18.8469337320721 6.82340793980087
vertex 7.77508124156175 5.77335346128897 6.80645422465341
endloop
endfacet
facet normal 0.999999999613492 2.78031621467055e-005 -5.28741534235416e-009
outer loop
vertex 7.77471776081672 18.8469337320721 6.82340793980087
vertex 7.77509362954547 5.78255943365234 -0.0331066450325783
vertex 7.774730148799 18.8561397044311 -0.0161529298825937
endloop
endfacet
facet normal 0.25879129538824 0.965932386737681 0.00129987788827623
outer loop
vertex -10.9644129963033 10.4807827169919 2.06246561847607
vertex -10.4727098856599 10.4096618766871 6.81232930262424
vertex -10.4726550109013 10.4160555186378 2.06237849182229
endloop
endfacet
facet normal 5.90953218499204e-006 0.999999099934803 0.00134167606412847
outer loop
vertex -10.4727098856599 10.4096618766871 6.81232930262424
vertex -10.9644129963033 10.4807827169919 2.06246561847607
vertex -10.9644678710604 10.4743890750397 6.81241642927513
endloop
endfacet
facet normal 0.499975208893723 0.866038932292976 0.00116543747991018
outer loop
vertex -11.4226620878361 10.670580606497 2.06272105569071
vertex -10.9644678710604 10.4743890750397 6.81241642927513
vertex -10.9644129963033 10.4807827169919 2.06246561847607
endloop
endfacet
facet normal 0.258793080545333 0.965931908459911 0.0012998772445649
outer loop
vertex -10.9644678710604 10.4743890750397 6.81241642927513
vertex -11.4226620878361 10.670580606497 2.06272105569071
vertex -11.4227169625976 10.6641869645463 6.81267186649085
endloop
endfacet
facet normal -0.866039053702432 0.499975904124842 0.000672872011704914
outer loop
vertex -8.82728803396844 11.3597067665658 6.81360774093978
vertex -9.12916760077816 10.9725894854466 2.06312738164297
vertex -9.12922247554039 10.9661958434988 6.81307819244276
endloop
endfacet
facet normal -0.707126936199357 0.707085985291657 0.000951580494185946
outer loop
vertex -9.12916760077816 10.9725894854466 2.06312738164297
vertex -8.82728803396844 11.3597067665658 6.81360774093978
vertex -8.82723315920982 11.3661004085165 2.06365693014253
endloop
endfacet
facet normal 5.90953218499204e-006 0.999999099934803 0.00134167606412847
outer loop
vertex -10.4727098856599 10.4096618766871 6.81232930262424
vertex -10.4325685495429 10.4160566253074 2.06238433285456
vertex -10.4726550109013 10.4160555186378 2.06237849182229
endloop
endfacet
facet normal -0.130488817645058 0.991448894143105 0.00132618701875108
outer loop
vertex -10.4325685495429 10.4160566253074 2.06238433285456
vertex -10.4727098856599 10.4096618766871 6.81232930262424
vertex -9.98080721782904 10.4807568253569 2.06246556379361
endloop
endfacet
facet normal -0.258858328773589 0.96591443904248 0.00128921441048415
outer loop
vertex -9.98080721782904 10.4807568253569 2.06246556379361
vertex -10.4727098856599 10.4096618766871 6.81232930262424
vertex -9.98095550043285 10.4744164210909 6.81241642407637
endloop
endfacet
facet normal 0.707086651242976 0.707126270294287 0.000951574319062704
outer loop
vertex -11.8161733672123 10.9725147746442 2.06312739584645
vertex -11.4227169625976 10.6641869645463 6.81267186649085
vertex -11.4226620878361 10.670580606497 2.06272105569071
endloop
endfacet
facet normal 0.499976631999309 0.866038110716085 0.00116543637422472
outer loop
vertex -11.4227169625976 10.6641869645463 6.81267186649085
vertex -11.8161733672123 10.9725147746442 2.06312739584645
vertex -11.8162282419738 10.966121132695 6.81307820664623
endloop
endfacet
facet normal -0.258853417509152 0.965915755211197 0.00128921627975748
outer loop
vertex -9.98095550043285 10.4744164210909 6.81241642407637
vertex -9.52266208930613 10.6706334350137 2.06272104564827
vertex -9.98080721782904 10.4807568253569 2.06246556379361
endloop
endfacet
facet normal -0.500061885394755 0.86598889596596 0.00115880934622265
outer loop
vertex -9.52266208930613 10.6706334350137 2.06272104564827
vertex -9.98095550043285 10.4744164210909 6.81241642407637
vertex -9.52271696406692 10.664239793063 6.81267185644769
endloop
endfacet
facet normal -0.500060416847983 0.86598974396945 0.00115881040226019
outer loop
vertex -9.52271696406692 10.664239793063 6.81267185644769
vertex -9.12916760077816 10.9725894854466 2.06312738164297
vertex -9.52266208930613 10.6706334350137 2.06272104564827
endloop
endfacet
facet normal -0.707126936199357 0.707085985291657 0.000951580494185946
outer loop
vertex -9.12916760077816 10.9725894854466 2.06312738164297
vertex -9.52271696406692 10.664239793063 6.81267185644769
vertex -9.12922247554039 10.9661958434988 6.81307819244276
endloop
endfacet
facet normal -0.965932951289751 0.25879221838171 0.000348306970331367
outer loop
vertex -8.63748997257431 11.8179554431683 6.81422441408024
vertex -8.82723315920982 11.3661004085165 2.06365693014253
vertex -8.82728803396844 11.3597067665658 6.81360774093978
endloop
endfacet
facet normal -0.866039557647876 0.499975031210468 0.000672870837015083
outer loop
vertex -8.82723315920982 11.3661004085165 2.06365693014253
vertex -8.63748997257431 11.8179554431683 6.81422441408024
vertex -8.63743509781569 11.824349085119 2.06427360327685
endloop
endfacet
facet normal -0.999999999614168 -2.77788407107051e-005 5.31762775751437e-009
outer loop
vertex -8.57276271558383 12.3097129832854 6.81488618660585
vertex -8.63743509781569 11.824349085119 2.06427360327685
vertex -8.63748997257431 11.8179554431683 6.81422441408024
endloop
endfacet
facet normal -0.965933093184214 0.25879168876594 0.000348306257614991
outer loop
vertex -8.63743509781569 11.824349085119 2.06427360327685
vertex -8.57276271558383 12.3097129832854 6.81488618660585
vertex -8.57270784082376 12.3161066252361 2.06493537580462
endloop
endfacet
facet normal -0.965918571454981 -0.258845884664557 -0.000348296699802226
outer loop
vertex -8.63751731859664 12.8014669232278 6.81554795981773
vertex -8.57270784082376 12.3161066252361 2.06493537580462
vertex -8.57276271558383 12.3097129832854 6.81488618660585
endloop
endfacet
facet normal -0.999999999612742 -2.78301247545246e-005 5.2486130290035e-009
outer loop
vertex -8.57270784082376 12.3161066252361 2.06493537580462
vertex -8.63751731859664 12.8014669232278 6.81554795981773
vertex -8.63746244383585 12.807860565177 2.06559714901867
endloop
endfacet
facet normal -0.866011271435534 -0.500024024425077 -0.000672862809651862
outer loop
vertex -8.82734086242451 13.2597050446482 6.81616463496528
vertex -8.63746244383585 12.807860565177 2.06559714901867
vertex -8.63751731859664 12.8014669232278 6.81554795981773
endloop
endfacet
facet normal -0.965918687734153 -0.258845450753434 -0.000348296115867911
outer loop
vertex -8.63746244383585 12.807860565177 2.06559714901867
vertex -8.82734086242451 13.2597050446482 6.81616463496528
vertex -8.827285987663 13.2660986865996 2.06621382416333
endloop
endfacet
facet normal -0.25879129538751 -0.965932386737877 -0.00129987788820736
outer loop
vertex -9.98105755716932 14.1449312345028 6.81735596402183
vertex -10.4727606678112 14.2160520747997 2.067492279874
vertex -9.98100268241214 14.1513248764499 2.06740515322385
endloop
endfacet
facet normal 2.68409232210968e-005 -0.99999909413978 -0.00134573369744059
outer loop
vertex -10.4727606678112 14.2160520747997 2.067492279874
vertex -9.98105755716932 14.1449312345028 6.81735596402183
vertex -10.4728155425706 14.2096584328526 6.81744309067379
endloop
endfacet
facet normal 2.68409232210968e-005 -0.99999909413978 -0.00134573369744059
outer loop
vertex -10.4727606678112 14.2160520747997 2.067492279874
vertex -10.9645699277998 14.1449038884509 6.81735596922057
vertex -10.9645150530412 14.151297530398 2.06740515842187
endloop
endfacet
facet normal 0.258846807423196 -0.965917512316072 -0.00129987997510612
outer loop
vertex -10.9645699277998 14.1449038884509 6.81735596922057
vertex -10.4727606678112 14.2160520747997 2.067492279874
vertex -10.4728155425706 14.2096584328526 6.81744309067379
endloop
endfacet
facet normal 0.258844996651085 -0.96591799756452 -0.00129988062804457
outer loop
vertex -10.9645150530412 14.151297530398 2.06740515842187
vertex -11.4228084641636 13.9550805164788 6.81710053685107
vertex -11.4227535894064 13.961474158428 2.06714972605056
endloop
endfacet
facet normal 0.500024812902773 -0.866010293372618 -0.00116544164106116
outer loop
vertex -11.4228084641636 13.9550805164788 6.81710053685107
vertex -10.9645150530412 14.151297530398 2.06740515842187
vertex -10.9645699277998 14.1449038884509 6.81735596922057
endloop
endfacet
facet normal 0.500023345430083 -0.866011140672007 -0.00116544278123887
outer loop
vertex -11.4227535894064 13.961474158428 2.06714972605056
vertex -11.8163029526901 13.6531244660431 6.81669420085347
vertex -11.8162480779315 13.6595181079923 2.06674339005549
endloop
endfacet
facet normal 0.707126936200206 -0.707085985290808 -0.000951580493820827
outer loop
vertex -11.8163029526901 13.6531244660431 6.81669420085347
vertex -11.4227535894064 13.961474158428 2.06714972605056
vertex -11.4228084641636 13.9550805164788 6.81710053685107
endloop
endfacet
facet normal 0.866039053702398 -0.4999759041249 -0.000672872011698227
outer loop
vertex -12.1181825195005 13.2660071849224 2.06621384156027
vertex -11.8163029526901 13.6531244660431 6.81669420085347
vertex -12.1182373942613 13.2596135429724 6.81616465235969
endloop
endfacet
facet normal 0.707126936200206 -0.707085985290808 -0.000951580493820827
outer loop
vertex -11.8163029526901 13.6531244660431 6.81669420085347
vertex -12.1181825195005 13.2660071849224 2.06621384156027
vertex -11.8162480779315 13.6595181079923 2.06674339005549
endloop
endfacet
facet normal 0.965932951289722 -0.258792218381815 -0.000348306970199513
outer loop
vertex -12.3079805808983 12.8077585083213 2.06559716841873
vertex -12.1182373942613 13.2596135429724 6.81616465235969
vertex -12.3080354556576 12.8013648663721 6.81554797921779
endloop
endfacet
facet normal 0.866039557647804 -0.499975031210592 -0.000672870837008483
outer loop
vertex -12.1182373942613 13.2596135429724 6.81616465235969
vertex -12.3079805808983 12.8077585083213 2.06559716841873
vertex -12.1181825195005 13.2660071849224 2.06621384156027
endloop
endfacet
facet normal 0.999999999614168 2.77788406615836e-005 -5.3176337670298e-009
outer loop
vertex -12.3727078378873 12.3160009682056 2.06493539589096
vertex -12.3080354556576 12.8013648663721 6.81554797921779
vertex -12.3727627126481 12.3096073262535 6.81488620669218
endloop
endfacet
facet normal 0.965933093183986 -0.258791688766792 -0.000348306257484143
outer loop
vertex -12.3080354556576 12.8013648663721 6.81554797921779
vertex -12.3727078378873 12.3160009682056 2.06493539589096
vertex -12.3079805808983 12.8077585083213 2.06559716841873
endloop
endfacet
facet normal 0.965918571454991 0.258845884664519 0.000348296699459765
outer loop
vertex -12.3079532348767 11.8242470282611 2.06427362267871
vertex -12.3727627126481 12.3096073262535 6.81488620669218
vertex -12.3080081096353 11.8178533863126 6.81422443348102
endloop
endfacet
facet normal 0.999999999612742 2.78301249692348e-005 -5.24861868350454e-009
outer loop
vertex -12.3727627126481 12.3096073262535 6.81488620669218
vertex -12.3079532348767 11.8242470282611 2.06427362267871
vertex -12.3727078378873 12.3160009682056 2.06493539589096
endloop
endfacet
facet normal 0.866011271435164 0.500024024425718 0.000672862809200075
outer loop
vertex -12.1181296910466 11.3660089068421 2.0636569475355
vertex -12.3080081096353 11.8178533863126 6.81422443348102
vertex -12.118184565806 11.3596152648922 6.81360775833311
endloop
endfacet
facet normal 0.965918687734085 0.258845450753685 0.00034829611552584
outer loop
vertex -12.3080081096353 11.8178533863126 6.81422443348102
vertex -12.1181296910466 11.3660089068421 2.0636569475355
vertex -12.3079532348767 11.8242470282611 2.06427362267871
endloop
endfacet
facet normal 0.707086651242976 0.707126270294287 0.000951574319062704
outer loop
vertex -11.8161733672123 10.9725147746442 2.06312739584645
vertex -12.118184565806 11.3596152648922 6.81360775833311
vertex -11.8162282419738 10.966121132695 6.81307820664623
endloop
endfacet
facet normal 0.86601173101387 0.50002322846388 0.000672861738026812
outer loop
vertex -12.118184565806 11.3596152648922 6.81360775833311
vertex -11.8161733672123 10.9725147746442 2.06312739584645
vertex -12.1181296910466 11.3660089068421 2.0636569475355
endloop
endfacet
facet normal -0.707086651242991 -0.707126270294273 -0.000951574318080642
outer loop
vertex -9.12929718625886 13.6531991768461 6.81669418665035
vertex -8.827285987663 13.2660986865996 2.06621382416333
vertex -8.82734086242451 13.2597050446482 6.81616463496528
endloop
endfacet
facet normal -0.866011731014146 -0.500023228463403 -0.00067286173847882
outer loop
vertex -8.827285987663 13.2660986865996 2.06621382416333
vertex -9.12929718625886 13.6531991768461 6.81669418665035
vertex -9.12924231149807 13.6595928187954 2.06674337585093
endloop
endfacet
facet normal -0.707086651242991 -0.707126270294273 -0.000951574318080642
outer loop
vertex -9.12929718625886 13.6531991768461 6.81669418665035
vertex -9.52275359087786 13.961526986944 2.06714971600703
vertex -9.12924231149807 13.6595928187954 2.06674337585093
endloop
endfacet
facet normal -0.499976632000883 -0.866038110715177 -0.00116543637362009
outer loop
vertex -9.52275359087786 13.961526986944 2.06714971600703
vertex -9.12929718625886 13.6531991768461 6.81669418665035
vertex -9.52280846563576 13.955133344994 6.81710052680609
endloop
endfacet
facet normal -0.49997520889517 -0.866038932292142 -0.00116543747930568
outer loop
vertex -9.52280846563576 13.955133344994 6.81710052680609
vertex -9.98100268241214 14.1513248764499 2.06740515322385
vertex -9.52275359087786 13.961526986944 2.06714971600703
endloop
endfacet
facet normal -0.258793080544617 -0.965931908460103 -0.00129987724449604
outer loop
vertex -9.98100268241214 14.1513248764499 2.06740515322385
vertex -9.52280846563576 13.955133344994 6.81710052680609
vertex -9.98105755716932 14.1449312345028 6.81735596402183
endloop
endfacet
facet normal -0.99992192480088 -0.0124957414380294 -2.73572341218232e-005
outer loop
vertex -7.70833770151097 13.9584554940438 2.06757811600743
vertex -7.66820046950407 10.7460553049625 -0.0263067316168482
vertex -7.66815798273899 10.7432430349512 2.06325844318866
endloop
endfacet
facet normal -0.99992192480088 -0.0124957414380294 -2.73572341218232e-005
outer loop
vertex -7.66820046950407 10.7460553049625 -0.0263067316168482
vertex -7.70833770151097 13.9584554940438 2.06757811600743
vertex -7.70838018827531 13.9612677640552 -0.0219870587984423
endloop
endfacet
facet normal 0.999922055857941 0.0124846823283908 0.000122131028584843
outer loop
vertex -13.2366907334061 10.6764631859373 -0.0277068005647607
vertex -13.2772577906459 13.8888721296151 2.06661400761533
vertex -13.23707807145 10.6736520437031 2.06229241718343
endloop
endfacet
facet normal 0.999922055857941 0.0124846823283908 0.000122131028584843
outer loop
vertex -13.2772577906459 13.8888721296151 2.06661400761533
vertex -13.2366907334061 10.6764631859373 -0.0277068005647607
vertex -13.2768704526024 13.8916832712083 -0.0233847332963594
endloop
endfacet
facet normal -0.489141502487989 -0.87220364465811 -0.00118016477772535
outer loop
vertex -7.70833770151097 13.9584554940438 2.06757811600743
vertex -10.512926277744 15.5340861253298 -0.0203085561955469
vertex -7.70838018827531 13.9612677640552 -0.0219870587984423
endloop
endfacet
facet normal -0.489141502487989 -0.87220364465811 -0.00118016477772535
outer loop
vertex -10.512926277744 15.5340861253298 -0.0203085561955469
vertex -7.70833770151097 13.9584554940438 2.06757811600743
vertex -10.5128837909797 15.5312738553199 2.06925661861069
endloop
endfacet
facet normal 0.510811251942596 -0.859692165162817 -0.00111626453211298
outer loop
vertex -10.512926277744 15.5340861253298 -0.0203085561955469
vertex -13.2772577906459 13.8888721296151 2.06661400761533
vertex -13.2768704526024 13.8916832712083 -0.0233847332963594
endloop
endfacet
facet normal 0.510811251942596 -0.859692165162817 -0.00111626453211298
outer loop
vertex -13.2772577906459 13.8888721296151 2.06661400761533
vertex -10.512926277744 15.5340861253298 -0.0203085561955469
vertex -10.5128837909797 15.5312738553199 2.06925661861069
endloop
endfacet
facet normal 0.510811251942596 -0.859692165162817 -0.00111626453211298
outer loop
vertex 2.9870736914023 15.5348368816524 -0.0203081223686896
vertex 0.222740782636991 13.8896242885232 2.06661444323285
vertex 0.223129516543862 13.8924340275302 -0.0233842994691421
endloop
endfacet
facet normal 0.510811251942596 -0.859692165162817 -0.00111626453211298
outer loop
vertex 0.222740782636991 13.8896242885232 2.06661444323285
vertex 2.9870736914023 15.5348368816524 -0.0203081223686896
vertex 2.98711478230614 15.5320260142274 2.06925705422749
endloop
endfacet
facet normal -0.99992192480088 -0.0124957414380294 -2.73572341218232e-005
outer loop
vertex 5.79166087177338 13.959207652952 2.06757855162531
vertex 5.83179949964079 10.7468060612844 -0.0263062977896309
vertex 5.83184059054319 10.7439951938594 2.06325887880582
endloop
endfacet
facet normal -0.99992192480088 -0.0124957414380294 -2.73572341218232e-005
outer loop
vertex 5.83179949964079 10.7468060612844 -0.0263062977896309
vertex 5.79166087177338 13.959207652952 2.06757855162531
vertex 5.79161978086954 13.9620185203763 -0.021986624970865
endloop
endfacet
facet normal 0.999921913093395 0.0124955165701222 0.000172572566207096
outer loop
vertex 0.26330923574021 10.6772139422584 -0.0277063667386272
vertex 0.222740782636991 13.8896242885232 2.06661444323285
vertex 0.262920501832903 10.6744042026105 2.06229285280131
endloop
endfacet
facet normal 0.999921913093395 0.0124955165701222 0.000172572566207096
outer loop
vertex 0.222740782636991 13.8896242885232 2.06661444323285
vertex 0.26330923574021 10.6772139422584 -0.0277063667386272
vertex 0.223129516543862 13.8924340275302 -0.0233842994691421
endloop
endfacet
facet normal -0.489141502487989 -0.87220364465811 -0.00118016477772535
outer loop
vertex 5.79166087177338 13.959207652952 2.06757855162531
vertex 2.9870736914023 15.5348368816524 -0.0203081223686896
vertex 5.79161978086954 13.9620185203763 -0.021986624970865
endloop
endfacet
facet normal -0.489141502487989 -0.87220364465811 -0.00118016477772535
outer loop
vertex 2.9870736914023 15.5348368816524 -0.0203081223686896
vertex 5.79166087177338 13.959207652952 2.06757855162531
vertex 2.98711478230614 15.5320260142274 2.06925705422749
endloop
endfacet
facet normal 7.15329312763371e-005 0.00134956019744482 -0.99999908678474
outer loop
vertex 0.222740782636991 13.8896242885232 2.06661444323285
vertex 1.38181607465219 13.2663839847121 2.06618651406301
vertex 0.262920501832903 10.6744042026105 2.06229285280131
endloop
endfacet
facet normal 7.15329312763371e-005 0.00134956019744482 -0.99999908678474
outer loop
vertex 1.38181607465219 13.2663839847121 2.06618651406301
vertex 0.222740782636991 13.8896242885232 2.06661444323285
vertex 2.98711478230614 15.5320260142274 2.06925705422749
endloop
endfacet
facet normal 7.15329312763371e-005 0.00134956019744482 -0.99999908678474
outer loop
vertex 0.262920501832903 10.6744042026105 2.06229285280131
vertex 1.38181607465219 13.2663839847121 2.06618651406301
vertex 1.19201801325878 12.808135308111 2.06556984092508
endloop
endfacet
facet normal 7.15329312763371e-005 0.00134956019744482 -0.99999908678474
outer loop
vertex 0.262920501832903 10.6744042026105 2.06229285280131
vertex 1.19201801325878 12.808135308111 2.06556984092508
vertex 1.12729075626758 12.3163777679932 2.06490806839478
endloop
endfacet
facet normal 7.15329312763371e-005 0.00134956019744482 -0.99999908678474
outer loop
vertex 1.38181607465219 13.2663839847121 2.06618651406301
vertex 2.98711478230614 15.5320260142274 2.06925705422749
vertex 1.68375051622631 13.6598949077813 2.06671606255859
endloop
endfacet
facet normal 7.15329312763371e-005 0.00134956019744482 -0.99999908678474
outer loop
vertex 1.68375051622631 13.6598949077813 2.06671606255859
vertex 2.98711478230614 15.5320260142274 2.06925705422749
vertex 2.07724500475211 13.9618509582178 2.06712239855367
endloop
endfacet
facet normal 7.15329312763371e-005 0.00134956019744482 -0.99999908678474
outer loop
vertex 2.07724500475211 13.9618509582178 2.06712239855367
vertex 2.98711478230614 15.5320260142274 2.06925705422749
vertex 2.53548354111733 14.151674330187 2.06737783092497
endloop
endfacet
facet normal 7.15329312763371e-005 0.00134956019744482 -0.99999908678474
outer loop
vertex 2.53548354111733 14.151674330187 2.06737783092497
vertex 2.98711478230614 15.5320260142274 2.06925705422749
vertex 3.02723792634653 14.2164288745894 2.06746495237711
endloop
endfacet
facet normal 7.15329312763371e-005 0.00134956019744482 -0.99999908678474
outer loop
vertex 3.02723792634653 14.2164288745894 2.06746495237711
vertex 2.98711478230614 15.5320260142274 2.06925705422749
vertex 5.79166087177338 13.959207652952 2.06757855162531
endloop
endfacet
facet normal 7.15329312763371e-005 0.00134956019744482 -0.99999908678474
outer loop
vertex 3.02723792634653 14.2164288745894 2.06746495237711
vertex 5.79166087177338 13.959207652952 2.06757855162531
vertex 3.51899591174851 14.1517016762382 2.06737782572586
endloop
endfacet
facet normal 7.15329312763371e-005 0.00134956019744482 -0.99999908678474
outer loop
vertex 3.51899591174851 14.1517016762382 2.06737782572586
vertex 5.79166087177338 13.959207652952 2.06757855162531
vertex 3.97724500328208 13.9619037867323 2.0671223885105
endloop
endfacet
facet normal 7.15329312763371e-005 0.00134956019744482 -0.99999908678474
outer loop
vertex 3.97724500328208 13.9619037867323 2.0671223885105
vertex 5.79166087177338 13.959207652952 2.06757855162531
vertex 4.37075628265825 13.6599696185866 2.0667160483544
endloop
endfacet
facet normal 7.15329312763371e-005 0.00134956019744482 -0.99999908678474
outer loop
vertex 4.37075628265825 13.6599696185866 2.0667160483544
vertex 5.79166087177338 13.959207652952 2.06757855162531
vertex 4.67271260649044 13.2664754863879 2.06618649666679
endloop
endfacet
facet normal 7.15329312763371e-005 0.00134956019744482 -0.99999908678474
outer loop
vertex 4.67271260649044 13.2664754863879 2.06618649666679
vertex 5.79166087177338 13.959207652952 2.06757855162531
vertex 4.8625361503212 12.8082373649675 2.06556982152286
endloop
endfacet
facet normal 7.15329312763371e-005 0.00134956019744482 -0.99999908678474
outer loop
vertex 4.8625361503212 12.8082373649675 2.06556982152286
vertex 5.79166087177338 13.959207652952 2.06757855162531
vertex 4.92729075333184 12.3164834250259 2.06490804830917
endloop
endfacet
facet normal 7.15329312763371e-005 0.00134956019744482 -0.99999908678474
outer loop
vertex 0.262920501832903 10.6744042026105 2.06229285280131
vertex 1.38186890310898 11.3663857066319 2.06362962003932
vertex 3.06746659087823 9.10159347008105 2.06061483730097
endloop
endfacet
facet normal 7.15329312763371e-005 0.00134956019744482 -0.99999908678474
outer loop
vertex 1.38186890310898 11.3663857066319 2.06362962003932
vertex 0.262920501832903 10.6744042026105 2.06229285280131
vertex 1.19204535928183 11.8246238280501 2.0642462951829
endloop
endfacet
facet normal 7.15329312763371e-005 0.00134956019744482 -0.99999908678474
outer loop
vertex 1.19204535928183 11.8246238280501 2.0642462951829
vertex 0.262920501832903 10.6744042026105 2.06229285280131
vertex 1.12729075626758 12.3163777679932 2.06490806839478
endloop
endfacet
facet normal 7.15329312763371e-005 0.00134956019744482 -0.99999908678474
outer loop
vertex 3.06746659087823 9.10159347008105 2.06061483730097
vertex 1.38186890310898 11.3663857066319 2.06362962003932
vertex 1.68382522694406 10.9728915744332 2.06310006835028
endloop
endfacet
facet normal 7.15329312763371e-005 0.00134956019744482 -0.99999908678474
outer loop
vertex 3.06746659087823 9.10159347008105 2.06061483730097
vertex 1.68382522694406 10.9728915744332 2.06310006835028
vertex 2.07733650632095 10.670957406286 2.0626937281949
endloop
endfacet
facet normal 7.15329312763371e-005 0.00134956019744482 -0.99999908678474
outer loop
vertex 3.06746659087823 9.10159347008105 2.06061483730097
vertex 2.07733650632095 10.670957406286 2.0626937281949
vertex 2.53558559785451 10.4811595167816 2.062438290977
endloop
endfacet
facet normal 7.15329312763371e-005 0.00134956019744482 -0.99999908678474
outer loop
vertex 3.06746659087823 9.10159347008105 2.06061483730097
vertex 2.53558559785451 10.4811595167816 2.062438290977
vertex 3.02734358325506 10.4164323184282 2.06235116432756
endloop
endfacet
facet normal 7.15329312763371e-005 0.00134956019744482 -0.99999908678474
outer loop
vertex 3.06746659087823 9.10159347008105 2.06061483730097
vertex 3.02734358325506 10.4164323184282 2.06235116432756
vertex 3.5190979684857 10.4811868628314 2.06243828578042
endloop
endfacet
facet normal 7.15329312763371e-005 0.00134956019744482 -0.99999908678474
outer loop
vertex 3.06746659087823 9.10159347008105 2.06061483730097
vertex 3.5190979684857 10.4811868628314 2.06243828578042
vertex 5.83184059054319 10.7439951938594 2.06325887880582
endloop
endfacet
facet normal 7.15329312763371e-005 0.00134956019744482 -0.99999908678474
outer loop
vertex 5.83184059054319 10.7439951938594 2.06325887880582
vertex 3.5190979684857 10.4811868628314 2.06243828578042
vertex 3.97733650485019 10.6710102348027 2.06269371815209
endloop
endfacet
facet normal 7.15329312763371e-005 0.00134956019744482 -0.99999908678474
outer loop
vertex 5.83184059054319 10.7439951938594 2.06325887880582
vertex 3.97733650485019 10.6710102348027 2.06269371815209
vertex 4.37083099337672 10.9729662852385 2.06310005414608
endloop
endfacet
facet normal 7.15329312763371e-005 0.00134956019744482 -0.99999908678474
outer loop
vertex 5.83184059054319 10.7439951938594 2.06325887880582
vertex 4.37083099337672 10.9729662852385 2.06310005414608
vertex 4.67276543494506 11.3664772083055 2.0636296026431
endloop
endfacet
facet normal 7.15329312763371e-005 0.00134956019744482 -0.99999908678474
outer loop
vertex 5.83184059054319 10.7439951938594 2.06325887880582
vertex 4.67276543494506 11.3664772083055 2.0636296026431
vertex 4.86256349634425 11.8247258849059 2.06424627578067
endloop
endfacet
facet normal 7.15329312763371e-005 0.00134956019744482 -0.99999908678474
outer loop
vertex 5.83184059054319 10.7439951938594 2.06325887880582
vertex 4.86256349634425 11.8247258849059 2.06424627578067
vertex 4.92729075333184 12.3164834250259 2.06490804830917
endloop
endfacet
facet normal 7.15329312763371e-005 0.00134956019744482 -0.99999908678474
outer loop
vertex 5.83184059054319 10.7439951938594 2.06325887880582
vertex 4.92729075333184 12.3164834250259 2.06490804830917
vertex 5.79166087177338 13.959207652952 2.06757855162531
endloop
endfacet
facet normal -0.510809741877074 0.859693022698312 0.00114644115239782
outer loop
vertex -10.4325319824076 9.10084131117364 2.06061440168345
vertex -7.66820046950407 10.7460553049625 -0.0263067316168482
vertex -10.4321370149674 9.10365245319122 -0.0293843392261099
endloop
endfacet
facet normal -0.510809741877074 0.859693022698312 0.00114644115239782
outer loop
vertex -7.66820046950407 10.7460553049625 -0.0263067316168482
vertex -10.4325319824076 9.10084131117364 2.06061440168345
vertex -7.66815798273899 10.7432430349512 2.06325844318866
endloop
endfacet
facet normal -4.27031784264885e-008 0.00134573369719631 -0.999999094499997
outer loop
vertex -13.8253929675319 18.8555383260365 -0.0155132186032641
vertex -13.2768704526024 13.8916832712083 -0.0233847332963594
vertex -13.8250294512679 5.78195971599053 -0.0337461278812282
endloop
endfacet
facet normal -4.27031784264885e-008 0.00134573369719631 -0.999999094499997
outer loop
vertex -13.2768704526024 13.8916832712083 -0.0233847332963594
vertex -13.8253929675319 18.8555383260365 -0.0155132186032641
vertex -10.512926277744 15.5340861253298 -0.0203085561955469
endloop
endfacet
facet normal -4.27031784264885e-008 0.00134573369719631 -0.999999094499997
outer loop
vertex -10.512926277744 15.5340861253298 -0.0203085561955469
vertex -13.8253929675319 18.8555383260365 -0.0155132186032641
vertex 7.774730148799 18.8561397044311 -0.0161529298825937
endloop
endfacet
facet normal -4.27031784264885e-008 0.00134573369719631 -0.999999094499997
outer loop
vertex -10.512926277744 15.5340861253298 -0.0203085561955469
vertex 7.774730148799 18.8561397044311 -0.0161529298825937
vertex -7.70838018827531 13.9612677640552 -0.0219870587984423
endloop
endfacet
facet normal -4.27031784264885e-008 0.00134573369719631 -0.999999094499997
outer loop
vertex -7.70838018827531 13.9612677640552 -0.0219870587984423
vertex 7.774730148799 18.8561397044311 -0.0161529298825937
vertex -7.66820046950407 10.7460553049625 -0.0263067316168482
endloop
endfacet
facet normal -4.27031784264885e-008 0.00134573369719631 -0.999999094499997
outer loop
vertex -7.66820046950407 10.7460553049625 -0.0263067316168482
vertex 7.774730148799 18.8561397044311 -0.0161529298825937
vertex 0.223129516543862 13.8924340275302 -0.0233842994691421
endloop
endfacet
facet normal -4.27031784264885e-008 0.00134573369719631 -0.999999094499997
outer loop
vertex 0.223129516543862 13.8924340275302 -0.0233842994691421
vertex 7.774730148799 18.8561397044311 -0.0161529298825937
vertex 2.9870736914023 15.5348368816524 -0.0203081223686896
endloop
endfacet
facet normal -4.27031784264885e-008 0.00134573369719631 -0.999999094499997
outer loop
vertex 2.9870736914023 15.5348368816524 -0.0203081223686896
vertex 7.774730148799 18.8561397044311 -0.0161529298825937
vertex 5.79161978086954 13.9620185203763 -0.021986624970865
endloop
endfacet
facet normal -4.27031784264885e-008 0.00134573369719631 -0.999999094499997
outer loop
vertex 5.79161978086954 13.9620185203763 -0.021986624970865
vertex 7.774730148799 18.8561397044311 -0.0161529298825937
vertex 5.83179949964079 10.7468060612844 -0.0263062977896309
endloop
endfacet
facet normal -4.27031784264885e-008 0.00134573369719631 -0.999999094499997
outer loop
vertex -13.8250294512679 5.78195971599053 -0.0337461278812282
vertex -10.4321370149674 9.10365245319122 -0.0293843392261099
vertex 7.77509362954547 5.78255943365234 -0.0331066450325783
endloop
endfacet
facet normal -4.27031784264885e-008 0.00134573369719631 -0.999999094499997
outer loop
vertex -10.4321370149674 9.10365245319122 -0.0293843392261099
vertex -13.8250294512679 5.78195971599053 -0.0337461278812282
vertex -13.2366907334061 10.6764631859373 -0.0277068005647607
endloop
endfacet
facet normal -4.27031784264885e-008 0.00134573369719631 -0.999999094499997
outer loop
vertex -13.2366907334061 10.6764631859373 -0.0277068005647607
vertex -13.8250294512679 5.78195971599053 -0.0337461278812282
vertex -13.2768704526024 13.8916832712083 -0.0233847332963594
endloop
endfacet
facet normal -4.27031784264885e-008 0.00134573369719631 -0.999999094499997
outer loop
vertex 7.77509362954547 5.78255943365234 -0.0331066450325783
vertex -10.4321370149674 9.10365245319122 -0.0293843392261099
vertex -7.66820046950407 10.7460553049625 -0.0263067316168482
endloop
endfacet
facet normal -4.27031784264885e-008 0.00134573369719631 -0.999999094499997
outer loop
vertex 7.77509362954547 5.78255943365234 -0.0331066450325783
vertex -7.66820046950407 10.7460553049625 -0.0263067316168482
vertex 0.26330923574021 10.6772139422584 -0.0277063667386272
endloop
endfacet
facet normal -4.27031784264885e-008 0.00134573369719631 -0.999999094499997
outer loop
vertex 0.26330923574021 10.6772139422584 -0.0277063667386272
vertex -7.66820046950407 10.7460553049625 -0.0263067316168482
vertex 0.223129516543862 13.8924340275302 -0.0233842994691421
endloop
endfacet
facet normal -4.27031784264885e-008 0.00134573369719631 -0.999999094499997
outer loop
vertex 7.77509362954547 5.78255943365234 -0.0331066450325783
vertex 0.26330923574021 10.6772139422584 -0.0277063667386272
vertex 3.06786295417888 9.10440320951234 -0.0293839053985326
endloop
endfacet
facet normal -4.27031784264885e-008 0.00134573369719631 -0.999999094499997
outer loop
vertex 7.77509362954547 5.78255943365234 -0.0331066450325783
vertex 3.06786295417888 9.10440320951234 -0.0293839053985326
vertex 5.83179949964079 10.7468060612844 -0.0263062977896309
endloop
endfacet
facet normal -4.27031784264885e-008 0.00134573369719631 -0.999999094499997
outer loop
vertex 7.77509362954547 5.78255943365234 -0.0331066450325783
vertex 5.83179949964079 10.7468060612844 -0.0263062977896309
vertex 7.774730148799 18.8561397044311 -0.0161529298825937
endloop
endfacet
facet normal -0.000101352955165507 -0.00130892250752794 0.999999138224353
outer loop
vertex 0.776397368538074 5.77316002520748 6.80559369026776
vertex 1.19199188039211 11.8182287231154 6.81424198827524
vertex 1.12723727738146 12.3099826630556 6.81490376148568
endloop
endfacet
facet normal -0.000101352955165507 -0.00130892250752794 0.999999138224353
outer loop
vertex 1.19199188039211 11.8182287231154 6.81424198827524
vertex 0.776397368538074 5.77316002520748 6.80559369026776
vertex 1.3818154242207 11.3599906016964 6.81362531312733
endloop
endfacet
facet normal -0.000101352955165507 -0.00130892250752794 0.999999138224353
outer loop
vertex 1.3818154242207 11.3599906016964 6.81362531312733
vertex 0.776397368538074 5.77316002520748 6.80559369026776
vertex 1.68377174805577 10.966496469497 6.81309576144262
endloop
endfacet
facet normal -0.000101352955165507 -0.00130892250752794 0.999999138224353
outer loop
vertex 1.68377174805577 10.966496469497 6.81309576144262
vertex 0.776397368538074 5.77316002520748 6.80559369026776
vertex 7.77508124156175 5.77335346128897 6.80645422465341
endloop
endfacet
facet normal -0.000101352955165507 -0.00130892250752794 0.999999138224353
outer loop
vertex 1.68377174805577 10.966496469497 6.81309576144262
vertex 7.77508124156175 5.77335346128897 6.80645422465341
vertex 2.07728302743194 10.6645623013506 6.81268942128471
endloop
endfacet
facet normal -0.000101352955165507 -0.00130892250752794 0.999999138224353
outer loop
vertex 2.07728302743194 10.6645623013506 6.81268942128471
vertex 7.77508124156175 5.77335346128897 6.80645422465341
vertex 2.53553211896695 10.474764411844 6.81243398407079
endloop
endfacet
facet normal -0.000101352955165507 -0.00130892250752794 0.999999138224353
outer loop
vertex 2.53553211896695 10.474764411844 6.81243398407079
vertex 7.77508124156175 5.77335346128897 6.80645422465341
vertex 3.02729010436822 10.4100372134913 6.8123468574181
endloop
endfacet
facet normal -0.000101352955165507 -0.00130892250752794 0.999999138224353
outer loop
vertex 3.02729010436822 10.4100372134913 6.8123468574181
vertex 7.77508124156175 5.77335346128897 6.80645422465341
vertex 3.51904448959814 10.4747917578966 6.81243397887204
endloop
endfacet
facet normal -0.000101352955165507 -0.00130892250752794 0.999999138224353
outer loop
vertex 3.51904448959814 10.4747917578966 6.81243397887204
vertex 7.77508124156175 5.77335346128897 6.80645422465341
vertex 3.97728302596335 10.6646151298658 6.81268941124118
endloop
endfacet
facet normal -0.000101352955165507 -0.00130892250752794 0.999999138224353
outer loop
vertex 3.97728302596335 10.6646151298658 6.81268941124118
vertex 7.77508124156175 5.77335346128897 6.80645422465341
vertex 4.37077751448772 10.9665711803008 6.8130957472377
endloop
endfacet
facet normal -0.000101352955165507 -0.00130892250752794 0.999999138224353
outer loop
vertex 4.37077751448772 10.9665711803008 6.8130957472377
vertex 7.77508124156175 5.77335346128897 6.80645422465341
vertex 4.6727119560575 11.3600821033708 6.81362529573328
endloop
endfacet
facet normal -0.000101352955165507 -0.00130892250752794 0.999999138224353
outer loop
vertex 4.6727119560575 11.3600821033708 6.81362529573328
vertex 7.77508124156175 5.77335346128897 6.80645422465341
vertex 4.86251001745597 11.8183307799718 6.81424196887374
endloop
endfacet
facet normal -0.000101352955165507 -0.00130892250752794 0.999999138224353
outer loop
vertex 4.86251001745597 11.8183307799718 6.81424196887374
vertex 7.77508124156175 5.77335346128897 6.80645422465341
vertex 4.92723727444428 12.3100883200897 6.81490374139862
endloop
endfacet
facet normal -0.000101352955165507 -0.00130892250752794 0.999999138224353
outer loop
vertex 4.92723727444428 12.3100883200897 6.81490374139862
vertex 7.77508124156175 5.77335346128897 6.80645422465341
vertex 7.77471776081672 18.8469337320721 6.82340793980087
endloop
endfacet
facet normal -0.000101352955165507 -0.00130892250752794 0.999999138224353
outer loop
vertex 0.776033913298844 18.8467399094098 6.82284929148918
vertex 1.68369703733441 13.6534998028473 6.81671175564733
vertex 7.77471776081672 18.8469337320721 6.82340793980087
endloop
endfacet
facet normal -0.000101352955165507 -0.00130892250752794 0.999999138224353
outer loop
vertex 1.68369703733441 13.6534998028473 6.81671175564733
vertex 0.776033913298844 18.8467399094098 6.82284929148918
vertex 1.3817625957668 13.2599888797774 6.81618220715355
endloop
endfacet
facet normal -0.000101352955165507 -0.00130892250752794 0.999999138224353
outer loop
vertex 1.3817625957668 13.2599888797774 6.81618220715355
vertex 0.776033913298844 18.8467399094098 6.82284929148918
vertex 1.19196453437122 12.8017402031749 6.81556553401309
endloop
endfacet
facet normal -0.000101352955165507 -0.00130892250752794 0.999999138224353
outer loop
vertex 1.19196453437122 12.8017402031749 6.81556553401309
vertex 0.776033913298844 18.8467399094098 6.82284929148918
vertex 1.12723727738146 12.3099826630556 6.81490376148568
endloop
endfacet
facet normal -0.000101352955165507 -0.00130892250752794 0.999999138224353
outer loop
vertex 1.12723727738146 12.3099826630556 6.81490376148568
vertex 0.776033913298844 18.8467399094098 6.82284929148918
vertex 0.776397368538074 5.77316002520748 6.80559369026776
endloop
endfacet
facet normal -0.000101352955165507 -0.00130892250752794 0.999999138224353
outer loop
vertex 7.77471776081672 18.8469337320721 6.82340793980087
vertex 1.68369703733441 13.6534998028473 6.81671175564733
vertex 2.07719152586527 13.9554558532816 6.8171180916442
endloop
endfacet
facet normal -0.000101352955165507 -0.00130892250752794 0.999999138224353
outer loop
vertex 7.77471776081672 18.8469337320721 6.82340793980087
vertex 2.07719152586527 13.9554558532816 6.8171180916442
vertex 2.53543006222976 14.1452792252537 6.81737352401443
endloop
endfacet
facet normal -0.000101352955165507 -0.00130892250752794 0.999999138224353
outer loop
vertex 7.77471776081672 18.8469337320721 6.82340793980087
vertex 2.53543006222976 14.1452792252537 6.81737352401443
vertex 3.02718444745897 14.2100337696554 6.81746064546728
endloop
endfacet
facet normal -0.000101352955165507 -0.00130892250752794 0.999999138224353
outer loop
vertex 7.77471776081672 18.8469337320721 6.82340793980087
vertex 3.02718444745897 14.2100337696554 6.81746064546728
vertex 3.51894243286023 14.1453065713049 6.81737351881424
endloop
endfacet
facet normal -0.000101352955165507 -0.00130892250752794 0.999999138224353
outer loop
vertex 7.77471776081672 18.8469337320721 6.82340793980087
vertex 3.51894243286023 14.1453065713049 6.81737351881424
vertex 3.97719152439379 13.955508681799 6.8171180816032
endloop
endfacet
facet normal -0.000101352955165507 -0.00130892250752794 0.999999138224353
outer loop
vertex 7.77471776081672 18.8469337320721 6.82340793980087
vertex 3.97719152439379 13.955508681799 6.8171180816032
vertex 4.3707028037678 13.6535745136489 6.81671174144601
endloop
endfacet
facet normal -0.000101352955165507 -0.00130892250752794 0.999999138224353
outer loop
vertex 7.77471776081672 18.8469337320721 6.82340793980087
vertex 4.3707028037678 13.6535745136489 6.81671174144601
vertex 4.67265912760215 13.2600803814525 6.81618218975914
endloop
endfacet
facet normal -0.000101352955165507 -0.00130892250752794 0.999999138224353
outer loop
vertex 7.77471776081672 18.8469337320721 6.82340793980087
vertex 4.67265912760215 13.2600803814525 6.81618218975914
vertex 4.86248267143435 12.8018422600313 6.81556551460978
endloop
endfacet
facet normal -0.000101352955165507 -0.00130892250752794 0.999999138224353
outer loop
vertex 7.77471776081672 18.8469337320721 6.82340793980087
vertex 4.86248267143435 12.8018422600313 6.81556551460978
vertex 4.92723727444428 12.3100883200897 6.81490374139862
endloop
endfacet
facet normal 0.489139181511212 0.872204848115118 0.00125061385972223
outer loop
vertex 0.26330923574021 10.6772139422584 -0.0277063667386272
vertex 3.06746659087823 9.10159347008105 2.06061483730097
vertex 3.06786295417888 9.10440320951234 -0.0293839053985326
endloop
endfacet
facet normal 0.489139181511212 0.872204848115118 0.00125061385972223
outer loop
vertex 3.06746659087823 9.10159347008105 2.06061483730097
vertex 0.26330923574021 10.6772139422584 -0.0277063667386272
vertex 0.262920501832903 10.6744042026105 2.06229285280131
endloop
endfacet
facet normal -0.510811772670708 0.859691856648029 0.00111557791006524
outer loop
vertex 3.06746659087823 9.10159347008105 2.06061483730097
vertex 5.83179949964079 10.7468060612844 -0.0263062977896309
vertex 3.06786295417888 9.10440320951234 -0.0293839053985326
endloop
endfacet
facet normal -0.510811772670708 0.859691856648029 0.00111557791006524
outer loop
vertex 5.83179949964079 10.7468060612844 -0.0263062977896309
vertex 3.06746659087823 9.10159347008105 2.06061483730097
vertex 5.83184059054319 10.7439951938594 2.06325887880582
endloop
endfacet
facet normal 0.489139181511212 0.872204848115118 0.00125061385972223
outer loop
vertex -13.2366907334061 10.6764631859373 -0.0277068005647607
vertex -10.4325319824076 9.10084131117364 2.06061440168345
vertex -10.4321370149674 9.10365245319122 -0.0293843392261099
endloop
endfacet
facet normal 0.489139181511212 0.872204848115118 0.00125061385972223
outer loop
vertex -10.4325319824076 9.10084131117364 2.06061440168345
vertex -13.2366907334061 10.6764631859373 -0.0277068005647607
vertex -13.23707807145 10.6736520437031 2.06229241718343
endloop
endfacet
facet normal 0.000220718526847687 -0.00134264273138094 0.999999074296485
outer loop
vertex -13.8250418392495 5.77275374362643 6.8058147418062
vertex -12.3080081096353 11.8178533863126 6.81422443348102
vertex -12.3727627126481 12.3096073262535 6.81488620669218
endloop
endfacet
facet normal 0.000220718526847687 -0.00134264273138094 0.999999074296485
outer loop
vertex -12.3080081096353 11.8178533863126 6.81422443348102
vertex -13.8250418392495 5.77275374362643 6.8058147418062
vertex -12.118184565806 11.3596152648922 6.81360775833311
endloop
endfacet
facet normal 0.000220718526847687 -0.00134264273138094 0.999999074296485
outer loop
vertex -12.118184565806 11.3596152648922 6.81360775833311
vertex -13.8250418392495 5.77275374362643 6.8058147418062
vertex -8.22332961793579 5.77291024357007 6.80525909370437
endloop
endfacet
facet normal 0.000220718526847687 -0.00134264273138094 0.999999074296485
outer loop
vertex -12.118184565806 11.3596152648922 6.81360775833311
vertex -8.22332961793579 5.77291024357007 6.80525909370437
vertex -11.8162282419738 10.966121132695 6.81307820664623
endloop
endfacet
facet normal 0.000220718526847687 -0.00134264273138094 0.999999074296485
outer loop
vertex -11.8162282419738 10.966121132695 6.81307820664623
vertex -8.22332961793579 5.77291024357007 6.80525909370437
vertex -11.4227169625976 10.6641869645463 6.81267186649085
endloop
endfacet
facet normal 0.000220718526847687 -0.00134264273138094 0.999999074296485
outer loop
vertex -11.4227169625976 10.6641869645463 6.81267186649085
vertex -8.22332961793579 5.77291024357007 6.80525909370437
vertex -10.9644678710604 10.4743890750397 6.81241642927513
endloop
endfacet
facet normal 0.000220718526847687 -0.00134264273138094 0.999999074296485
outer loop
vertex -10.9644678710604 10.4743890750397 6.81241642927513
vertex -8.22332961793579 5.77291024357007 6.80525909370437
vertex -10.4727098856599 10.4096618766871 6.81232930262424
endloop
endfacet
facet normal 0.000220718526847687 -0.00134264273138094 0.999999074296485
outer loop
vertex -10.4727098856599 10.4096618766871 6.81232930262424
vertex -8.22332961793579 5.77291024357007 6.80525909370437
vertex -9.98095550043285 10.4744164210909 6.81241642407637
endloop
endfacet
facet normal 0.000220718526847687 -0.00134264273138094 0.999999074296485
outer loop
vertex -9.98095550043285 10.4744164210909 6.81241642407637
vertex -8.22332961793579 5.77291024357007 6.80525909370437
vertex -9.52271696406692 10.664239793063 6.81267185644769
endloop
endfacet
facet normal 0.000220718526847687 -0.00134264273138094 0.999999074296485
outer loop
vertex -9.52271696406692 10.664239793063 6.81267185644769
vertex -8.22332961793579 5.77291024357007 6.80525909370437
vertex -9.12922247554039 10.9661958434988 6.81307819244276
endloop
endfacet
facet normal 0.000220718526847687 -0.00134264273138094 0.999999074296485
outer loop
vertex -9.12922247554039 10.9661958434988 6.81307819244276
vertex -8.22332961793579 5.77291024357007 6.80525909370437
vertex -8.82728803396844 11.3597067665658 6.81360774093978
endloop
endfacet
facet normal 0.000220718526847687 -0.00134264273138094 0.999999074296485
outer loop
vertex -8.82728803396844 11.3597067665658 6.81360774093978
vertex -8.22332961793579 5.77291024357007 6.80525909370437
vertex -8.63748997257431 11.8179554431683 6.81422441408024
endloop
endfacet
facet normal 0.000220718526847687 -0.00134264273138094 0.999999074296485
outer loop
vertex -8.63748997257431 11.8179554431683 6.81422441408024
vertex -8.22332961793579 5.77291024357007 6.80525909370437
vertex -8.57276271558383 12.3097129832854 6.81488618660585
endloop
endfacet
facet normal 0.000220718526847687 -0.00134264273138094 0.999999074296485
outer loop
vertex -8.57276271558383 12.3097129832854 6.81488618660585
vertex -8.22332961793579 5.77291024357007 6.80525909370437
vertex -8.22369307705823 18.846490669539 6.82213091623808
endloop
endfacet
facet normal 0.000220718526847687 -0.00134264273138094 0.999999074296485
outer loop
vertex -13.8254053555142 18.846332353676 6.82404765107948
vertex -12.1182373942613 13.2596135429724 6.81616465235969
vertex -8.22369307705823 18.846490669539 6.82213091623808
endloop
endfacet
facet normal 0.000220718526847687 -0.00134264273138094 0.999999074296485
outer loop
vertex -12.1182373942613 13.2596135429724 6.81616465235969
vertex -13.8254053555142 18.846332353676 6.82404765107948
vertex -12.3080354556576 12.8013648663721 6.81554797921779
endloop
endfacet
facet normal 0.000220718526847687 -0.00134264273138094 0.999999074296485
outer loop
vertex -12.3080354556576 12.8013648663721 6.81554797921779
vertex -13.8254053555142 18.846332353676 6.82404765107948
vertex -13.8250418392495 5.77275374362643 6.8058147418062
endloop
endfacet
facet normal 0.000220718526847687 -0.00134264273138094 0.999999074296485
outer loop
vertex -12.3080354556576 12.8013648663721 6.81554797921779
vertex -13.8250418392495 5.77275374362643 6.8058147418062
vertex -12.3727627126481 12.3096073262535 6.81488620669218
endloop
endfacet
facet normal 0.000220718526847687 -0.00134264273138094 0.999999074296485
outer loop
vertex -8.22369307705823 18.846490669539 6.82213091623808
vertex -12.1182373942613 13.2596135429724 6.81616465235969
vertex -11.8163029526901 13.6531244660431 6.81669420085347
endloop
endfacet
facet normal 0.000220718526847687 -0.00134264273138094 0.999999074296485
outer loop
vertex -8.22369307705823 18.846490669539 6.82213091623808
vertex -11.8163029526901 13.6531244660431 6.81669420085347
vertex -11.4228084641636 13.9550805164788 6.81710053685107
endloop
endfacet
facet normal 0.000220718526847687 -0.00134264273138094 0.999999074296485
outer loop
vertex -8.22369307705823 18.846490669539 6.82213091623808
vertex -11.4228084641636 13.9550805164788 6.81710053685107
vertex -10.9645699277998 14.1449038884509 6.81735596922057
endloop
endfacet
facet normal 0.000220718526847687 -0.00134264273138094 0.999999074296485
outer loop
vertex -8.22369307705823 18.846490669539 6.82213091623808
vertex -10.9645699277998 14.1449038884509 6.81735596922057
vertex -10.4728155425706 14.2096584328526 6.81744309067379
endloop
endfacet
facet normal 0.000220718526847687 -0.00134264273138094 0.999999074296485
outer loop
vertex -8.22369307705823 18.846490669539 6.82213091623808
vertex -10.4728155425706 14.2096584328526 6.81744309067379
vertex -9.98105755716932 14.1449312345028 6.81735596402183
endloop
endfacet
facet normal 0.000220718526847687 -0.00134264273138094 0.999999074296485
outer loop
vertex -8.22369307705823 18.846490669539 6.82213091623808
vertex -9.98105755716932 14.1449312345028 6.81735596402183
vertex -9.52280846563576 13.955133344994 6.81710052680609
endloop
endfacet
facet normal 0.000220718526847687 -0.00134264273138094 0.999999074296485
outer loop
vertex -8.22369307705823 18.846490669539 6.82213091623808
vertex -9.52280846563576 13.955133344994 6.81710052680609
vertex -9.12929718625886 13.6531991768461 6.81669418665035
endloop
endfacet
facet normal 0.000220718526847687 -0.00134264273138094 0.999999074296485
outer loop
vertex -8.22369307705823 18.846490669539 6.82213091623808
vertex -9.12929718625886 13.6531991768461 6.81669418665035
vertex -8.82734086242451 13.2597050446482 6.81616463496528
endloop
endfacet
facet normal 0.000220718526847687 -0.00134264273138094 0.999999074296485
outer loop
vertex -8.22369307705823 18.846490669539 6.82213091623808
vertex -8.82734086242451 13.2597050446482 6.81616463496528
vertex -8.63751731859664 12.8014669232278 6.81554795981773
endloop
endfacet
facet normal 0.000220718526847687 -0.00134264273138094 0.999999074296485
outer loop
vertex -8.22369307705823 18.846490669539 6.82213091623808
vertex -8.63751731859664 12.8014669232278 6.81554795981773
vertex -8.57276271558383 12.3097129832854 6.81488618660585
endloop
endfacet
facet normal -0.258791324312766 -0.965932378988275 -0.00129987787700219
outer loop
vertex 3.51894243286023 14.1453065713049 6.81737351881424
vertex 3.02723792634653 14.2164288745894 2.06746495237711
vertex 3.51899591174851 14.1517016762382 2.06737782572586
endloop
endfacet
facet normal 2.68653501338616e-005 -0.999999094139124 -0.00134573369702389
outer loop
vertex 3.02723792634653 14.2164288745894 2.06746495237711
vertex 3.51894243286023 14.1453065713049 6.81737351881424
vertex 3.02718444745897 14.2100337696554 6.81746064546728
endloop
endfacet
facet normal 2.68653501338616e-005 -0.999999094139124 -0.00134573369702389
outer loop
vertex 3.02723792634653 14.2164288745894 2.06746495237711
vertex 2.53543006222976 14.1452792252537 6.81737352401443
vertex 2.53548354111733 14.151674330187 2.06737783092497
endloop
endfacet
facet normal 0.258846790766481 -0.965917516779734 -0.00129987998110877
outer loop
vertex 2.53543006222976 14.1452792252537 6.81737352401443
vertex 3.02723792634653 14.2164288745894 2.06746495237711
vertex 3.02718444745897 14.2100337696554 6.81746064546728
endloop
endfacet
facet normal 0.258845013307957 -0.965917993100849 -0.00129988062203481
outer loop
vertex 2.53548354111733 14.151674330187 2.06737783092497
vertex 2.07719152586527 13.9554558532816 6.8171180916442
vertex 2.07724500475211 13.9618509582178 2.06712239855367
endloop
endfacet
facet normal 0.500024805207498 -0.866010297815776 -0.00116544164767934
outer loop
vertex 2.07719152586527 13.9554558532816 6.8171180916442
vertex 2.53548354111733 14.151674330187 2.06737783092497
vertex 2.53543006222976 14.1452792252537 6.81737352401443
endloop
endfacet
facet normal 0.500023353126099 -0.866011136228437 -0.00116544277589853
outer loop
vertex 2.07724500475211 13.9618509582178 2.06712239855367
vertex 1.68369703733441 13.6534998028473 6.81671175564733
vertex 1.68375051622631 13.6598949077813 2.06671606255859
endloop
endfacet
facet normal 0.707126936254939 -0.707085985236071 -0.000951580494830972
outer loop
vertex 1.68369703733441 13.6534998028473 6.81671175564733
vertex 2.07724500475211 13.9618509582178 2.06712239855367
vertex 2.07719152586527 13.9554558532816 6.8171180916442
endloop
endfacet
facet normal 0.866039049184348 -0.499975911950876 -0.000672872023742961
outer loop
vertex 1.38181607465219 13.2663839847121 2.06618651406301
vertex 1.68369703733441 13.6534998028473 6.81671175564733
vertex 1.3817625957668 13.2599888797774 6.81618220715355
endloop
endfacet
facet normal 0.707126936254939 -0.707085985236071 -0.000951580494830972
outer loop
vertex 1.68369703733441 13.6534998028473 6.81671175564733
vertex 1.38181607465219 13.2663839847121 2.06618651406301
vertex 1.68375051622631 13.6598949077813 2.06671606255859
endloop
endfacet
facet normal 0.965932946792023 -0.258792235169287 -0.000348306995014174
outer loop
vertex 1.19201801325878 12.808135308111 2.06556984092508
vertex 1.3817625957668 13.2599888797774 6.81618220715355
vertex 1.19196453437122 12.8017402031749 6.81556553401309
endloop
endfacet
facet normal 0.86603956216537 -0.499975023385432 -0.000672870827991327
outer loop
vertex 1.3817625957668 13.2599888797774 6.81618220715355
vertex 1.19201801325878 12.808135308111 2.06556984092508
vertex 1.38181607465219 13.2663839847121 2.06618651406301
endloop
endfacet
facet normal 0.999999999614849 2.77543034162944e-005 -5.35325550162609e-009
outer loop
vertex 1.12729075626758 12.3163777679932 2.06490806839478
vertex 1.19196453437122 12.8017402031749 6.81556553401309
vertex 1.12723727738146 12.3099826630556 6.81490376148568
endloop
endfacet
facet normal 0.965933097681204 -0.258791671981072 -0.000348306237118573
outer loop
vertex 1.19196453437122 12.8017402031749 6.81556553401309
vertex 1.12729075626758 12.3163777679932 2.06490806839478
vertex 1.19201801325878 12.808135308111 2.06556984092508
endloop
endfacet
facet normal 0.965918579226287 0.258845855664927 0.00034829665819873
outer loop
vertex 1.19204535928183 11.8246238280501 2.0642462951829
vertex 1.12723727738146 12.3099826630556 6.81490376148568
vertex 1.19199188039211 11.8182287231154 6.81424198827524
endloop
endfacet
facet normal 0.999999999612059 2.78546613483375e-005 -5.21820032830126e-009
outer loop
vertex 1.12723727738146 12.3099826630556 6.81490376148568
vertex 1.19204535928183 11.8246238280501 2.0642462951829
vertex 1.12729075626758 12.3163777679932 2.06490806839478
endloop
endfacet
facet normal 0.866011288167894 0.500023995445698 0.000672862768364373
outer loop
vertex 1.38186890310898 11.3663857066319 2.06362962003932
vertex 1.19199188039211 11.8182287231154 6.81424198827524
vertex 1.3818154242207 11.3599906016964 6.81362531312733
endloop
endfacet
facet normal 0.965918679962604 0.258845479754024 0.000348296152318
outer loop
vertex 1.19199188039211 11.8182287231154 6.81424198827524
vertex 1.38186890310898 11.3663857066319 2.06362962003932
vertex 1.19204535928183 11.8246238280501 2.0642462951829
endloop
endfacet
facet normal 0.707086675726489 0.707126245812192 0.000951574284084467
outer loop
vertex 1.68382522694406 10.9728915744332 2.06310006835028
vertex 1.3818154242207 11.3599906016964 6.81362531312733
vertex 1.68377174805577 10.966496469497 6.81309576144262
endloop
endfacet
facet normal 0.866011714281533 0.500023257443284 0.000672861775190561
outer loop
vertex 1.3818154242207 11.3599906016964 6.81362531312733
vertex 1.68382522694406 10.9728915744332 2.06310006835028
vertex 1.38186890310898 11.3663857066319 2.06362962003932
endloop
endfacet
facet normal 0.258791324313788 0.965932378988001 0.00129987787739005
outer loop
vertex 2.53558559785451 10.4811595167816 2.062438290977
vertex 3.02729010436822 10.4100372134913 6.8123468574181
vertex 3.02734358325506 10.4164323184282 2.06235116432756
endloop
endfacet
facet normal -2.68653500536425e-005 0.999999094139124 0.00134573369773984
outer loop
vertex 3.02729010436822 10.4100372134913 6.8123468574181
vertex 2.53558559785451 10.4811595167816 2.062438290977
vertex 2.53553211896695 10.474764411844 6.81243398407079
endloop
endfacet
facet normal 0.707086675726489 0.707126245812192 0.000951574284084467
outer loop
vertex 1.68382522694406 10.9728915744332 2.06310006835028
vertex 2.07728302743194 10.6645623013506 6.81268942128471
vertex 2.07733650632095 10.670957406286 2.0626937281949
endloop
endfacet
facet normal 0.499976603053871 0.866038127426685 0.00116543639570769
outer loop
vertex 2.07728302743194 10.6645623013506 6.81268942128471
vertex 1.68382522694406 10.9728915744332 2.06310006835028
vertex 1.68377174805577 10.966496469497 6.81309576144262
endloop
endfacet
facet normal 0.499975237839837 0.86603891558205 0.00116543745641418
outer loop
vertex 2.07733650632095 10.670957406286 2.0626937281949
vertex 2.53553211896695 10.474764411844 6.81243398407079
vertex 2.53558559785451 10.4811595167816 2.062438290977
endloop
endfacet
facet normal 0.258793051619626 0.965931916209691 0.00129987725453936
outer loop
vertex 2.53553211896695 10.474764411844 6.81243398407079
vertex 2.07733650632095 10.670957406286 2.0626937281949
vertex 2.07728302743194 10.6645623013506 6.81268942128471
endloop
endfacet
facet normal -0.707086675725878 -0.707126245812803 -0.000951574284157448
outer loop
vertex 4.3707028037678 13.6535745136489 6.81671174144601
vertex 3.97724500328208 13.9619037867323 2.0671223885105
vertex 4.37075628265825 13.6599696185866 2.0667160483544
endloop
endfacet
facet normal -0.499976603053852 -0.866038127426696 -0.00116543639570771
outer loop
vertex 3.97724500328208 13.9619037867323 2.0671223885105
vertex 4.3707028037678 13.6535745136489 6.81671174144601
vertex 3.97719152439379 13.955508681799 6.8171180816032
endloop
endfacet
facet normal -0.707086675725878 -0.707126245812803 -0.000951574284157448
outer loop
vertex 4.3707028037678 13.6535745136489 6.81671174144601
vertex 4.67271260649044 13.2664754863879 2.06618649666679
vertex 4.67265912760215 13.2600803814525 6.81618218975914
endloop
endfacet
facet normal -0.866011714280685 -0.500023257444753 -0.000672861775140097
outer loop
vertex 4.67271260649044 13.2664754863879 2.06618649666679
vertex 4.3707028037678 13.6535745136489 6.81671174144601
vertex 4.37075628265825 13.6599696185866 2.0667160483544
endloop
endfacet
facet normal -0.4999752378402 -0.866038915581841 -0.0011654374564139
outer loop
vertex 3.97719152439379 13.955508681799 6.8171180816032
vertex 3.51899591174851 14.1517016762382 2.06737782572586
vertex 3.97724500328208 13.9619037867323 2.0671223885105
endloop
endfacet
facet normal -0.2587930516184 -0.96593191621002 -0.00129987725415158
outer loop
vertex 3.51899591174851 14.1517016762382 2.06737782572586
vertex 3.97719152439379 13.955508681799 6.8171180816032
vertex 3.51894243286023 14.1453065713049 6.81737351881424
endloop
endfacet
facet normal -0.86601128816694 -0.500023995447351 -0.000672862768314159
outer loop
vertex 4.67265912760215 13.2600803814525 6.81618218975914
vertex 4.8625361503212 12.8082373649675 2.06556982152286
vertex 4.86248267143435 12.8018422600313 6.81556551460978
endloop
endfacet
facet normal -0.965918679962393 -0.258845479754813 -0.000348296152194463
outer loop
vertex 4.8625361503212 12.8082373649675 2.06556982152286
vertex 4.67265912760215 13.2600803814525 6.81618218975914
vertex 4.67271260649044 13.2664754863879 2.06618649666679
endloop
endfacet
facet normal -0.965918579226001 -0.258845855665997 -0.000348296658075571
outer loop
vertex 4.86248267143435 12.8018422600313 6.81556551460978
vertex 4.92729075333184 12.3164834250259 2.06490804830917
vertex 4.92723727444428 12.3100883200897 6.81490374139862
endloop
endfacet
facet normal -0.999999999612059 -2.78546609570452e-005 5.21820085488264e-009
outer loop
vertex 4.92729075333184 12.3164834250259 2.06490804830917
vertex 4.86248267143435 12.8018422600313 6.81556551460978
vertex 4.8625361503212 12.8082373649675 2.06556982152286
endloop
endfacet
facet normal -0.999999999614849 -2.7754302923141e-005 5.35325616531284e-009
outer loop
vertex 4.92723727444428 12.3100883200897 6.81490374139862
vertex 4.86256349634425 11.8247258849059 2.06424627578067
vertex 4.86251001745597 11.8183307799718 6.81424196887374
endloop
endfacet
facet normal -0.965933097680797 0.258791671982593 0.000348306236874091
outer loop
vertex 4.86256349634425 11.8247258849059 2.06424627578067
vertex 4.92723727444428 12.3100883200897 6.81490374139862
vertex 4.92729075333184 12.3164834250259 2.06490804830917
endloop
endfacet
facet normal -0.965932946791531 0.258792235171126 0.000348306994770119
outer loop
vertex 4.86251001745597 11.8183307799718 6.81424196887374
vertex 4.67276543494506 11.3664772083055 2.0636296026431
vertex 4.6727119560575 11.3600821033708 6.81362529573328
endloop
endfacet
facet normal -0.866039562164274 0.49997502338733 0.000672870827825028
outer loop
vertex 4.67276543494506 11.3664772083055 2.0636296026431
vertex 4.86251001745597 11.8183307799718 6.81424196887374
vertex 4.86256349634425 11.8247258849059 2.06424627578067
endloop
endfacet
facet normal -0.866039049183356 0.499975911952595 0.000672872023576425
outer loop
vertex 4.6727119560575 11.3600821033708 6.81362529573328
vertex 4.37083099337672 10.9729662852385 2.06310005414608
vertex 4.37077751448772 10.9665711803008 6.8130957472377
endloop
endfacet
facet normal -0.70712693625458 0.707085985236431 0.000951580494909134
outer loop
vertex 4.37083099337672 10.9729662852385 2.06310005414608
vertex 4.6727119560575 11.3600821033708 6.81362529573328
vertex 4.67276543494506 11.3664772083055 2.0636296026431
endloop
endfacet
facet normal -0.50002335312604 0.866011136228471 0.00116544277589857
outer loop
vertex 3.97728302596335 10.6646151298658 6.81268941124118
vertex 4.37083099337672 10.9729662852385 2.06310005414608
vertex 3.97733650485019 10.6710102348027 2.06269371815209
endloop
endfacet
facet normal -0.70712693625458 0.707085985236431 0.000951580494909134
outer loop
vertex 4.37083099337672 10.9729662852385 2.06310005414608
vertex 3.97728302596335 10.6646151298658 6.81268941124118
vertex 4.37077751448772 10.9665711803008 6.8130957472377
endloop
endfacet
facet normal -0.258845013309058 0.965917993100553 0.00129988062236213
outer loop
vertex 3.51904448959814 10.4747917578966 6.81243397887204
vertex 3.97733650485019 10.6710102348027 2.06269371815209
vertex 3.5190979684857 10.4811868628314 2.06243828578042
endloop
endfacet
facet normal -0.50002480520761 0.866010297815712 0.00116544164767926
outer loop
vertex 3.97733650485019 10.6710102348027 2.06269371815209
vertex 3.51904448959814 10.4747917578966 6.81243397887204
vertex 3.97728302596335 10.6646151298658 6.81268941124118
endloop
endfacet
facet normal -2.68653500536425e-005 0.999999094139124 0.00134573369773984
outer loop
vertex 3.02729010436822 10.4100372134913 6.8123468574181
vertex 3.5190979684857 10.4811868628314 2.06243828578042
vertex 3.02734358325506 10.4164323184282 2.06235116432756
endloop
endfacet
facet normal -0.258846790767507 0.965917516779459 0.00129987998143611
outer loop
vertex 3.5190979684857 10.4811868628314 2.06243828578042
vertex 3.02729010436822 10.4100372134913 6.8123468574181
vertex 3.51904448959814 10.4747917578966 6.81243397887204
endloop
endfacet
facet normal -5.84639553850927e-005 -0.0013058365222573 0.999999145686107
outer loop
vertex -8.22328576996942 5.77388962096161 6.05525973443966
vertex 0.77607776126521 18.8477192868014 6.07284993222447
vertex -8.22364922909186 18.8474700469305 6.07213155697337
endloop
endfacet
facet normal -5.84639553850927e-005 -0.0013058365222573 0.999999145686107
outer loop
vertex 0.77607776126521 18.8477192868014 6.07284993222447
vertex -8.22328576996942 5.77388962096161 6.05525973443966
vertex 0.77644121650444 5.77413940259902 6.05559433100305
endloop
endfacet
facet normal -0.999999997904552 -2.77240169468078e-005 -5.8500208273998e-005
outer loop
vertex 0.776033913298844 18.8467399094098 6.82284929148918
vertex 0.77644121650444 5.77413940259902 6.05559433100305
vertex 0.776397368538074 5.77316002520748 6.80559369026776
endloop
endfacet
facet normal -0.999999997904552 -2.77240169468078e-005 -5.8500208273998e-005
outer loop
vertex 0.77644121650444 5.77413940259902 6.05559433100305
vertex 0.776033913298844 18.8467399094098 6.82284929148918
vertex 0.77607776126521 18.8477192868014 6.07284993222447
endloop
endfacet
facet normal 0.999999997904497 2.77259997786927e-005 5.85002108632513e-005
outer loop
vertex -8.22328576996942 5.77388962096161 6.05525973443966
vertex -8.22369307705823 18.846490669539 6.82213091623808
vertex -8.22332961793579 5.77291024357007 6.80525909370437
endloop
endfacet
facet normal 0.999999997904497 2.77259997786927e-005 5.85002108632513e-005
outer loop
vertex -8.22369307705823 18.846490669539 6.82213091623808
vertex -8.22328576996942 5.77388962096161 6.05525973443966
vertex -8.22364922909186 18.8474700469305 6.07213155697337
endloop
endfacet
facet normal -2.78317670042672e-005 0.99999909236172 0.00134703419755738
outer loop
vertex -13.8254053555142 18.846332353676 6.82404765107948
vertex -8.22364922909186 18.8474700469305 6.07213155697337
vertex -13.8253929675319 18.8555383260365 -0.0155132186032641
endloop
endfacet
facet normal -2.78317670042672e-005 0.99999909236172 0.00134703419755738
outer loop
vertex -8.22364922909186 18.8474700469305 6.07213155697337
vertex -13.8254053555142 18.846332353676 6.82404765107948
vertex -8.22369307705823 18.846490669539 6.82213091623808
endloop
endfacet
facet normal -2.78317670042672e-005 0.99999909236172 0.00134703419755738
outer loop
vertex -13.8253929675319 18.8555383260365 -0.0155132186032641
vertex 7.77471776081672 18.8469337320721 6.82340793980087
vertex 7.774730148799 18.8561397044311 -0.0161529298825937
endloop
endfacet
facet normal -2.78317670042672e-005 0.99999909236172 0.00134703419755738
outer loop
vertex 7.77471776081672 18.8469337320721 6.82340793980087
vertex -13.8253929675319 18.8555383260365 -0.0155132186032641
vertex 0.77607776126521 18.8477192868014 6.07284993222447
endloop
endfacet
facet normal -2.78317670042672e-005 0.99999909236172 0.00134703419755738
outer loop
vertex 0.77607776126521 18.8477192868014 6.07284993222447
vertex -13.8253929675319 18.8555383260365 -0.0155132186032641
vertex -8.22364922909186 18.8474700469305 6.07213155697337
endloop
endfacet
facet normal -2.78317670042672e-005 0.99999909236172 0.00134703419755738
outer loop
vertex 7.77471776081672 18.8469337320721 6.82340793980087
vertex 0.77607776126521 18.8477192868014 6.07284993222447
vertex 0.776033913298844 18.8467399094098 6.82284929148918
endloop
endfacet
facet normal 2.78346328421897e-005 -0.999999092361458 -0.00134703433290012
outer loop
vertex 7.77509362954547 5.78255943365234 -0.0331066450325783
vertex 0.77644121650444 5.77413940259902 6.05559433100305
vertex -8.22328576996942 5.77388962096161 6.05525973443966
endloop
endfacet
facet normal 2.78346328421897e-005 -0.999999092361458 -0.00134703433290012
outer loop
vertex 0.77644121650444 5.77413940259902 6.05559433100305
vertex 7.77509362954547 5.78255943365234 -0.0331066450325783
vertex 7.77508124156175 5.77335346128897 6.80645422465341
endloop
endfacet
facet normal 2.78346328421897e-005 -0.999999092361458 -0.00134703433290012
outer loop
vertex 0.77644121650444 5.77413940259902 6.05559433100305
vertex 7.77508124156175 5.77335346128897 6.80645422465341
vertex 0.776397368538074 5.77316002520748 6.80559369026776
endloop
endfacet
facet normal 2.78346328421897e-005 -0.999999092361458 -0.00134703433290012
outer loop
vertex 7.77509362954547 5.78255943365234 -0.0331066450325783
vertex -13.8250418392495 5.77275374362643 6.8058147418062
vertex -13.8250294512679 5.78195971599053 -0.0337461278812282
endloop
endfacet
facet normal 2.78346328421897e-005 -0.999999092361458 -0.00134703433290012
outer loop
vertex -13.8250418392495 5.77275374362643 6.8058147418062
vertex 7.77509362954547 5.78255943365234 -0.0331066450325783
vertex -8.22328576996942 5.77388962096161 6.05525973443966
endloop
endfacet
facet normal 2.78346328421897e-005 -0.999999092361458 -0.00134703433290012
outer loop
vertex -13.8250418392495 5.77275374362643 6.8058147418062
vertex -8.22328576996942 5.77388962096161 6.05525973443966
vertex -8.22332961793579 5.77291024357007 6.80525909370437
endloop
endfacet
facet normal 6.52714625855431e-005 0.00134549606460222 -0.999999092689577
outer loop
vertex -13.2772577906459 13.8888721296151 2.06661400761533
vertex -12.1181825195005 13.2660071849224 2.06621384156027
vertex -13.23707807145 10.6736520437031 2.06229241718343
endloop
endfacet
facet normal 6.52714625855431e-005 0.00134549606460222 -0.999999092689577
outer loop
vertex -12.1181825195005 13.2660071849224 2.06621384156027
vertex -13.2772577906459 13.8888721296151 2.06661400761533
vertex -10.5128837909797 15.5312738553199 2.06925661861069
endloop
endfacet
facet normal 6.52714625855431e-005 0.00134549606460222 -0.999999092689577
outer loop
vertex -13.23707807145 10.6736520437031 2.06229241718343
vertex -12.1181825195005 13.2660071849224 2.06621384156027
vertex -12.3079805808983 12.8077585083213 2.06559716841873
endloop
endfacet
facet normal 6.52714625855431e-005 0.00134549606460222 -0.999999092689577
outer loop
vertex -13.23707807145 10.6736520437031 2.06229241718343
vertex -12.3079805808983 12.8077585083213 2.06559716841873
vertex -12.3727078378873 12.3160009682056 2.06493539589096
endloop
endfacet
facet normal 6.52714625855431e-005 0.00134549606460222 -0.999999092689577
outer loop
vertex -12.1181825195005 13.2660071849224 2.06621384156027
vertex -10.5128837909797 15.5312738553199 2.06925661861069
vertex -11.8162480779315 13.6595181079923 2.06674339005549
endloop
endfacet
facet normal 6.52714625855431e-005 0.00134549606460222 -0.999999092689577
outer loop
vertex -11.8162480779315 13.6595181079923 2.06674339005549
vertex -10.5128837909797 15.5312738553199 2.06925661861069
vertex -11.4227535894064 13.961474158428 2.06714972605056
endloop
endfacet
facet normal 6.52714625855431e-005 0.00134549606460222 -0.999999092689577
outer loop
vertex -11.4227535894064 13.961474158428 2.06714972605056
vertex -10.5128837909797 15.5312738553199 2.06925661861069
vertex -10.9645150530412 14.151297530398 2.06740515842187
endloop
endfacet
facet normal 6.52714625855431e-005 0.00134549606460222 -0.999999092689577
outer loop
vertex -10.9645150530412 14.151297530398 2.06740515842187
vertex -10.5128837909797 15.5312738553199 2.06925661861069
vertex -10.4727606678112 14.2160520747997 2.067492279874
endloop
endfacet
facet normal 6.52714625855431e-005 0.00134549606460222 -0.999999092689577
outer loop
vertex -10.4727606678112 14.2160520747997 2.067492279874
vertex -10.5128837909797 15.5312738553199 2.06925661861069
vertex -7.70833770151097 13.9584554940438 2.06757811600743
endloop
endfacet
facet normal 6.52714625855431e-005 0.00134549606460222 -0.999999092689577
outer loop
vertex -10.4727606678112 14.2160520747997 2.067492279874
vertex -7.70833770151097 13.9584554940438 2.06757811600743
vertex -9.98100268241214 14.1513248764499 2.06740515322385
endloop
endfacet
facet normal 6.52714625855431e-005 0.00134549606460222 -0.999999092689577
outer loop
vertex -9.98100268241214 14.1513248764499 2.06740515322385
vertex -7.70833770151097 13.9584554940438 2.06757811600743
vertex -9.52275359087786 13.961526986944 2.06714971600703
endloop
endfacet
facet normal 6.52714625855431e-005 0.00134549606460222 -0.999999092689577
outer loop
vertex -9.52275359087786 13.961526986944 2.06714971600703
vertex -7.70833770151097 13.9584554940438 2.06757811600743
vertex -9.12924231149807 13.6595928187954 2.06674337585093
endloop
endfacet
facet normal 6.52714625855431e-005 0.00134549606460222 -0.999999092689577
outer loop
vertex -9.12924231149807 13.6595928187954 2.06674337585093
vertex -7.70833770151097 13.9584554940438 2.06757811600743
vertex -8.827285987663 13.2660986865996 2.06621382416333
endloop
endfacet
facet normal 6.52714625855431e-005 0.00134549606460222 -0.999999092689577
outer loop
vertex -8.827285987663 13.2660986865996 2.06621382416333
vertex -7.70833770151097 13.9584554940438 2.06757811600743
vertex -8.63746244383585 12.807860565177 2.06559714901867
endloop
endfacet
facet normal 6.52714625855431e-005 0.00134549606460222 -0.999999092689577
outer loop
vertex -8.63746244383585 12.807860565177 2.06559714901867
vertex -7.70833770151097 13.9584554940438 2.06757811600743
vertex -8.57270784082376 12.3161066252361 2.06493537580462
endloop
endfacet
facet normal 6.52714625855431e-005 0.00134549606460222 -0.999999092689577
outer loop
vertex -13.23707807145 10.6736520437031 2.06229241718343
vertex -12.1181296910466 11.3660089068421 2.0636569475355
vertex -10.4325319824076 9.10084131117364 2.06061440168345
endloop
endfacet
facet normal 6.52714625855431e-005 0.00134549606460222 -0.999999092689577
outer loop
vertex -12.1181296910466 11.3660089068421 2.0636569475355
vertex -13.23707807145 10.6736520437031 2.06229241718343
vertex -12.3079532348767 11.8242470282611 2.06427362267871
endloop
endfacet
facet normal 6.52714625855431e-005 0.00134549606460222 -0.999999092689577
outer loop
vertex -12.3079532348767 11.8242470282611 2.06427362267871
vertex -13.23707807145 10.6736520437031 2.06229241718343
vertex -12.3727078378873 12.3160009682056 2.06493539589096
endloop
endfacet
facet normal 6.52714625855431e-005 0.00134549606460222 -0.999999092689577
outer loop
vertex -10.4325319824076 9.10084131117364 2.06061440168345
vertex -12.1181296910466 11.3660089068421 2.0636569475355
vertex -11.8161733672123 10.9725147746442 2.06312739584645
endloop
endfacet
facet normal 6.52714625855431e-005 0.00134549606460222 -0.999999092689577
outer loop
vertex -10.4325319824076 9.10084131117364 2.06061440168345
vertex -11.8161733672123 10.9725147746442 2.06312739584645
vertex -11.4226620878361 10.670580606497 2.06272105569071
endloop
endfacet
facet normal 6.52714625855431e-005 0.00134549606460222 -0.999999092689577
outer loop
vertex -10.4325319824076 9.10084131117364 2.06061440168345
vertex -11.4226620878361 10.670580606497 2.06272105569071
vertex -10.9644129963033 10.4807827169919 2.06246561847607
endloop
endfacet
facet normal 6.52714625855431e-005 0.00134549606460222 -0.999999092689577
outer loop
vertex -10.4325319824076 9.10084131117364 2.06061440168345
vertex -10.9644129963033 10.4807827169919 2.06246561847607
vertex -10.4726550109013 10.4160555186378 2.06237849182229
endloop
endfacet
facet normal 6.52714625855431e-005 0.00134549606460222 -0.999999092689577
outer loop
vertex -10.4325319824076 9.10084131117364 2.06061440168345
vertex -10.4726550109013 10.4160555186378 2.06237849182229
vertex -10.4325685495429 10.4160566253074 2.06238433285456
endloop
endfacet
facet normal 6.52714625855431e-005 0.00134549606460222 -0.999999092689577
outer loop
vertex -10.4325319824076 9.10084131117364 2.06061440168345
vertex -10.4325685495429 10.4160566253074 2.06238433285456
vertex -9.98080721782904 10.4807568253569 2.06246556379361
endloop
endfacet
facet normal 6.52714625855431e-005 0.00134549606460222 -0.999999092689577
outer loop
vertex -10.4325319824076 9.10084131117364 2.06061440168345
vertex -9.98080721782904 10.4807568253569 2.06246556379361
vertex -7.66815798273899 10.7432430349512 2.06325844318866
endloop
endfacet
facet normal 6.52714625855431e-005 0.00134549606460222 -0.999999092689577
outer loop
vertex -7.66815798273899 10.7432430349512 2.06325844318866
vertex -9.98080721782904 10.4807568253569 2.06246556379361
vertex -9.52266208930613 10.6706334350137 2.06272104564827
endloop
endfacet
facet normal 6.52714625855431e-005 0.00134549606460222 -0.999999092689577
outer loop
vertex -7.66815798273899 10.7432430349512 2.06325844318866
vertex -9.52266208930613 10.6706334350137 2.06272104564827
vertex -9.12916760077816 10.9725894854466 2.06312738164297
endloop
endfacet
facet normal 6.52714625855431e-005 0.00134549606460222 -0.999999092689577
outer loop
vertex -7.66815798273899 10.7432430349512 2.06325844318866
vertex -9.12916760077816 10.9725894854466 2.06312738164297
vertex -8.82723315920982 11.3661004085165 2.06365693014253
endloop
endfacet
facet normal 6.52714625855431e-005 0.00134549606460222 -0.999999092689577
outer loop
vertex -7.66815798273899 10.7432430349512 2.06325844318866
vertex -8.82723315920982 11.3661004085165 2.06365693014253
vertex -8.63743509781569 11.824349085119 2.06427360327685
endloop
endfacet
facet normal 6.52714625855431e-005 0.00134549606460222 -0.999999092689577
outer loop
vertex -7.66815798273899 10.7432430349512 2.06325844318866
vertex -8.63743509781569 11.824349085119 2.06427360327685
vertex -8.57270784082376 12.3161066252361 2.06493537580462
endloop
endfacet
facet normal 6.52714625855431e-005 0.00134549606460222 -0.999999092689577
outer loop
vertex -7.66815798273899 10.7432430349512 2.06325844318866
vertex -8.57270784082376 12.3161066252361 2.06493537580462
vertex -7.70833770151097 13.9584554940438 2.06757811600743
endloop
endfacet
endsolid x carriage
