solid Default
  facet normal 0.000000e+00 0.000000e+00 1.000000e+00
    outer loop
      vertex 3.150097e+01 -8.843634e+00 5.000000e+00
      vertex 3.150000e+01 -1.384364e+01 5.000000e+00
      vertex 3.550000e+01 -1.384441e+01 5.000000e+00
    endloop
  endfacet
  facet normal 0.000000e+00 0.000000e+00 1.000000e+00
    outer loop
      vertex -2.717236e+01 -3.712152e+00 5.000000e+00
      vertex -2.714805e+01 -3.989987e+00 5.000000e+00
      vertex 2.640292e+01 8.992548e-01 5.000000e+00
    endloop
  endfacet
  facet normal 0.000000e+00 0.000000e+00 1.000000e+00
    outer loop
      vertex -2.714805e+01 -3.989987e+00 5.000000e+00
      vertex 2.925195e+01 -5.601279e+00 5.000000e+00
      vertex 2.897411e+01 -5.576972e+00 5.000000e+00
    endloop
  endfacet
  facet normal 0.000000e+00 0.000000e+00 1.000000e+00
    outer loop
      vertex -2.639610e+01 9.105501e-01 5.000000e+00
      vertex 2.640292e+01 8.992548e-01 5.000000e+00
      vertex -2.639610e+01 6.109573e+00 5.000000e+00
    endloop
  endfacet
  facet normal 0.000000e+00 0.000000e+00 1.000000e+00
    outer loop
      vertex -2.639610e+01 6.109573e+00 5.000000e+00
      vertex 2.640292e+01 8.992548e-01 5.000000e+00
      vertex 2.640292e+01 6.098282e+00 5.000000e+00
    endloop
  endfacet
  facet normal 0.000000e+00 0.000000e+00 1.000000e+00
    outer loop
      vertex -2.639610e+01 6.109573e+00 5.000000e+00
      vertex 2.640292e+01 6.098282e+00 5.000000e+00
      vertex 3.160389e+01 6.098282e+00 5.000000e+00
    endloop
  endfacet
  facet normal 0.000000e+00 0.000000e+00 1.000000e+00
    outer loop
      vertex -2.717236e+01 -3.712152e+00 5.000000e+00
      vertex 2.640292e+01 8.992548e-01 5.000000e+00
      vertex -2.724454e+01 -3.442753e+00 5.000000e+00
    endloop
  endfacet
  facet normal 0.000000e+00 0.000000e+00 1.000000e+00
    outer loop
      vertex -3.550000e+01 1.384441e+01 5.000000e+00
      vertex -3.550000e+01 -1.383058e+01 5.000000e+00
      vertex -3.159707e+01 9.105501e-01 5.000000e+00
    endloop
  endfacet
  facet normal 0.000000e+00 0.000000e+00 1.000000e+00
    outer loop
      vertex -3.159707e+01 9.105501e-01 5.000000e+00
      vertex -3.550000e+01 -1.383058e+01 5.000000e+00
      vertex -3.150000e+01 -1.383137e+01 5.000000e+00
    endloop
  endfacet
  facet normal 0.000000e+00 0.000000e+00 1.000000e+00
    outer loop
      vertex -3.159707e+01 9.105501e-01 5.000000e+00
      vertex -3.150000e+01 -1.383137e+01 5.000000e+00
      vertex -3.149902e+01 -8.831363e+00 5.000000e+00
    endloop
  endfacet
  facet normal 0.000000e+00 0.000000e+00 1.000000e+00
    outer loop
      vertex -3.032374e+01 -3.712152e+00 5.000000e+00
      vertex -3.025156e+01 -3.442753e+00 5.000000e+00
      vertex -3.159707e+01 9.105501e-01 5.000000e+00
    endloop
  endfacet
  facet normal 0.000000e+00 0.000000e+00 1.000000e+00
    outer loop
      vertex 3.160389e+01 8.992548e-01 5.000000e+00
      vertex 3.550000e+01 -1.384441e+01 5.000000e+00
      vertex 3.160389e+01 6.098282e+00 5.000000e+00
    endloop
  endfacet
  facet normal 0.000000e+00 0.000000e+00 1.000000e+00
    outer loop
      vertex 3.160389e+01 6.098282e+00 5.000000e+00
      vertex 3.550000e+01 -1.384441e+01 5.000000e+00
      vertex 3.550000e+01 1.383059e+01 5.000000e+00
    endloop
  endfacet
  facet normal 0.000000e+00 0.000000e+00 1.000000e+00
    outer loop
      vertex 3.160389e+01 6.098282e+00 5.000000e+00
      vertex 3.550000e+01 1.383059e+01 5.000000e+00
      vertex -2.639610e+01 6.109573e+00 5.000000e+00
    endloop
  endfacet
  facet normal 0.000000e+00 0.000000e+00 1.000000e+00
    outer loop
      vertex -2.639610e+01 6.109573e+00 5.000000e+00
      vertex 3.550000e+01 1.383059e+01 5.000000e+00
      vertex -3.550000e+01 1.384441e+01 5.000000e+00
    endloop
  endfacet
  facet normal 0.000000e+00 0.000000e+00 1.000000e+00
    outer loop
      vertex -2.639610e+01 6.109573e+00 5.000000e+00
      vertex -3.550000e+01 1.384441e+01 5.000000e+00
      vertex -3.159707e+01 6.109573e+00 5.000000e+00
    endloop
  endfacet
  facet normal 0.000000e+00 0.000000e+00 1.000000e+00
    outer loop
      vertex -3.159707e+01 6.109573e+00 5.000000e+00
      vertex -3.550000e+01 1.384441e+01 5.000000e+00
      vertex -3.159707e+01 9.105501e-01 5.000000e+00
    endloop
  endfacet
  facet normal 0.000000e+00 0.000000e+00 1.000000e+00
    outer loop
      vertex 2.897411e+01 -5.576972e+00 5.000000e+00
      vertex 2.870472e+01 -5.504790e+00 5.000000e+00
      vertex -2.714805e+01 -3.989987e+00 5.000000e+00
    endloop
  endfacet
  facet normal 0.000000e+00 0.000000e+00 1.000000e+00
    outer loop
      vertex -2.714805e+01 -3.989987e+00 5.000000e+00
      vertex 2.870472e+01 -5.504790e+00 5.000000e+00
      vertex 2.845195e+01 -5.386923e+00 5.000000e+00
    endloop
  endfacet
  facet normal 0.000000e+00 0.000000e+00 1.000000e+00
    outer loop
      vertex -2.714805e+01 -3.989987e+00 5.000000e+00
      vertex 2.845195e+01 -5.386923e+00 5.000000e+00
      vertex 2.822349e+01 -5.226952e+00 5.000000e+00
    endloop
  endfacet
  facet normal 0.000000e+00 0.000000e+00 1.000000e+00
    outer loop
      vertex 2.822349e+01 -5.226952e+00 5.000000e+00
      vertex 2.802628e+01 -5.029741e+00 5.000000e+00
      vertex -2.714805e+01 -3.989987e+00 5.000000e+00
    endloop
  endfacet
  facet normal 0.000000e+00 0.000000e+00 1.000000e+00
    outer loop
      vertex -2.714805e+01 -3.989987e+00 5.000000e+00
      vertex 2.802628e+01 -5.029741e+00 5.000000e+00
      vertex 2.786631e+01 -4.801281e+00 5.000000e+00
    endloop
  endfacet
  facet normal 0.000000e+00 0.000000e+00 1.000000e+00
    outer loop
      vertex -2.714805e+01 -3.989987e+00 5.000000e+00
      vertex 2.786631e+01 -4.801281e+00 5.000000e+00
      vertex 2.774844e+01 -4.548512e+00 5.000000e+00
    endloop
  endfacet
  facet normal 0.000000e+00 0.000000e+00 1.000000e+00
    outer loop
      vertex 2.952979e+01 -2.425589e+00 5.000000e+00
      vertex 2.979919e+01 -2.497774e+00 5.000000e+00
      vertex 3.160389e+01 8.992548e-01 5.000000e+00
    endloop
  endfacet
  facet normal 0.000000e+00 0.000000e+00 1.000000e+00
    outer loop
      vertex 3.160389e+01 8.992548e-01 5.000000e+00
      vertex 2.979919e+01 -2.497774e+00 5.000000e+00
      vertex 3.005195e+01 -2.615642e+00 5.000000e+00
    endloop
  endfacet
  facet normal 0.000000e+00 0.000000e+00 1.000000e+00
    outer loop
      vertex -2.874805e+01 -2.389986e+00 5.000000e+00
      vertex -2.847021e+01 -2.414293e+00 5.000000e+00
      vertex -2.639610e+01 9.105501e-01 5.000000e+00
    endloop
  endfacet
  facet normal 0.000000e+00 0.000000e+00 1.000000e+00
    outer loop
      vertex -2.639610e+01 9.105501e-01 5.000000e+00
      vertex -2.847021e+01 -2.414293e+00 5.000000e+00
      vertex -2.820082e+01 -2.486479e+00 5.000000e+00
    endloop
  endfacet
  facet normal 0.000000e+00 0.000000e+00 1.000000e+00
    outer loop
      vertex -2.639610e+01 9.105501e-01 5.000000e+00
      vertex -2.820082e+01 -2.486479e+00 5.000000e+00
      vertex -2.794805e+01 -2.604347e+00 5.000000e+00
    endloop
  endfacet
  facet normal 0.000000e+00 0.000000e+00 1.000000e+00
    outer loop
      vertex -3.025156e+01 -3.442753e+00 5.000000e+00
      vertex -3.013369e+01 -3.189988e+00 5.000000e+00
      vertex -3.159707e+01 9.105501e-01 5.000000e+00
    endloop
  endfacet
  facet normal 0.000000e+00 0.000000e+00 1.000000e+00
    outer loop
      vertex -3.159707e+01 9.105501e-01 5.000000e+00
      vertex -3.013369e+01 -3.189988e+00 5.000000e+00
      vertex -2.997372e+01 -2.961528e+00 5.000000e+00
    endloop
  endfacet
  facet normal 0.000000e+00 0.000000e+00 1.000000e+00
    outer loop
      vertex -3.159707e+01 9.105501e-01 5.000000e+00
      vertex -2.997372e+01 -2.961528e+00 5.000000e+00
      vertex -2.639610e+01 9.105501e-01 5.000000e+00
    endloop
  endfacet
  facet normal 0.000000e+00 0.000000e+00 1.000000e+00
    outer loop
      vertex -2.639610e+01 9.105501e-01 5.000000e+00
      vertex -2.997372e+01 -2.961528e+00 5.000000e+00
      vertex -2.977651e+01 -2.764315e+00 5.000000e+00
    endloop
  endfacet
  facet normal 0.000000e+00 0.000000e+00 1.000000e+00
    outer loop
      vertex -2.639610e+01 9.105501e-01 5.000000e+00
      vertex -2.977651e+01 -2.764315e+00 5.000000e+00
      vertex -2.954805e+01 -2.604347e+00 5.000000e+00
    endloop
  endfacet
  facet normal 0.000000e+00 0.000000e+00 1.000000e+00
    outer loop
      vertex 2.774844e+01 -4.548512e+00 5.000000e+00
      vertex 2.767625e+01 -4.279118e+00 5.000000e+00
      vertex -2.714805e+01 -3.989987e+00 5.000000e+00
    endloop
  endfacet
  facet normal 0.000000e+00 0.000000e+00 1.000000e+00
    outer loop
      vertex -2.714805e+01 -3.989987e+00 5.000000e+00
      vertex 2.767625e+01 -4.279118e+00 5.000000e+00
      vertex 2.765194e+01 -4.001282e+00 5.000000e+00
    endloop
  endfacet
  facet normal 0.000000e+00 0.000000e+00 1.000000e+00
    outer loop
      vertex -2.714805e+01 -3.989987e+00 5.000000e+00
      vertex 2.765194e+01 -4.001282e+00 5.000000e+00
      vertex 2.767625e+01 -3.723443e+00 5.000000e+00
    endloop
  endfacet
  facet normal 0.000000e+00 0.000000e+00 1.000000e+00
    outer loop
      vertex 2.640292e+01 8.992548e-01 5.000000e+00
      vertex 2.822349e+01 -2.775610e+00 5.000000e+00
      vertex 2.845195e+01 -2.615642e+00 5.000000e+00
    endloop
  endfacet
  facet normal 0.000000e+00 0.000000e+00 1.000000e+00
    outer loop
      vertex -2.954805e+01 -2.604347e+00 5.000000e+00
      vertex -2.929528e+01 -2.486479e+00 5.000000e+00
      vertex -2.639610e+01 9.105501e-01 5.000000e+00
    endloop
  endfacet
  facet normal 0.000000e+00 0.000000e+00 1.000000e+00
    outer loop
      vertex -2.639610e+01 9.105501e-01 5.000000e+00
      vertex -2.929528e+01 -2.486479e+00 5.000000e+00
      vertex -2.902589e+01 -2.414293e+00 5.000000e+00
    endloop
  endfacet
  facet normal 0.000000e+00 0.000000e+00 1.000000e+00
    outer loop
      vertex -2.639610e+01 9.105501e-01 5.000000e+00
      vertex -2.902589e+01 -2.414293e+00 5.000000e+00
      vertex -2.874805e+01 -2.389986e+00 5.000000e+00
    endloop
  endfacet
  facet normal 0.000000e+00 0.000000e+00 1.000000e+00
    outer loop
      vertex 3.075545e+01 -4.548512e+00 5.000000e+00
      vertex 3.063758e+01 -4.801281e+00 5.000000e+00
      vertex 3.150097e+01 -8.843634e+00 5.000000e+00
    endloop
  endfacet
  facet normal 0.000000e+00 0.000000e+00 1.000000e+00
    outer loop
      vertex 3.150097e+01 -8.843634e+00 5.000000e+00
      vertex 3.063758e+01 -4.801281e+00 5.000000e+00
      vertex 3.047762e+01 -5.029741e+00 5.000000e+00
    endloop
  endfacet
  facet normal 0.000000e+00 0.000000e+00 1.000000e+00
    outer loop
      vertex 2.767625e+01 -3.723443e+00 5.000000e+00
      vertex 2.774844e+01 -3.454048e+00 5.000000e+00
      vertex -2.714805e+01 -3.989987e+00 5.000000e+00
    endloop
  endfacet
  facet normal 0.000000e+00 0.000000e+00 1.000000e+00
    outer loop
      vertex -2.714805e+01 -3.989987e+00 5.000000e+00
      vertex 2.774844e+01 -3.454048e+00 5.000000e+00
      vertex 2.786631e+01 -3.201280e+00 5.000000e+00
    endloop
  endfacet
  facet normal 0.000000e+00 0.000000e+00 1.000000e+00
    outer loop
      vertex -2.714805e+01 -3.989987e+00 5.000000e+00
      vertex 2.786631e+01 -3.201280e+00 5.000000e+00
      vertex 2.640292e+01 8.992548e-01 5.000000e+00
    endloop
  endfacet
  facet normal 0.000000e+00 0.000000e+00 1.000000e+00
    outer loop
      vertex 2.640292e+01 8.992548e-01 5.000000e+00
      vertex 2.786631e+01 -3.201280e+00 5.000000e+00
      vertex 2.802628e+01 -2.972822e+00 5.000000e+00
    endloop
  endfacet
  facet normal 0.000000e+00 0.000000e+00 1.000000e+00
    outer loop
      vertex 2.640292e+01 8.992548e-01 5.000000e+00
      vertex 2.802628e+01 -2.972822e+00 5.000000e+00
      vertex 2.822349e+01 -2.775610e+00 5.000000e+00
    endloop
  endfacet
  facet normal 0.000000e+00 0.000000e+00 1.000000e+00
    outer loop
      vertex 2.845195e+01 -2.615642e+00 5.000000e+00
      vertex 2.870472e+01 -2.497774e+00 5.000000e+00
      vertex 2.640292e+01 8.992548e-01 5.000000e+00
    endloop
  endfacet
  facet normal 0.000000e+00 0.000000e+00 1.000000e+00
    outer loop
      vertex 2.640292e+01 8.992548e-01 5.000000e+00
      vertex 2.870472e+01 -2.497774e+00 5.000000e+00
      vertex 2.897411e+01 -2.425589e+00 5.000000e+00
    endloop
  endfacet
  facet normal 0.000000e+00 0.000000e+00 1.000000e+00
    outer loop
      vertex 2.640292e+01 8.992548e-01 5.000000e+00
      vertex 2.897411e+01 -2.425589e+00 5.000000e+00
      vertex 3.160389e+01 8.992548e-01 5.000000e+00
    endloop
  endfacet
  facet normal 0.000000e+00 0.000000e+00 1.000000e+00
    outer loop
      vertex 3.160389e+01 8.992548e-01 5.000000e+00
      vertex 2.897411e+01 -2.425589e+00 5.000000e+00
      vertex 2.925195e+01 -2.401281e+00 5.000000e+00
    endloop
  endfacet
  facet normal 0.000000e+00 0.000000e+00 1.000000e+00
    outer loop
      vertex 3.160389e+01 8.992548e-01 5.000000e+00
      vertex 2.925195e+01 -2.401281e+00 5.000000e+00
      vertex 2.952979e+01 -2.425589e+00 5.000000e+00
    endloop
  endfacet
  facet normal 0.000000e+00 0.000000e+00 1.000000e+00
    outer loop
      vertex 3.005195e+01 -2.615642e+00 5.000000e+00
      vertex 3.028041e+01 -2.775610e+00 5.000000e+00
      vertex 3.160389e+01 8.992548e-01 5.000000e+00
    endloop
  endfacet
  facet normal 0.000000e+00 0.000000e+00 1.000000e+00
    outer loop
      vertex 3.160389e+01 8.992548e-01 5.000000e+00
      vertex 3.028041e+01 -2.775610e+00 5.000000e+00
      vertex 3.047762e+01 -2.972822e+00 5.000000e+00
    endloop
  endfacet
  facet normal 0.000000e+00 0.000000e+00 1.000000e+00
    outer loop
      vertex 3.160389e+01 8.992548e-01 5.000000e+00
      vertex 3.047762e+01 -2.972822e+00 5.000000e+00
      vertex 3.063758e+01 -3.201280e+00 5.000000e+00
    endloop
  endfacet
  facet normal 0.000000e+00 0.000000e+00 1.000000e+00
    outer loop
      vertex 3.063758e+01 -3.201280e+00 5.000000e+00
      vertex 3.075545e+01 -3.454048e+00 5.000000e+00
      vertex 3.160389e+01 8.992548e-01 5.000000e+00
    endloop
  endfacet
  facet normal 0.000000e+00 0.000000e+00 1.000000e+00
    outer loop
      vertex 3.160389e+01 8.992548e-01 5.000000e+00
      vertex 3.075545e+01 -3.454048e+00 5.000000e+00
      vertex 3.082764e+01 -3.723443e+00 5.000000e+00
    endloop
  endfacet
  facet normal 0.000000e+00 0.000000e+00 1.000000e+00
    outer loop
      vertex 3.160389e+01 8.992548e-01 5.000000e+00
      vertex 3.082764e+01 -3.723443e+00 5.000000e+00
      vertex 3.550000e+01 -1.384441e+01 5.000000e+00
    endloop
  endfacet
  facet normal 0.000000e+00 0.000000e+00 1.000000e+00
    outer loop
      vertex 3.550000e+01 -1.384441e+01 5.000000e+00
      vertex 3.082764e+01 -3.723443e+00 5.000000e+00
      vertex 3.085196e+01 -4.001282e+00 5.000000e+00
    endloop
  endfacet
  facet normal 0.000000e+00 0.000000e+00 1.000000e+00
    outer loop
      vertex 3.550000e+01 -1.384441e+01 5.000000e+00
      vertex 3.085196e+01 -4.001282e+00 5.000000e+00
      vertex 3.150097e+01 -8.843634e+00 5.000000e+00
    endloop
  endfacet
  facet normal 0.000000e+00 0.000000e+00 1.000000e+00
    outer loop
      vertex 3.150097e+01 -8.843634e+00 5.000000e+00
      vertex 3.085196e+01 -4.001282e+00 5.000000e+00
      vertex 3.082764e+01 -4.279118e+00 5.000000e+00
    endloop
  endfacet
  facet normal 0.000000e+00 0.000000e+00 1.000000e+00
    outer loop
      vertex 3.150097e+01 -8.843634e+00 5.000000e+00
      vertex 3.082764e+01 -4.279118e+00 5.000000e+00
      vertex 3.075545e+01 -4.548512e+00 5.000000e+00
    endloop
  endfacet
  facet normal 0.000000e+00 0.000000e+00 1.000000e+00
    outer loop
      vertex 3.047762e+01 -5.029741e+00 5.000000e+00
      vertex 3.028041e+01 -5.226952e+00 5.000000e+00
      vertex 3.150097e+01 -8.843634e+00 5.000000e+00
    endloop
  endfacet
  facet normal 0.000000e+00 0.000000e+00 1.000000e+00
    outer loop
      vertex 3.150097e+01 -8.843634e+00 5.000000e+00
      vertex 3.028041e+01 -5.226952e+00 5.000000e+00
      vertex 3.005195e+01 -5.386923e+00 5.000000e+00
    endloop
  endfacet
  facet normal 0.000000e+00 0.000000e+00 1.000000e+00
    outer loop
      vertex 3.150097e+01 -8.843634e+00 5.000000e+00
      vertex 3.005195e+01 -5.386923e+00 5.000000e+00
      vertex 2.979919e+01 -5.504790e+00 5.000000e+00
    endloop
  endfacet
  facet normal 0.000000e+00 0.000000e+00 1.000000e+00
    outer loop
      vertex -2.650000e+01 -1.383234e+01 5.000000e+00
      vertex 2.650000e+01 -1.384266e+01 5.000000e+00
      vertex -2.649902e+01 -8.832339e+00 5.000000e+00
    endloop
  endfacet
  facet normal 0.000000e+00 0.000000e+00 1.000000e+00
    outer loop
      vertex -2.649902e+01 -8.832339e+00 5.000000e+00
      vertex 2.650000e+01 -1.384266e+01 5.000000e+00
      vertex 2.650098e+01 -8.842658e+00 5.000000e+00
    endloop
  endfacet
  facet normal 0.000000e+00 0.000000e+00 1.000000e+00
    outer loop
      vertex -2.649902e+01 -8.832339e+00 5.000000e+00
      vertex 2.650098e+01 -8.842658e+00 5.000000e+00
      vertex 2.925195e+01 -5.601279e+00 5.000000e+00
    endloop
  endfacet
  facet normal 0.000000e+00 0.000000e+00 1.000000e+00
    outer loop
      vertex 2.925195e+01 -5.601279e+00 5.000000e+00
      vertex 2.650098e+01 -8.842658e+00 5.000000e+00
      vertex 3.150097e+01 -8.843634e+00 5.000000e+00
    endloop
  endfacet
  facet normal 0.000000e+00 0.000000e+00 1.000000e+00
    outer loop
      vertex 2.925195e+01 -5.601279e+00 5.000000e+00
      vertex 3.150097e+01 -8.843634e+00 5.000000e+00
      vertex 2.952979e+01 -5.576972e+00 5.000000e+00
    endloop
  endfacet
  facet normal 0.000000e+00 0.000000e+00 1.000000e+00
    outer loop
      vertex 2.952979e+01 -5.576972e+00 5.000000e+00
      vertex 3.150097e+01 -8.843634e+00 5.000000e+00
      vertex 2.979919e+01 -5.504790e+00 5.000000e+00
    endloop
  endfacet
  facet normal 0.000000e+00 0.000000e+00 1.000000e+00
    outer loop
      vertex -2.794805e+01 -2.604347e+00 5.000000e+00
      vertex -2.771959e+01 -2.764315e+00 5.000000e+00
      vertex -2.639610e+01 9.105501e-01 5.000000e+00
    endloop
  endfacet
  facet normal 0.000000e+00 0.000000e+00 1.000000e+00
    outer loop
      vertex -2.639610e+01 9.105501e-01 5.000000e+00
      vertex -2.771959e+01 -2.764315e+00 5.000000e+00
      vertex -2.752238e+01 -2.961528e+00 5.000000e+00
    endloop
  endfacet
  facet normal 0.000000e+00 0.000000e+00 1.000000e+00
    outer loop
      vertex -2.639610e+01 9.105501e-01 5.000000e+00
      vertex -2.752238e+01 -2.961528e+00 5.000000e+00
      vertex 2.640292e+01 8.992548e-01 5.000000e+00
    endloop
  endfacet
  facet normal 0.000000e+00 0.000000e+00 1.000000e+00
    outer loop
      vertex 2.640292e+01 8.992548e-01 5.000000e+00
      vertex -2.752238e+01 -2.961528e+00 5.000000e+00
      vertex -2.736241e+01 -3.189988e+00 5.000000e+00
    endloop
  endfacet
  facet normal 0.000000e+00 0.000000e+00 1.000000e+00
    outer loop
      vertex 2.640292e+01 8.992548e-01 5.000000e+00
      vertex -2.736241e+01 -3.189988e+00 5.000000e+00
      vertex -2.724454e+01 -3.442753e+00 5.000000e+00
    endloop
  endfacet
  facet normal 0.000000e+00 0.000000e+00 1.000000e+00
    outer loop
      vertex -2.847021e+01 -5.565681e+00 5.000000e+00
      vertex -2.874805e+01 -5.589988e+00 5.000000e+00
      vertex -2.649902e+01 -8.832339e+00 5.000000e+00
    endloop
  endfacet
  facet normal 0.000000e+00 0.000000e+00 1.000000e+00
    outer loop
      vertex -3.149902e+01 -8.831363e+00 5.000000e+00
      vertex -2.929528e+01 -5.493496e+00 5.000000e+00
      vertex -2.954805e+01 -5.375628e+00 5.000000e+00
    endloop
  endfacet
  facet normal 0.000000e+00 0.000000e+00 1.000000e+00
    outer loop
      vertex -3.013369e+01 -4.789986e+00 5.000000e+00
      vertex -3.025156e+01 -4.537217e+00 5.000000e+00
      vertex -3.149902e+01 -8.831363e+00 5.000000e+00
    endloop
  endfacet
  facet normal 0.000000e+00 0.000000e+00 1.000000e+00
    outer loop
      vertex -3.149902e+01 -8.831363e+00 5.000000e+00
      vertex -3.025156e+01 -4.537217e+00 5.000000e+00
      vertex -3.032374e+01 -4.267823e+00 5.000000e+00
    endloop
  endfacet
  facet normal 0.000000e+00 0.000000e+00 1.000000e+00
    outer loop
      vertex -3.149902e+01 -8.831363e+00 5.000000e+00
      vertex -3.032374e+01 -4.267823e+00 5.000000e+00
      vertex -3.159707e+01 9.105501e-01 5.000000e+00
    endloop
  endfacet
  facet normal 0.000000e+00 0.000000e+00 1.000000e+00
    outer loop
      vertex -3.159707e+01 9.105501e-01 5.000000e+00
      vertex -3.032374e+01 -4.267823e+00 5.000000e+00
      vertex -3.034805e+01 -3.989987e+00 5.000000e+00
    endloop
  endfacet
  facet normal 0.000000e+00 0.000000e+00 1.000000e+00
    outer loop
      vertex -3.159707e+01 9.105501e-01 5.000000e+00
      vertex -3.034805e+01 -3.989987e+00 5.000000e+00
      vertex -3.032374e+01 -3.712152e+00 5.000000e+00
    endloop
  endfacet
  facet normal 0.000000e+00 0.000000e+00 1.000000e+00
    outer loop
      vertex -2.954805e+01 -5.375628e+00 5.000000e+00
      vertex -2.977651e+01 -5.215660e+00 5.000000e+00
      vertex -3.149902e+01 -8.831363e+00 5.000000e+00
    endloop
  endfacet
  facet normal 0.000000e+00 0.000000e+00 1.000000e+00
    outer loop
      vertex -3.149902e+01 -8.831363e+00 5.000000e+00
      vertex -2.977651e+01 -5.215660e+00 5.000000e+00
      vertex -2.997372e+01 -5.018447e+00 5.000000e+00
    endloop
  endfacet
  facet normal 0.000000e+00 0.000000e+00 1.000000e+00
    outer loop
      vertex -3.149902e+01 -8.831363e+00 5.000000e+00
      vertex -2.997372e+01 -5.018447e+00 5.000000e+00
      vertex -3.013369e+01 -4.789986e+00 5.000000e+00
    endloop
  endfacet
  facet normal 0.000000e+00 0.000000e+00 1.000000e+00
    outer loop
      vertex -2.649902e+01 -8.832339e+00 5.000000e+00
      vertex -2.874805e+01 -5.589988e+00 5.000000e+00
      vertex -3.149902e+01 -8.831363e+00 5.000000e+00
    endloop
  endfacet
  facet normal 0.000000e+00 0.000000e+00 1.000000e+00
    outer loop
      vertex -3.149902e+01 -8.831363e+00 5.000000e+00
      vertex -2.874805e+01 -5.589988e+00 5.000000e+00
      vertex -2.902589e+01 -5.565681e+00 5.000000e+00
    endloop
  endfacet
  facet normal 0.000000e+00 0.000000e+00 1.000000e+00
    outer loop
      vertex -3.149902e+01 -8.831363e+00 5.000000e+00
      vertex -2.902589e+01 -5.565681e+00 5.000000e+00
      vertex -2.929528e+01 -5.493496e+00 5.000000e+00
    endloop
  endfacet
  facet normal 0.000000e+00 0.000000e+00 1.000000e+00
    outer loop
      vertex -2.649902e+01 -8.832339e+00 5.000000e+00
      vertex -2.752238e+01 -5.018447e+00 5.000000e+00
      vertex -2.771959e+01 -5.215660e+00 5.000000e+00
    endloop
  endfacet
  facet normal 0.000000e+00 0.000000e+00 1.000000e+00
    outer loop
      vertex -2.714805e+01 -3.989987e+00 5.000000e+00
      vertex -2.717236e+01 -4.267823e+00 5.000000e+00
      vertex 2.925195e+01 -5.601279e+00 5.000000e+00
    endloop
  endfacet
  facet normal 0.000000e+00 0.000000e+00 1.000000e+00
    outer loop
      vertex 2.925195e+01 -5.601279e+00 5.000000e+00
      vertex -2.717236e+01 -4.267823e+00 5.000000e+00
      vertex -2.724454e+01 -4.537217e+00 5.000000e+00
    endloop
  endfacet
  facet normal 0.000000e+00 0.000000e+00 1.000000e+00
    outer loop
      vertex 2.925195e+01 -5.601279e+00 5.000000e+00
      vertex -2.724454e+01 -4.537217e+00 5.000000e+00
      vertex -2.649902e+01 -8.832339e+00 5.000000e+00
    endloop
  endfacet
  facet normal 0.000000e+00 0.000000e+00 1.000000e+00
    outer loop
      vertex -2.649902e+01 -8.832339e+00 5.000000e+00
      vertex -2.724454e+01 -4.537217e+00 5.000000e+00
      vertex -2.736241e+01 -4.789986e+00 5.000000e+00
    endloop
  endfacet
  facet normal 0.000000e+00 0.000000e+00 1.000000e+00
    outer loop
      vertex -2.649902e+01 -8.832339e+00 5.000000e+00
      vertex -2.736241e+01 -4.789986e+00 5.000000e+00
      vertex -2.752238e+01 -5.018447e+00 5.000000e+00
    endloop
  endfacet
  facet normal 0.000000e+00 0.000000e+00 1.000000e+00
    outer loop
      vertex -2.771959e+01 -5.215660e+00 5.000000e+00
      vertex -2.794805e+01 -5.375628e+00 5.000000e+00
      vertex -2.649902e+01 -8.832339e+00 5.000000e+00
    endloop
  endfacet
  facet normal 0.000000e+00 0.000000e+00 1.000000e+00
    outer loop
      vertex -2.649902e+01 -8.832339e+00 5.000000e+00
      vertex -2.794805e+01 -5.375628e+00 5.000000e+00
      vertex -2.820082e+01 -5.493496e+00 5.000000e+00
    endloop
  endfacet
  facet normal 0.000000e+00 0.000000e+00 1.000000e+00
    outer loop
      vertex -2.649902e+01 -8.832339e+00 5.000000e+00
      vertex -2.820082e+01 -5.493496e+00 5.000000e+00
      vertex -2.847021e+01 -5.565681e+00 5.000000e+00
    endloop
  endfacet
  facet normal 0.000000e+00 0.000000e+00 -1.000000e+00
    outer loop
      vertex -3.149902e+01 -8.831363e+00 0.000000e+00
      vertex -3.150000e+01 -1.383137e+01 0.000000e+00
      vertex -3.550000e+01 -1.383058e+01 0.000000e+00
    endloop
  endfacet
  facet normal 0.000000e+00 0.000000e+00 -1.000000e+00
    outer loop
      vertex -3.159707e+01 9.105501e-01 0.000000e+00
      vertex -3.550000e+01 -1.383058e+01 0.000000e+00
      vertex -3.159707e+01 6.109573e+00 0.000000e+00
    endloop
  endfacet
  facet normal 0.000000e+00 0.000000e+00 -1.000000e+00
    outer loop
      vertex -3.159707e+01 6.109573e+00 0.000000e+00
      vertex -3.550000e+01 -1.383058e+01 0.000000e+00
      vertex -3.550000e+01 1.384441e+01 0.000000e+00
    endloop
  endfacet
  facet normal 0.000000e+00 0.000000e+00 -1.000000e+00
    outer loop
      vertex -3.159707e+01 6.109573e+00 0.000000e+00
      vertex -3.550000e+01 1.384441e+01 0.000000e+00
      vertex -2.639610e+01 6.109573e+00 0.000000e+00
    endloop
  endfacet
  facet normal 0.000000e+00 0.000000e+00 -1.000000e+00
    outer loop
      vertex 3.550000e+01 -1.384441e+01 0.000000e+00
      vertex 3.150000e+01 -1.384364e+01 0.000000e+00
      vertex 3.550000e+01 1.383059e+01 0.000000e+00
    endloop
  endfacet
  facet normal 0.000000e+00 0.000000e+00 -1.000000e+00
    outer loop
      vertex 3.550000e+01 1.383059e+01 0.000000e+00
      vertex 3.150000e+01 -1.384364e+01 0.000000e+00
      vertex 3.150097e+01 -8.843634e+00 0.000000e+00
    endloop
  endfacet
  facet normal 0.000000e+00 0.000000e+00 -1.000000e+00
    outer loop
      vertex 2.640292e+01 6.098282e+00 0.000000e+00
      vertex 2.640292e+01 8.992548e-01 0.000000e+00
      vertex -2.639610e+01 9.105501e-01 0.000000e+00
    endloop
  endfacet
  facet normal 0.000000e+00 0.000000e+00 -1.000000e+00
    outer loop
      vertex 3.082764e+01 -4.279118e+00 0.000000e+00
      vertex 3.085196e+01 -4.001282e+00 0.000000e+00
      vertex 3.160389e+01 8.992548e-01 0.000000e+00
    endloop
  endfacet
  facet normal 0.000000e+00 0.000000e+00 -1.000000e+00
    outer loop
      vertex -2.820082e+01 -5.493496e+00 0.000000e+00
      vertex 2.765194e+01 -4.001282e+00 0.000000e+00
      vertex -2.847021e+01 -5.565681e+00 0.000000e+00
    endloop
  endfacet
  facet normal 0.000000e+00 0.000000e+00 -1.000000e+00
    outer loop
      vertex -2.847021e+01 -5.565681e+00 0.000000e+00
      vertex 2.765194e+01 -4.001282e+00 0.000000e+00
      vertex -2.874805e+01 -5.589988e+00 0.000000e+00
    endloop
  endfacet
  facet normal 0.000000e+00 0.000000e+00 -1.000000e+00
    outer loop
      vertex -2.820082e+01 -5.493496e+00 0.000000e+00
      vertex -2.794805e+01 -5.375628e+00 0.000000e+00
      vertex 2.765194e+01 -4.001282e+00 0.000000e+00
    endloop
  endfacet
  facet normal 0.000000e+00 0.000000e+00 -1.000000e+00
    outer loop
      vertex 2.765194e+01 -4.001282e+00 0.000000e+00
      vertex -2.794805e+01 -5.375628e+00 0.000000e+00
      vertex -2.771959e+01 -5.215660e+00 0.000000e+00
    endloop
  endfacet
  facet normal 0.000000e+00 0.000000e+00 -1.000000e+00
    outer loop
      vertex 2.765194e+01 -4.001282e+00 0.000000e+00
      vertex -2.771959e+01 -5.215660e+00 0.000000e+00
      vertex -2.752238e+01 -5.018447e+00 0.000000e+00
    endloop
  endfacet
  facet normal 0.000000e+00 0.000000e+00 -1.000000e+00
    outer loop
      vertex -2.752238e+01 -5.018447e+00 0.000000e+00
      vertex -2.736241e+01 -4.789986e+00 0.000000e+00
      vertex 2.765194e+01 -4.001282e+00 0.000000e+00
    endloop
  endfacet
  facet normal 0.000000e+00 0.000000e+00 -1.000000e+00
    outer loop
      vertex 2.765194e+01 -4.001282e+00 0.000000e+00
      vertex -2.736241e+01 -4.789986e+00 0.000000e+00
      vertex -2.724454e+01 -4.537217e+00 0.000000e+00
    endloop
  endfacet
  facet normal 0.000000e+00 0.000000e+00 -1.000000e+00
    outer loop
      vertex 2.765194e+01 -4.001282e+00 0.000000e+00
      vertex -2.724454e+01 -4.537217e+00 0.000000e+00
      vertex -2.717236e+01 -4.267823e+00 0.000000e+00
    endloop
  endfacet
  facet normal 0.000000e+00 0.000000e+00 -1.000000e+00
    outer loop
      vertex 2.640292e+01 8.992548e-01 0.000000e+00
      vertex 2.822349e+01 -2.775610e+00 0.000000e+00
      vertex 2.802628e+01 -2.972822e+00 0.000000e+00
    endloop
  endfacet
  facet normal 0.000000e+00 0.000000e+00 -1.000000e+00
    outer loop
      vertex 2.767625e+01 -3.723443e+00 0.000000e+00
      vertex 2.765194e+01 -4.001282e+00 0.000000e+00
      vertex -2.639610e+01 9.105501e-01 0.000000e+00
    endloop
  endfacet
  facet normal 0.000000e+00 0.000000e+00 -1.000000e+00
    outer loop
      vertex 3.085196e+01 -4.001282e+00 0.000000e+00
      vertex 3.082764e+01 -3.723443e+00 0.000000e+00
      vertex 3.160389e+01 8.992548e-01 0.000000e+00
    endloop
  endfacet
  facet normal 0.000000e+00 0.000000e+00 -1.000000e+00
    outer loop
      vertex 3.160389e+01 8.992548e-01 0.000000e+00
      vertex 3.082764e+01 -3.723443e+00 0.000000e+00
      vertex 3.075545e+01 -3.454048e+00 0.000000e+00
    endloop
  endfacet
  facet normal 0.000000e+00 0.000000e+00 -1.000000e+00
    outer loop
      vertex 3.160389e+01 8.992548e-01 0.000000e+00
      vertex 3.075545e+01 -3.454048e+00 0.000000e+00
      vertex 3.063758e+01 -3.201280e+00 0.000000e+00
    endloop
  endfacet
  facet normal 0.000000e+00 0.000000e+00 -1.000000e+00
    outer loop
      vertex -3.159707e+01 9.105501e-01 0.000000e+00
      vertex -3.032374e+01 -3.712152e+00 0.000000e+00
      vertex -3.550000e+01 -1.383058e+01 0.000000e+00
    endloop
  endfacet
  facet normal 0.000000e+00 0.000000e+00 -1.000000e+00
    outer loop
      vertex -3.550000e+01 -1.383058e+01 0.000000e+00
      vertex -3.032374e+01 -3.712152e+00 0.000000e+00
      vertex -3.034805e+01 -3.989987e+00 0.000000e+00
    endloop
  endfacet
  facet normal 0.000000e+00 0.000000e+00 -1.000000e+00
    outer loop
      vertex -3.550000e+01 -1.383058e+01 0.000000e+00
      vertex -3.034805e+01 -3.989987e+00 0.000000e+00
      vertex -3.149902e+01 -8.831363e+00 0.000000e+00
    endloop
  endfacet
  facet normal 0.000000e+00 0.000000e+00 -1.000000e+00
    outer loop
      vertex -3.149902e+01 -8.831363e+00 0.000000e+00
      vertex -3.034805e+01 -3.989987e+00 0.000000e+00
      vertex -3.032374e+01 -4.267823e+00 0.000000e+00
    endloop
  endfacet
  facet normal 0.000000e+00 0.000000e+00 -1.000000e+00
    outer loop
      vertex -2.847021e+01 -2.414293e+00 0.000000e+00
      vertex -2.874805e+01 -2.389986e+00 0.000000e+00
      vertex -2.639610e+01 9.105501e-01 0.000000e+00
    endloop
  endfacet
  facet normal 0.000000e+00 0.000000e+00 -1.000000e+00
    outer loop
      vertex -2.997372e+01 -2.961528e+00 0.000000e+00
      vertex -3.013369e+01 -3.189988e+00 0.000000e+00
      vertex -3.159707e+01 9.105501e-01 0.000000e+00
    endloop
  endfacet
  facet normal 0.000000e+00 0.000000e+00 -1.000000e+00
    outer loop
      vertex -3.159707e+01 9.105501e-01 0.000000e+00
      vertex -3.013369e+01 -3.189988e+00 0.000000e+00
      vertex -3.025156e+01 -3.442753e+00 0.000000e+00
    endloop
  endfacet
  facet normal 0.000000e+00 0.000000e+00 -1.000000e+00
    outer loop
      vertex -3.159707e+01 9.105501e-01 0.000000e+00
      vertex -3.025156e+01 -3.442753e+00 0.000000e+00
      vertex -3.032374e+01 -3.712152e+00 0.000000e+00
    endloop
  endfacet
  facet normal 0.000000e+00 0.000000e+00 -1.000000e+00
    outer loop
      vertex 2.767625e+01 -3.723443e+00 0.000000e+00
      vertex -2.639610e+01 9.105501e-01 0.000000e+00
      vertex 2.774844e+01 -3.454048e+00 0.000000e+00
    endloop
  endfacet
  facet normal -0.000000e+00 -0.000000e+00 -1.000000e+00
    outer loop
      vertex 2.640292e+01 8.992548e-01 0.000000e+00
      vertex 2.802628e+01 -2.972822e+00 0.000000e+00
      vertex -2.639610e+01 9.105501e-01 0.000000e+00
    endloop
  endfacet
  facet normal 0.000000e+00 0.000000e+00 -1.000000e+00
    outer loop
      vertex -2.639610e+01 9.105501e-01 0.000000e+00
      vertex 2.802628e+01 -2.972822e+00 0.000000e+00
      vertex 2.786631e+01 -3.201280e+00 0.000000e+00
    endloop
  endfacet
  facet normal 0.000000e+00 0.000000e+00 -1.000000e+00
    outer loop
      vertex -2.639610e+01 9.105501e-01 0.000000e+00
      vertex 2.786631e+01 -3.201280e+00 0.000000e+00
      vertex 2.774844e+01 -3.454048e+00 0.000000e+00
    endloop
  endfacet
  facet normal 0.000000e+00 0.000000e+00 -1.000000e+00
    outer loop
      vertex 3.063758e+01 -3.201280e+00 0.000000e+00
      vertex 3.047762e+01 -2.972822e+00 0.000000e+00
      vertex 3.160389e+01 8.992548e-01 0.000000e+00
    endloop
  endfacet
  facet normal 0.000000e+00 0.000000e+00 -1.000000e+00
    outer loop
      vertex 3.160389e+01 8.992548e-01 0.000000e+00
      vertex 3.047762e+01 -2.972822e+00 0.000000e+00
      vertex 3.028041e+01 -2.775610e+00 0.000000e+00
    endloop
  endfacet
  facet normal 0.000000e+00 0.000000e+00 -1.000000e+00
    outer loop
      vertex 3.160389e+01 8.992548e-01 0.000000e+00
      vertex 3.028041e+01 -2.775610e+00 0.000000e+00
      vertex 2.640292e+01 8.992548e-01 0.000000e+00
    endloop
  endfacet
  facet normal 0.000000e+00 0.000000e+00 -1.000000e+00
    outer loop
      vertex 2.640292e+01 8.992548e-01 0.000000e+00
      vertex 3.028041e+01 -2.775610e+00 0.000000e+00
      vertex 3.005195e+01 -2.615642e+00 0.000000e+00
    endloop
  endfacet
  facet normal 0.000000e+00 0.000000e+00 -1.000000e+00
    outer loop
      vertex 2.640292e+01 8.992548e-01 0.000000e+00
      vertex 3.005195e+01 -2.615642e+00 0.000000e+00
      vertex 2.979919e+01 -2.497774e+00 0.000000e+00
    endloop
  endfacet
  facet normal 0.000000e+00 0.000000e+00 -1.000000e+00
    outer loop
      vertex -2.736241e+01 -3.189988e+00 0.000000e+00
      vertex -2.752238e+01 -2.961528e+00 0.000000e+00
      vertex -2.639610e+01 9.105501e-01 0.000000e+00
    endloop
  endfacet
  facet normal 0.000000e+00 0.000000e+00 -1.000000e+00
    outer loop
      vertex -2.639610e+01 9.105501e-01 0.000000e+00
      vertex -2.752238e+01 -2.961528e+00 0.000000e+00
      vertex -2.771959e+01 -2.764315e+00 0.000000e+00
    endloop
  endfacet
  facet normal 0.000000e+00 0.000000e+00 -1.000000e+00
    outer loop
      vertex -2.639610e+01 9.105501e-01 0.000000e+00
      vertex -2.874805e+01 -2.389986e+00 0.000000e+00
      vertex -3.159707e+01 9.105501e-01 0.000000e+00
    endloop
  endfacet
  facet normal 0.000000e+00 0.000000e+00 -1.000000e+00
    outer loop
      vertex -3.159707e+01 9.105501e-01 0.000000e+00
      vertex -2.874805e+01 -2.389986e+00 0.000000e+00
      vertex -2.902589e+01 -2.414293e+00 0.000000e+00
    endloop
  endfacet
  facet normal 0.000000e+00 0.000000e+00 -1.000000e+00
    outer loop
      vertex -3.159707e+01 9.105501e-01 0.000000e+00
      vertex -2.902589e+01 -2.414293e+00 0.000000e+00
      vertex -2.929528e+01 -2.486479e+00 0.000000e+00
    endloop
  endfacet
  facet normal 0.000000e+00 0.000000e+00 -1.000000e+00
    outer loop
      vertex 2.979919e+01 -2.497774e+00 0.000000e+00
      vertex 2.952979e+01 -2.425589e+00 0.000000e+00
      vertex 2.640292e+01 8.992548e-01 0.000000e+00
    endloop
  endfacet
  facet normal 0.000000e+00 0.000000e+00 -1.000000e+00
    outer loop
      vertex 2.640292e+01 8.992548e-01 0.000000e+00
      vertex 2.952979e+01 -2.425589e+00 0.000000e+00
      vertex 2.925195e+01 -2.401281e+00 0.000000e+00
    endloop
  endfacet
  facet normal 0.000000e+00 0.000000e+00 -1.000000e+00
    outer loop
      vertex 2.640292e+01 8.992548e-01 0.000000e+00
      vertex 2.925195e+01 -2.401281e+00 0.000000e+00
      vertex 2.897411e+01 -2.425589e+00 0.000000e+00
    endloop
  endfacet
  facet normal 0.000000e+00 0.000000e+00 -1.000000e+00
    outer loop
      vertex 2.897411e+01 -2.425589e+00 0.000000e+00
      vertex 2.870472e+01 -2.497774e+00 0.000000e+00
      vertex 2.640292e+01 8.992548e-01 0.000000e+00
    endloop
  endfacet
  facet normal 0.000000e+00 0.000000e+00 -1.000000e+00
    outer loop
      vertex 2.640292e+01 8.992548e-01 0.000000e+00
      vertex 2.870472e+01 -2.497774e+00 0.000000e+00
      vertex 2.845195e+01 -2.615642e+00 0.000000e+00
    endloop
  endfacet
  facet normal 0.000000e+00 0.000000e+00 -1.000000e+00
    outer loop
      vertex 2.640292e+01 8.992548e-01 0.000000e+00
      vertex 2.845195e+01 -2.615642e+00 0.000000e+00
      vertex 2.822349e+01 -2.775610e+00 0.000000e+00
    endloop
  endfacet
  facet normal 0.000000e+00 0.000000e+00 -1.000000e+00
    outer loop
      vertex 3.028041e+01 -5.226952e+00 0.000000e+00
      vertex 3.047762e+01 -5.029741e+00 0.000000e+00
      vertex 3.150097e+01 -8.843634e+00 0.000000e+00
    endloop
  endfacet
  facet normal 0.000000e+00 0.000000e+00 -1.000000e+00
    outer loop
      vertex 3.150097e+01 -8.843634e+00 0.000000e+00
      vertex 3.047762e+01 -5.029741e+00 0.000000e+00
      vertex 3.063758e+01 -4.801281e+00 0.000000e+00
    endloop
  endfacet
  facet normal 0.000000e+00 0.000000e+00 -1.000000e+00
    outer loop
      vertex 3.150097e+01 -8.843634e+00 0.000000e+00
      vertex 3.063758e+01 -4.801281e+00 0.000000e+00
      vertex 3.075545e+01 -4.548512e+00 0.000000e+00
    endloop
  endfacet
  facet normal 0.000000e+00 0.000000e+00 -1.000000e+00
    outer loop
      vertex -3.032374e+01 -4.267823e+00 0.000000e+00
      vertex -3.025156e+01 -4.537217e+00 0.000000e+00
      vertex -3.149902e+01 -8.831363e+00 0.000000e+00
    endloop
  endfacet
  facet normal 0.000000e+00 0.000000e+00 -1.000000e+00
    outer loop
      vertex -3.149902e+01 -8.831363e+00 0.000000e+00
      vertex -3.025156e+01 -4.537217e+00 0.000000e+00
      vertex -3.013369e+01 -4.789986e+00 0.000000e+00
    endloop
  endfacet
  facet normal 0.000000e+00 0.000000e+00 -1.000000e+00
    outer loop
      vertex -3.149902e+01 -8.831363e+00 0.000000e+00
      vertex -3.013369e+01 -4.789986e+00 0.000000e+00
      vertex -2.997372e+01 -5.018447e+00 0.000000e+00
    endloop
  endfacet
  facet normal 0.000000e+00 0.000000e+00 -1.000000e+00
    outer loop
      vertex -2.997372e+01 -5.018447e+00 0.000000e+00
      vertex -2.977651e+01 -5.215660e+00 0.000000e+00
      vertex -3.149902e+01 -8.831363e+00 0.000000e+00
    endloop
  endfacet
  facet normal 0.000000e+00 0.000000e+00 -1.000000e+00
    outer loop
      vertex -3.149902e+01 -8.831363e+00 0.000000e+00
      vertex -2.977651e+01 -5.215660e+00 0.000000e+00
      vertex -2.954805e+01 -5.375628e+00 0.000000e+00
    endloop
  endfacet
  facet normal 0.000000e+00 0.000000e+00 -1.000000e+00
    outer loop
      vertex -3.149902e+01 -8.831363e+00 0.000000e+00
      vertex -2.954805e+01 -5.375628e+00 0.000000e+00
      vertex -2.929528e+01 -5.493496e+00 0.000000e+00
    endloop
  endfacet
  facet normal 0.000000e+00 0.000000e+00 -1.000000e+00
    outer loop
      vertex -2.717236e+01 -4.267823e+00 0.000000e+00
      vertex -2.714805e+01 -3.989987e+00 0.000000e+00
      vertex 2.765194e+01 -4.001282e+00 0.000000e+00
    endloop
  endfacet
  facet normal 0.000000e+00 0.000000e+00 -1.000000e+00
    outer loop
      vertex 2.765194e+01 -4.001282e+00 0.000000e+00
      vertex -2.714805e+01 -3.989987e+00 0.000000e+00
      vertex -2.717236e+01 -3.712152e+00 0.000000e+00
    endloop
  endfacet
  facet normal 0.000000e+00 0.000000e+00 -1.000000e+00
    outer loop
      vertex 2.765194e+01 -4.001282e+00 0.000000e+00
      vertex -2.717236e+01 -3.712152e+00 0.000000e+00
      vertex -2.639610e+01 9.105501e-01 0.000000e+00
    endloop
  endfacet
  facet normal 0.000000e+00 0.000000e+00 -1.000000e+00
    outer loop
      vertex -2.639610e+01 9.105501e-01 0.000000e+00
      vertex -2.717236e+01 -3.712152e+00 0.000000e+00
      vertex -2.724454e+01 -3.442753e+00 0.000000e+00
    endloop
  endfacet
  facet normal 0.000000e+00 0.000000e+00 -1.000000e+00
    outer loop
      vertex -2.639610e+01 9.105501e-01 0.000000e+00
      vertex -2.724454e+01 -3.442753e+00 0.000000e+00
      vertex -2.736241e+01 -3.189988e+00 0.000000e+00
    endloop
  endfacet
  facet normal 0.000000e+00 0.000000e+00 -1.000000e+00
    outer loop
      vertex -2.771959e+01 -2.764315e+00 0.000000e+00
      vertex -2.794805e+01 -2.604347e+00 0.000000e+00
      vertex -2.639610e+01 9.105501e-01 0.000000e+00
    endloop
  endfacet
  facet normal 0.000000e+00 0.000000e+00 -1.000000e+00
    outer loop
      vertex -2.639610e+01 9.105501e-01 0.000000e+00
      vertex -2.794805e+01 -2.604347e+00 0.000000e+00
      vertex -2.820082e+01 -2.486479e+00 0.000000e+00
    endloop
  endfacet
  facet normal 0.000000e+00 0.000000e+00 -1.000000e+00
    outer loop
      vertex -2.639610e+01 9.105501e-01 0.000000e+00
      vertex -2.820082e+01 -2.486479e+00 0.000000e+00
      vertex -2.847021e+01 -2.414293e+00 0.000000e+00
    endloop
  endfacet
  facet normal 0.000000e+00 0.000000e+00 -1.000000e+00
    outer loop
      vertex -2.929528e+01 -2.486479e+00 0.000000e+00
      vertex -2.954805e+01 -2.604347e+00 0.000000e+00
      vertex -3.159707e+01 9.105501e-01 0.000000e+00
    endloop
  endfacet
  facet normal 0.000000e+00 0.000000e+00 -1.000000e+00
    outer loop
      vertex -3.159707e+01 9.105501e-01 0.000000e+00
      vertex -2.954805e+01 -2.604347e+00 0.000000e+00
      vertex -2.977651e+01 -2.764315e+00 0.000000e+00
    endloop
  endfacet
  facet normal 0.000000e+00 0.000000e+00 -1.000000e+00
    outer loop
      vertex -3.159707e+01 9.105501e-01 0.000000e+00
      vertex -2.977651e+01 -2.764315e+00 0.000000e+00
      vertex -2.997372e+01 -2.961528e+00 0.000000e+00
    endloop
  endfacet
  facet normal 0.000000e+00 0.000000e+00 -1.000000e+00
    outer loop
      vertex 2.765194e+01 -4.001282e+00 0.000000e+00
      vertex 2.767625e+01 -4.279118e+00 0.000000e+00
      vertex -2.874805e+01 -5.589988e+00 0.000000e+00
    endloop
  endfacet
  facet normal 0.000000e+00 0.000000e+00 -1.000000e+00
    outer loop
      vertex -2.874805e+01 -5.589988e+00 0.000000e+00
      vertex 2.767625e+01 -4.279118e+00 0.000000e+00
      vertex 2.774844e+01 -4.548512e+00 0.000000e+00
    endloop
  endfacet
  facet normal 0.000000e+00 0.000000e+00 -1.000000e+00
    outer loop
      vertex -2.874805e+01 -5.589988e+00 0.000000e+00
      vertex 2.774844e+01 -4.548512e+00 0.000000e+00
      vertex 2.650098e+01 -8.842658e+00 0.000000e+00
    endloop
  endfacet
  facet normal 0.000000e+00 0.000000e+00 -1.000000e+00
    outer loop
      vertex 2.650098e+01 -8.842658e+00 0.000000e+00
      vertex 2.774844e+01 -4.548512e+00 0.000000e+00
      vertex 2.786631e+01 -4.801281e+00 0.000000e+00
    endloop
  endfacet
  facet normal 0.000000e+00 0.000000e+00 -1.000000e+00
    outer loop
      vertex 2.786631e+01 -4.801281e+00 0.000000e+00
      vertex 2.802628e+01 -5.029741e+00 0.000000e+00
      vertex 2.650098e+01 -8.842658e+00 0.000000e+00
    endloop
  endfacet
  facet normal 0.000000e+00 0.000000e+00 -1.000000e+00
    outer loop
      vertex 2.650098e+01 -8.842658e+00 0.000000e+00
      vertex 2.802628e+01 -5.029741e+00 0.000000e+00
      vertex 2.822349e+01 -5.226952e+00 0.000000e+00
    endloop
  endfacet
  facet normal 0.000000e+00 0.000000e+00 -1.000000e+00
    outer loop
      vertex 2.650098e+01 -8.842658e+00 0.000000e+00
      vertex 2.822349e+01 -5.226952e+00 0.000000e+00
      vertex 2.845195e+01 -5.386923e+00 0.000000e+00
    endloop
  endfacet
  facet normal 0.000000e+00 0.000000e+00 -1.000000e+00
    outer loop
      vertex 2.952979e+01 -5.576972e+00 0.000000e+00
      vertex 2.979919e+01 -5.504790e+00 0.000000e+00
      vertex 3.150097e+01 -8.843634e+00 0.000000e+00
    endloop
  endfacet
  facet normal 0.000000e+00 0.000000e+00 -1.000000e+00
    outer loop
      vertex 3.150097e+01 -8.843634e+00 0.000000e+00
      vertex 2.979919e+01 -5.504790e+00 0.000000e+00
      vertex 3.005195e+01 -5.386923e+00 0.000000e+00
    endloop
  endfacet
  facet normal 0.000000e+00 0.000000e+00 -1.000000e+00
    outer loop
      vertex 3.150097e+01 -8.843634e+00 0.000000e+00
      vertex 3.005195e+01 -5.386923e+00 0.000000e+00
      vertex 3.028041e+01 -5.226952e+00 0.000000e+00
    endloop
  endfacet
  facet normal 0.000000e+00 0.000000e+00 -1.000000e+00
    outer loop
      vertex 2.650000e+01 -1.384266e+01 0.000000e+00
      vertex -2.650000e+01 -1.383234e+01 0.000000e+00
      vertex 2.650098e+01 -8.842658e+00 0.000000e+00
    endloop
  endfacet
  facet normal 0.000000e+00 0.000000e+00 -1.000000e+00
    outer loop
      vertex 2.650098e+01 -8.842658e+00 0.000000e+00
      vertex -2.650000e+01 -1.383234e+01 0.000000e+00
      vertex -2.649902e+01 -8.832339e+00 0.000000e+00
    endloop
  endfacet
  facet normal 0.000000e+00 0.000000e+00 -1.000000e+00
    outer loop
      vertex 2.650098e+01 -8.842658e+00 0.000000e+00
      vertex -2.649902e+01 -8.832339e+00 0.000000e+00
      vertex -2.874805e+01 -5.589988e+00 0.000000e+00
    endloop
  endfacet
  facet normal 0.000000e+00 0.000000e+00 -1.000000e+00
    outer loop
      vertex -2.874805e+01 -5.589988e+00 0.000000e+00
      vertex -2.649902e+01 -8.832339e+00 0.000000e+00
      vertex -3.149902e+01 -8.831363e+00 0.000000e+00
    endloop
  endfacet
  facet normal 0.000000e+00 0.000000e+00 -1.000000e+00
    outer loop
      vertex -2.874805e+01 -5.589988e+00 0.000000e+00
      vertex -3.149902e+01 -8.831363e+00 0.000000e+00
      vertex -2.902589e+01 -5.565681e+00 0.000000e+00
    endloop
  endfacet
  facet normal 0.000000e+00 0.000000e+00 -1.000000e+00
    outer loop
      vertex -2.902589e+01 -5.565681e+00 0.000000e+00
      vertex -3.149902e+01 -8.831363e+00 0.000000e+00
      vertex -2.929528e+01 -5.493496e+00 0.000000e+00
    endloop
  endfacet
  facet normal 0.000000e+00 0.000000e+00 -1.000000e+00
    outer loop
      vertex 2.845195e+01 -5.386923e+00 0.000000e+00
      vertex 2.870472e+01 -5.504790e+00 0.000000e+00
      vertex 2.650098e+01 -8.842658e+00 0.000000e+00
    endloop
  endfacet
  facet normal 0.000000e+00 0.000000e+00 -1.000000e+00
    outer loop
      vertex 2.650098e+01 -8.842658e+00 0.000000e+00
      vertex 2.870472e+01 -5.504790e+00 0.000000e+00
      vertex 2.897411e+01 -5.576972e+00 0.000000e+00
    endloop
  endfacet
  facet normal 0.000000e+00 0.000000e+00 -1.000000e+00
    outer loop
      vertex 2.650098e+01 -8.842658e+00 0.000000e+00
      vertex 2.897411e+01 -5.576972e+00 0.000000e+00
      vertex 3.150097e+01 -8.843634e+00 0.000000e+00
    endloop
  endfacet
  facet normal 0.000000e+00 0.000000e+00 -1.000000e+00
    outer loop
      vertex 3.150097e+01 -8.843634e+00 0.000000e+00
      vertex 2.897411e+01 -5.576972e+00 0.000000e+00
      vertex 2.925195e+01 -5.601279e+00 0.000000e+00
    endloop
  endfacet
  facet normal 0.000000e+00 0.000000e+00 -1.000000e+00
    outer loop
      vertex 3.150097e+01 -8.843634e+00 0.000000e+00
      vertex 2.925195e+01 -5.601279e+00 0.000000e+00
      vertex 2.952979e+01 -5.576972e+00 0.000000e+00
    endloop
  endfacet
  facet normal 0.000000e+00 0.000000e+00 -1.000000e+00
    outer loop
      vertex 3.075545e+01 -4.548512e+00 0.000000e+00
      vertex 3.082764e+01 -4.279118e+00 0.000000e+00
      vertex 3.150097e+01 -8.843634e+00 0.000000e+00
    endloop
  endfacet
  facet normal 0.000000e+00 0.000000e+00 -1.000000e+00
    outer loop
      vertex 3.150097e+01 -8.843634e+00 0.000000e+00
      vertex 3.082764e+01 -4.279118e+00 0.000000e+00
      vertex 3.160389e+01 8.992548e-01 0.000000e+00
    endloop
  endfacet
  facet normal 0.000000e+00 0.000000e+00 -1.000000e+00
    outer loop
      vertex 3.150097e+01 -8.843634e+00 0.000000e+00
      vertex 3.160389e+01 8.992548e-01 0.000000e+00
      vertex 3.550000e+01 1.383059e+01 0.000000e+00
    endloop
  endfacet
  facet normal 0.000000e+00 0.000000e+00 -1.000000e+00
    outer loop
      vertex 3.550000e+01 1.383059e+01 0.000000e+00
      vertex 3.160389e+01 8.992548e-01 0.000000e+00
      vertex 3.160389e+01 6.098282e+00 0.000000e+00
    endloop
  endfacet
  facet normal 0.000000e+00 0.000000e+00 -1.000000e+00
    outer loop
      vertex 3.550000e+01 1.383059e+01 0.000000e+00
      vertex 3.160389e+01 6.098282e+00 0.000000e+00
      vertex -3.550000e+01 1.384441e+01 0.000000e+00
    endloop
  endfacet
  facet normal 0.000000e+00 0.000000e+00 -1.000000e+00
    outer loop
      vertex -3.550000e+01 1.384441e+01 0.000000e+00
      vertex 3.160389e+01 6.098282e+00 0.000000e+00
      vertex 2.640292e+01 6.098282e+00 0.000000e+00
    endloop
  endfacet
  facet normal 0.000000e+00 0.000000e+00 -1.000000e+00
    outer loop
      vertex -3.550000e+01 1.384441e+01 0.000000e+00
      vertex 2.640292e+01 6.098282e+00 0.000000e+00
      vertex -2.639610e+01 6.109573e+00 0.000000e+00
    endloop
  endfacet
  facet normal 0.000000e+00 0.000000e+00 -1.000000e+00
    outer loop
      vertex -2.639610e+01 6.109573e+00 0.000000e+00
      vertex 2.640292e+01 6.098282e+00 0.000000e+00
      vertex -2.639610e+01 9.105501e-01 0.000000e+00
    endloop
  endfacet
  facet normal 1.947108e-04 9.999999e-01 0.000000e+00
    outer loop
      vertex 3.550000e+01 1.383059e+01 0.000000e+00
      vertex -3.550000e+01 1.384441e+01 0.000000e+00
      vertex 3.550000e+01 1.383059e+01 5.000000e+00
    endloop
  endfacet
  facet normal 1.947108e-04 9.999999e-01 0.000000e+00
    outer loop
      vertex 3.550000e+01 1.383059e+01 5.000000e+00
      vertex -3.550000e+01 1.384441e+01 0.000000e+00
      vertex -3.550000e+01 1.384441e+01 5.000000e+00
    endloop
  endfacet
  facet normal -1.955777e-04 -1.000000e+00 0.000000e+00
    outer loop
      vertex -3.550000e+01 -1.383058e+01 0.000000e+00
      vertex -3.150000e+01 -1.383137e+01 0.000000e+00
      vertex -3.550000e+01 -1.383058e+01 5.000000e+00
    endloop
  endfacet
  facet normal -1.955777e-04 -1.000000e+00 0.000000e+00
    outer loop
      vertex -3.550000e+01 -1.383058e+01 5.000000e+00
      vertex -3.150000e+01 -1.383137e+01 0.000000e+00
      vertex -3.150000e+01 -1.383137e+01 5.000000e+00
    endloop
  endfacet
  facet normal 1.000000e+00 -1.944541e-04 0.000000e+00
    outer loop
      vertex -3.149902e+01 -8.831363e+00 5.000000e+00
      vertex -3.150000e+01 -1.383137e+01 5.000000e+00
      vertex -3.149902e+01 -8.831363e+00 0.000000e+00
    endloop
  endfacet
  facet normal 1.000000e+00 -1.944541e-04 0.000000e+00
    outer loop
      vertex -3.149902e+01 -8.831363e+00 0.000000e+00
      vertex -3.150000e+01 -1.383137e+01 5.000000e+00
      vertex -3.150000e+01 -1.383137e+01 0.000000e+00
    endloop
  endfacet
  facet normal -1.952171e-04 -1.000000e+00 -0.000000e+00
    outer loop
      vertex -2.649902e+01 -8.832339e+00 5.000000e+00
      vertex -3.149902e+01 -8.831363e+00 5.000000e+00
      vertex -2.649902e+01 -8.832339e+00 0.000000e+00
    endloop
  endfacet
  facet normal -1.952171e-04 -1.000000e+00 0.000000e+00
    outer loop
      vertex -2.649902e+01 -8.832339e+00 0.000000e+00
      vertex -3.149902e+01 -8.831363e+00 5.000000e+00
      vertex -3.149902e+01 -8.831363e+00 0.000000e+00
    endloop
  endfacet
  facet normal -1.000000e+00 1.947402e-04 0.000000e+00
    outer loop
      vertex -2.650000e+01 -1.383234e+01 5.000000e+00
      vertex -2.649902e+01 -8.832339e+00 5.000000e+00
      vertex -2.650000e+01 -1.383234e+01 0.000000e+00
    endloop
  endfacet
  facet normal -1.000000e+00 1.947402e-04 0.000000e+00
    outer loop
      vertex -2.650000e+01 -1.383234e+01 0.000000e+00
      vertex -2.649902e+01 -8.832339e+00 5.000000e+00
      vertex -2.649902e+01 -8.832339e+00 0.000000e+00
    endloop
  endfacet
  facet normal -1.946991e-04 -1.000000e+00 -0.000000e+00
    outer loop
      vertex 2.650000e+01 -1.384266e+01 5.000000e+00
      vertex -2.650000e+01 -1.383234e+01 5.000000e+00
      vertex 2.650000e+01 -1.384266e+01 0.000000e+00
    endloop
  endfacet
  facet normal -1.946991e-04 -1.000000e+00 0.000000e+00
    outer loop
      vertex 2.650000e+01 -1.384266e+01 0.000000e+00
      vertex -2.650000e+01 -1.383234e+01 5.000000e+00
      vertex -2.650000e+01 -1.383234e+01 0.000000e+00
    endloop
  endfacet
  facet normal 1.000000e+00 -1.945494e-04 0.000000e+00
    outer loop
      vertex 2.650098e+01 -8.842658e+00 5.000000e+00
      vertex 2.650000e+01 -1.384266e+01 5.000000e+00
      vertex 2.650098e+01 -8.842658e+00 0.000000e+00
    endloop
  endfacet
  facet normal 1.000000e+00 -1.945494e-04 0.000000e+00
    outer loop
      vertex 2.650098e+01 -8.842658e+00 0.000000e+00
      vertex 2.650000e+01 -1.384266e+01 5.000000e+00
      vertex 2.650000e+01 -1.384266e+01 0.000000e+00
    endloop
  endfacet
  facet normal -1.952173e-04 -9.999999e-01 -0.000000e+00
    outer loop
      vertex 3.150097e+01 -8.843634e+00 5.000000e+00
      vertex 2.650098e+01 -8.842658e+00 5.000000e+00
      vertex 3.150097e+01 -8.843634e+00 0.000000e+00
    endloop
  endfacet
  facet normal -1.952173e-04 -9.999999e-01 0.000000e+00
    outer loop
      vertex 3.150097e+01 -8.843634e+00 0.000000e+00
      vertex 2.650098e+01 -8.842658e+00 5.000000e+00
      vertex 2.650098e+01 -8.842658e+00 0.000000e+00
    endloop
  endfacet
  facet normal -1.000000e+00 1.937865e-04 0.000000e+00
    outer loop
      vertex 3.150000e+01 -1.384364e+01 5.000000e+00
      vertex 3.150097e+01 -8.843634e+00 5.000000e+00
      vertex 3.150000e+01 -1.384364e+01 0.000000e+00
    endloop
  endfacet
  facet normal -1.000000e+00 1.937865e-04 0.000000e+00
    outer loop
      vertex 3.150000e+01 -1.384364e+01 0.000000e+00
      vertex 3.150097e+01 -8.843634e+00 5.000000e+00
      vertex 3.150097e+01 -8.843634e+00 0.000000e+00
    endloop
  endfacet
  facet normal -1.937155e-04 -9.999999e-01 -0.000000e+00
    outer loop
      vertex 3.550000e+01 -1.384441e+01 5.000000e+00
      vertex 3.150000e+01 -1.384364e+01 5.000000e+00
      vertex 3.550000e+01 -1.384441e+01 0.000000e+00
    endloop
  endfacet
  facet normal -1.937155e-04 -9.999999e-01 0.000000e+00
    outer loop
      vertex 3.550000e+01 -1.384441e+01 0.000000e+00
      vertex 3.150000e+01 -1.384364e+01 5.000000e+00
      vertex 3.150000e+01 -1.384364e+01 0.000000e+00
    endloop
  endfacet
  facet normal -8.715460e-02 9.961948e-01 0.000000e+00
    outer loop
      vertex -2.847021e+01 -5.565681e+00 5.000000e+00
      vertex -2.874805e+01 -5.589988e+00 0.000000e+00
      vertex -2.874805e+01 -5.589988e+00 5.000000e+00
    endloop
  endfacet
  facet normal 8.715460e-02 9.961948e-01 0.000000e+00
    outer loop
      vertex -2.874805e+01 -5.589988e+00 5.000000e+00
      vertex -2.874805e+01 -5.589988e+00 0.000000e+00
      vertex -2.902589e+01 -5.565681e+00 0.000000e+00
    endloop
  endfacet
  facet normal 8.715460e-02 9.961948e-01 0.000000e+00
    outer loop
      vertex -2.874805e+01 -5.589988e+00 5.000000e+00
      vertex -2.902589e+01 -5.565681e+00 0.000000e+00
      vertex -2.902589e+01 -5.565681e+00 5.000000e+00
    endloop
  endfacet
  facet normal 2.588200e-01 9.659256e-01 0.000000e+00
    outer loop
      vertex -2.902589e+01 -5.565681e+00 5.000000e+00
      vertex -2.902589e+01 -5.565681e+00 0.000000e+00
      vertex -2.929528e+01 -5.493496e+00 0.000000e+00
    endloop
  endfacet
  facet normal 2.588200e-01 9.659256e-01 0.000000e+00
    outer loop
      vertex -2.902589e+01 -5.565681e+00 5.000000e+00
      vertex -2.929528e+01 -5.493496e+00 0.000000e+00
      vertex -2.929528e+01 -5.493496e+00 5.000000e+00
    endloop
  endfacet
  facet normal 4.226218e-01 9.063061e-01 0.000000e+00
    outer loop
      vertex -2.929528e+01 -5.493496e+00 5.000000e+00
      vertex -2.929528e+01 -5.493496e+00 0.000000e+00
      vertex -2.954805e+01 -5.375628e+00 0.000000e+00
    endloop
  endfacet
  facet normal 4.226218e-01 9.063061e-01 0.000000e+00
    outer loop
      vertex -2.929528e+01 -5.493496e+00 5.000000e+00
      vertex -2.954805e+01 -5.375628e+00 0.000000e+00
      vertex -2.954805e+01 -5.375628e+00 5.000000e+00
    endloop
  endfacet
  facet normal 5.735711e-01 8.191558e-01 0.000000e+00
    outer loop
      vertex -2.954805e+01 -5.375628e+00 5.000000e+00
      vertex -2.954805e+01 -5.375628e+00 0.000000e+00
      vertex -2.977651e+01 -5.215660e+00 0.000000e+00
    endloop
  endfacet
  facet normal 5.735711e-01 8.191558e-01 0.000000e+00
    outer loop
      vertex -2.954805e+01 -5.375628e+00 5.000000e+00
      vertex -2.977651e+01 -5.215660e+00 0.000000e+00
      vertex -2.977651e+01 -5.215660e+00 5.000000e+00
    endloop
  endfacet
  facet normal 7.071102e-01 7.071034e-01 0.000000e+00
    outer loop
      vertex -2.977651e+01 -5.215660e+00 5.000000e+00
      vertex -2.977651e+01 -5.215660e+00 0.000000e+00
      vertex -2.997372e+01 -5.018447e+00 0.000000e+00
    endloop
  endfacet
  facet normal 7.071102e-01 7.071034e-01 0.000000e+00
    outer loop
      vertex -2.977651e+01 -5.215660e+00 5.000000e+00
      vertex -2.997372e+01 -5.018447e+00 0.000000e+00
      vertex -2.997372e+01 -5.018447e+00 5.000000e+00
    endloop
  endfacet
  facet normal 8.191537e-01 5.735741e-01 0.000000e+00
    outer loop
      vertex -2.997372e+01 -5.018447e+00 5.000000e+00
      vertex -2.997372e+01 -5.018447e+00 0.000000e+00
      vertex -3.013369e+01 -4.789986e+00 0.000000e+00
    endloop
  endfacet
  facet normal 8.191537e-01 5.735741e-01 0.000000e+00
    outer loop
      vertex -2.997372e+01 -5.018447e+00 5.000000e+00
      vertex -3.013369e+01 -4.789986e+00 0.000000e+00
      vertex -3.013369e+01 -4.789986e+00 5.000000e+00
    endloop
  endfacet
  facet normal 9.063070e-01 4.226198e-01 0.000000e+00
    outer loop
      vertex -3.013369e+01 -4.789986e+00 5.000000e+00
      vertex -3.013369e+01 -4.789986e+00 0.000000e+00
      vertex -3.025156e+01 -4.537217e+00 0.000000e+00
    endloop
  endfacet
  facet normal 9.063070e-01 4.226198e-01 0.000000e+00
    outer loop
      vertex -3.013369e+01 -4.789986e+00 5.000000e+00
      vertex -3.025156e+01 -4.537217e+00 0.000000e+00
      vertex -3.025156e+01 -4.537217e+00 5.000000e+00
    endloop
  endfacet
  facet normal 9.659269e-01 2.588149e-01 0.000000e+00
    outer loop
      vertex -3.025156e+01 -4.537217e+00 5.000000e+00
      vertex -3.025156e+01 -4.537217e+00 0.000000e+00
      vertex -3.032374e+01 -4.267823e+00 0.000000e+00
    endloop
  endfacet
  facet normal 9.659269e-01 2.588149e-01 0.000000e+00
    outer loop
      vertex -3.025156e+01 -4.537217e+00 5.000000e+00
      vertex -3.032374e+01 -4.267823e+00 0.000000e+00
      vertex -3.032374e+01 -4.267823e+00 5.000000e+00
    endloop
  endfacet
  facet normal 9.961946e-01 8.715660e-02 0.000000e+00
    outer loop
      vertex -3.032374e+01 -4.267823e+00 5.000000e+00
      vertex -3.032374e+01 -4.267823e+00 0.000000e+00
      vertex -3.034805e+01 -3.989987e+00 0.000000e+00
    endloop
  endfacet
  facet normal 9.961946e-01 8.715660e-02 0.000000e+00
    outer loop
      vertex -3.032374e+01 -4.267823e+00 5.000000e+00
      vertex -3.034805e+01 -3.989987e+00 0.000000e+00
      vertex -3.034805e+01 -3.989987e+00 5.000000e+00
    endloop
  endfacet
  facet normal 9.961946e-01 -8.715660e-02 0.000000e+00
    outer loop
      vertex -3.034805e+01 -3.989987e+00 5.000000e+00
      vertex -3.034805e+01 -3.989987e+00 0.000000e+00
      vertex -3.032374e+01 -3.712152e+00 0.000000e+00
    endloop
  endfacet
  facet normal 9.961946e-01 -8.715660e-02 0.000000e+00
    outer loop
      vertex -3.034805e+01 -3.989987e+00 5.000000e+00
      vertex -3.032374e+01 -3.712152e+00 0.000000e+00
      vertex -3.032374e+01 -3.712152e+00 5.000000e+00
    endloop
  endfacet
  facet normal 9.659281e-01 -2.588106e-01 0.000000e+00
    outer loop
      vertex -3.032374e+01 -3.712152e+00 5.000000e+00
      vertex -3.032374e+01 -3.712152e+00 0.000000e+00
      vertex -3.025156e+01 -3.442753e+00 0.000000e+00
    endloop
  endfacet
  facet normal 9.659281e-01 -2.588106e-01 0.000000e+00
    outer loop
      vertex -3.032374e+01 -3.712152e+00 5.000000e+00
      vertex -3.025156e+01 -3.442753e+00 0.000000e+00
      vertex -3.025156e+01 -3.442753e+00 5.000000e+00
    endloop
  endfacet
  facet normal 9.063046e-01 -4.226250e-01 0.000000e+00
    outer loop
      vertex -3.025156e+01 -3.442753e+00 5.000000e+00
      vertex -3.025156e+01 -3.442753e+00 0.000000e+00
      vertex -3.013369e+01 -3.189988e+00 0.000000e+00
    endloop
  endfacet
  facet normal 9.063046e-01 -4.226250e-01 0.000000e+00
    outer loop
      vertex -3.025156e+01 -3.442753e+00 5.000000e+00
      vertex -3.013369e+01 -3.189988e+00 0.000000e+00
      vertex -3.013369e+01 -3.189988e+00 5.000000e+00
    endloop
  endfacet
  facet normal 8.191525e-01 -5.735757e-01 0.000000e+00
    outer loop
      vertex -3.013369e+01 -3.189988e+00 5.000000e+00
      vertex -3.013369e+01 -3.189988e+00 0.000000e+00
      vertex -2.997372e+01 -2.961528e+00 0.000000e+00
    endloop
  endfacet
  facet normal 8.191525e-01 -5.735757e-01 0.000000e+00
    outer loop
      vertex -3.013369e+01 -3.189988e+00 5.000000e+00
      vertex -2.997372e+01 -2.961528e+00 0.000000e+00
      vertex -2.997372e+01 -2.961528e+00 5.000000e+00
    endloop
  endfacet
  facet normal 7.071102e-01 -7.071034e-01 0.000000e+00
    outer loop
      vertex -2.997372e+01 -2.961528e+00 5.000000e+00
      vertex -2.997372e+01 -2.961528e+00 0.000000e+00
      vertex -2.977651e+01 -2.764315e+00 0.000000e+00
    endloop
  endfacet
  facet normal 7.071102e-01 -7.071034e-01 0.000000e+00
    outer loop
      vertex -2.997372e+01 -2.961528e+00 5.000000e+00
      vertex -2.977651e+01 -2.764315e+00 0.000000e+00
      vertex -2.977651e+01 -2.764315e+00 5.000000e+00
    endloop
  endfacet
  facet normal 5.735711e-01 -8.191558e-01 0.000000e+00
    outer loop
      vertex -2.977651e+01 -2.764315e+00 5.000000e+00
      vertex -2.977651e+01 -2.764315e+00 0.000000e+00
      vertex -2.954805e+01 -2.604347e+00 0.000000e+00
    endloop
  endfacet
  facet normal 5.735711e-01 -8.191558e-01 0.000000e+00
    outer loop
      vertex -2.977651e+01 -2.764315e+00 5.000000e+00
      vertex -2.954805e+01 -2.604347e+00 0.000000e+00
      vertex -2.954805e+01 -2.604347e+00 5.000000e+00
    endloop
  endfacet
  facet normal 4.226218e-01 -9.063061e-01 0.000000e+00
    outer loop
      vertex -2.954805e+01 -2.604347e+00 5.000000e+00
      vertex -2.954805e+01 -2.604347e+00 0.000000e+00
      vertex -2.929528e+01 -2.486479e+00 0.000000e+00
    endloop
  endfacet
  facet normal 4.226218e-01 -9.063061e-01 0.000000e+00
    outer loop
      vertex -2.954805e+01 -2.604347e+00 5.000000e+00
      vertex -2.929528e+01 -2.486479e+00 0.000000e+00
      vertex -2.929528e+01 -2.486479e+00 5.000000e+00
    endloop
  endfacet
  facet normal 2.588232e-01 -9.659247e-01 0.000000e+00
    outer loop
      vertex -2.929528e+01 -2.486479e+00 5.000000e+00
      vertex -2.929528e+01 -2.486479e+00 0.000000e+00
      vertex -2.902589e+01 -2.414293e+00 0.000000e+00
    endloop
  endfacet
  facet normal 2.588232e-01 -9.659247e-01 0.000000e+00
    outer loop
      vertex -2.929528e+01 -2.486479e+00 5.000000e+00
      vertex -2.902589e+01 -2.414293e+00 0.000000e+00
      vertex -2.902589e+01 -2.414293e+00 5.000000e+00
    endloop
  endfacet
  facet normal 8.715460e-02 -9.961948e-01 0.000000e+00
    outer loop
      vertex -2.902589e+01 -2.414293e+00 5.000000e+00
      vertex -2.902589e+01 -2.414293e+00 0.000000e+00
      vertex -2.874805e+01 -2.389986e+00 0.000000e+00
    endloop
  endfacet
  facet normal 8.715460e-02 -9.961948e-01 0.000000e+00
    outer loop
      vertex -2.902589e+01 -2.414293e+00 5.000000e+00
      vertex -2.874805e+01 -2.389986e+00 0.000000e+00
      vertex -2.874805e+01 -2.389986e+00 5.000000e+00
    endloop
  endfacet
  facet normal -8.715460e-02 -9.961948e-01 -0.000000e+00
    outer loop
      vertex -2.874805e+01 -2.389986e+00 5.000000e+00
      vertex -2.874805e+01 -2.389986e+00 0.000000e+00
      vertex -2.847021e+01 -2.414293e+00 0.000000e+00
    endloop
  endfacet
  facet normal -8.715460e-02 -9.961948e-01 0.000000e+00
    outer loop
      vertex -2.874805e+01 -2.389986e+00 5.000000e+00
      vertex -2.847021e+01 -2.414293e+00 0.000000e+00
      vertex -2.847021e+01 -2.414293e+00 5.000000e+00
    endloop
  endfacet
  facet normal -2.588232e-01 -9.659247e-01 -0.000000e+00
    outer loop
      vertex -2.847021e+01 -2.414293e+00 5.000000e+00
      vertex -2.847021e+01 -2.414293e+00 0.000000e+00
      vertex -2.820082e+01 -2.486479e+00 0.000000e+00
    endloop
  endfacet
  facet normal -2.588232e-01 -9.659247e-01 0.000000e+00
    outer loop
      vertex -2.847021e+01 -2.414293e+00 5.000000e+00
      vertex -2.820082e+01 -2.486479e+00 0.000000e+00
      vertex -2.820082e+01 -2.486479e+00 5.000000e+00
    endloop
  endfacet
  facet normal -4.226198e-01 -9.063070e-01 -0.000000e+00
    outer loop
      vertex -2.820082e+01 -2.486479e+00 5.000000e+00
      vertex -2.820082e+01 -2.486479e+00 0.000000e+00
      vertex -2.794805e+01 -2.604347e+00 0.000000e+00
    endloop
  endfacet
  facet normal -4.226198e-01 -9.063070e-01 0.000000e+00
    outer loop
      vertex -2.820082e+01 -2.486479e+00 5.000000e+00
      vertex -2.794805e+01 -2.604347e+00 0.000000e+00
      vertex -2.794805e+01 -2.604347e+00 5.000000e+00
    endloop
  endfacet
  facet normal -5.735719e-01 -8.191552e-01 -0.000000e+00
    outer loop
      vertex -2.794805e+01 -2.604347e+00 5.000000e+00
      vertex -2.794805e+01 -2.604347e+00 0.000000e+00
      vertex -2.771959e+01 -2.764315e+00 0.000000e+00
    endloop
  endfacet
  facet normal -5.735719e-01 -8.191552e-01 0.000000e+00
    outer loop
      vertex -2.794805e+01 -2.604347e+00 5.000000e+00
      vertex -2.771959e+01 -2.764315e+00 0.000000e+00
      vertex -2.771959e+01 -2.764315e+00 5.000000e+00
    endloop
  endfacet
  facet normal -7.071119e-01 -7.071016e-01 -0.000000e+00
    outer loop
      vertex -2.771959e+01 -2.764315e+00 5.000000e+00
      vertex -2.771959e+01 -2.764315e+00 0.000000e+00
      vertex -2.752238e+01 -2.961528e+00 0.000000e+00
    endloop
  endfacet
  facet normal -7.071119e-01 -7.071016e-01 0.000000e+00
    outer loop
      vertex -2.771959e+01 -2.764315e+00 5.000000e+00
      vertex -2.752238e+01 -2.961528e+00 0.000000e+00
      vertex -2.752238e+01 -2.961528e+00 5.000000e+00
    endloop
  endfacet
  facet normal -8.191518e-01 -5.735769e-01 -0.000000e+00
    outer loop
      vertex -2.752238e+01 -2.961528e+00 5.000000e+00
      vertex -2.752238e+01 -2.961528e+00 0.000000e+00
      vertex -2.736241e+01 -3.189988e+00 0.000000e+00
    endloop
  endfacet
  facet normal -8.191518e-01 -5.735769e-01 0.000000e+00
    outer loop
      vertex -2.752238e+01 -2.961528e+00 5.000000e+00
      vertex -2.736241e+01 -3.189988e+00 0.000000e+00
      vertex -2.736241e+01 -3.189988e+00 5.000000e+00
    endloop
  endfacet
  facet normal -9.063046e-01 -4.226250e-01 -0.000000e+00
    outer loop
      vertex -2.736241e+01 -3.189988e+00 5.000000e+00
      vertex -2.736241e+01 -3.189988e+00 0.000000e+00
      vertex -2.724454e+01 -3.442753e+00 0.000000e+00
    endloop
  endfacet
  facet normal -9.063046e-01 -4.226250e-01 0.000000e+00
    outer loop
      vertex -2.736241e+01 -3.189988e+00 5.000000e+00
      vertex -2.724454e+01 -3.442753e+00 0.000000e+00
      vertex -2.724454e+01 -3.442753e+00 5.000000e+00
    endloop
  endfacet
  facet normal -9.659272e-01 -2.588139e-01 -0.000000e+00
    outer loop
      vertex -2.724454e+01 -3.442753e+00 5.000000e+00
      vertex -2.724454e+01 -3.442753e+00 0.000000e+00
      vertex -2.717236e+01 -3.712152e+00 0.000000e+00
    endloop
  endfacet
  facet normal -9.659272e-01 -2.588139e-01 0.000000e+00
    outer loop
      vertex -2.724454e+01 -3.442753e+00 5.000000e+00
      vertex -2.717236e+01 -3.712152e+00 0.000000e+00
      vertex -2.717236e+01 -3.712152e+00 5.000000e+00
    endloop
  endfacet
  facet normal -9.961948e-01 -8.715490e-02 -0.000000e+00
    outer loop
      vertex -2.717236e+01 -3.712152e+00 5.000000e+00
      vertex -2.717236e+01 -3.712152e+00 0.000000e+00
      vertex -2.714805e+01 -3.989987e+00 0.000000e+00
    endloop
  endfacet
  facet normal -9.961948e-01 -8.715490e-02 0.000000e+00
    outer loop
      vertex -2.717236e+01 -3.712152e+00 5.000000e+00
      vertex -2.714805e+01 -3.989987e+00 0.000000e+00
      vertex -2.714805e+01 -3.989987e+00 5.000000e+00
    endloop
  endfacet
  facet normal -9.961948e-01 8.715490e-02 0.000000e+00
    outer loop
      vertex -2.714805e+01 -3.989987e+00 5.000000e+00
      vertex -2.714805e+01 -3.989987e+00 0.000000e+00
      vertex -2.717236e+01 -4.267823e+00 0.000000e+00
    endloop
  endfacet
  facet normal -9.961948e-01 8.715490e-02 0.000000e+00
    outer loop
      vertex -2.714805e+01 -3.989987e+00 5.000000e+00
      vertex -2.717236e+01 -4.267823e+00 0.000000e+00
      vertex -2.717236e+01 -4.267823e+00 5.000000e+00
    endloop
  endfacet
  facet normal -9.659261e-01 2.588181e-01 0.000000e+00
    outer loop
      vertex -2.717236e+01 -4.267823e+00 5.000000e+00
      vertex -2.717236e+01 -4.267823e+00 0.000000e+00
      vertex -2.724454e+01 -4.537217e+00 0.000000e+00
    endloop
  endfacet
  facet normal -9.659261e-01 2.588181e-01 0.000000e+00
    outer loop
      vertex -2.717236e+01 -4.267823e+00 5.000000e+00
      vertex -2.724454e+01 -4.537217e+00 0.000000e+00
      vertex -2.724454e+01 -4.537217e+00 5.000000e+00
    endloop
  endfacet
  facet normal -9.063070e-01 4.226198e-01 0.000000e+00
    outer loop
      vertex -2.724454e+01 -4.537217e+00 5.000000e+00
      vertex -2.724454e+01 -4.537217e+00 0.000000e+00
      vertex -2.736241e+01 -4.789986e+00 0.000000e+00
    endloop
  endfacet
  facet normal -9.063070e-01 4.226198e-01 0.000000e+00
    outer loop
      vertex -2.724454e+01 -4.537217e+00 5.000000e+00
      vertex -2.736241e+01 -4.789986e+00 0.000000e+00
      vertex -2.736241e+01 -4.789986e+00 5.000000e+00
    endloop
  endfacet
  facet normal -8.191529e-01 5.735753e-01 0.000000e+00
    outer loop
      vertex -2.736241e+01 -4.789986e+00 5.000000e+00
      vertex -2.736241e+01 -4.789986e+00 0.000000e+00
      vertex -2.752238e+01 -5.018447e+00 0.000000e+00
    endloop
  endfacet
  facet normal -8.191529e-01 5.735753e-01 0.000000e+00
    outer loop
      vertex -2.736241e+01 -4.789986e+00 5.000000e+00
      vertex -2.752238e+01 -5.018447e+00 0.000000e+00
      vertex -2.752238e+01 -5.018447e+00 5.000000e+00
    endloop
  endfacet
  facet normal -7.071119e-01 7.071016e-01 0.000000e+00
    outer loop
      vertex -2.752238e+01 -5.018447e+00 5.000000e+00
      vertex -2.752238e+01 -5.018447e+00 0.000000e+00
      vertex -2.771959e+01 -5.215660e+00 0.000000e+00
    endloop
  endfacet
  facet normal -7.071119e-01 7.071016e-01 0.000000e+00
    outer loop
      vertex -2.752238e+01 -5.018447e+00 5.000000e+00
      vertex -2.771959e+01 -5.215660e+00 0.000000e+00
      vertex -2.771959e+01 -5.215660e+00 5.000000e+00
    endloop
  endfacet
  facet normal -5.735719e-01 8.191552e-01 0.000000e+00
    outer loop
      vertex -2.771959e+01 -5.215660e+00 5.000000e+00
      vertex -2.771959e+01 -5.215660e+00 0.000000e+00
      vertex -2.794805e+01 -5.375628e+00 0.000000e+00
    endloop
  endfacet
  facet normal -5.735719e-01 8.191552e-01 0.000000e+00
    outer loop
      vertex -2.771959e+01 -5.215660e+00 5.000000e+00
      vertex -2.794805e+01 -5.375628e+00 0.000000e+00
      vertex -2.794805e+01 -5.375628e+00 5.000000e+00
    endloop
  endfacet
  facet normal -4.226198e-01 9.063070e-01 0.000000e+00
    outer loop
      vertex -2.794805e+01 -5.375628e+00 5.000000e+00
      vertex -2.794805e+01 -5.375628e+00 0.000000e+00
      vertex -2.820082e+01 -5.493496e+00 0.000000e+00
    endloop
  endfacet
  facet normal -4.226198e-01 9.063070e-01 0.000000e+00
    outer loop
      vertex -2.794805e+01 -5.375628e+00 5.000000e+00
      vertex -2.820082e+01 -5.493496e+00 0.000000e+00
      vertex -2.820082e+01 -5.493496e+00 5.000000e+00
    endloop
  endfacet
  facet normal -2.588200e-01 9.659256e-01 0.000000e+00
    outer loop
      vertex -2.820082e+01 -5.493496e+00 5.000000e+00
      vertex -2.820082e+01 -5.493496e+00 0.000000e+00
      vertex -2.847021e+01 -5.565681e+00 0.000000e+00
    endloop
  endfacet
  facet normal -2.588200e-01 9.659256e-01 0.000000e+00
    outer loop
      vertex -2.820082e+01 -5.493496e+00 5.000000e+00
      vertex -2.847021e+01 -5.565681e+00 0.000000e+00
      vertex -2.847021e+01 -5.565681e+00 5.000000e+00
    endloop
  endfacet
  facet normal -8.715460e-02 9.961948e-01 0.000000e+00
    outer loop
      vertex -2.847021e+01 -5.565681e+00 5.000000e+00
      vertex -2.847021e+01 -5.565681e+00 0.000000e+00
      vertex -2.874805e+01 -5.589988e+00 0.000000e+00
    endloop
  endfacet
  facet normal -8.715372e-02 9.961949e-01 0.000000e+00
    outer loop
      vertex 2.952979e+01 -5.576972e+00 5.000000e+00
      vertex 2.925195e+01 -5.601279e+00 0.000000e+00
      vertex 2.925195e+01 -5.601279e+00 5.000000e+00
    endloop
  endfacet
  facet normal 8.715372e-02 9.961949e-01 0.000000e+00
    outer loop
      vertex 2.925195e+01 -5.601279e+00 5.000000e+00
      vertex 2.925195e+01 -5.601279e+00 0.000000e+00
      vertex 2.897411e+01 -5.576972e+00 0.000000e+00
    endloop
  endfacet
  facet normal 8.715372e-02 9.961949e-01 0.000000e+00
    outer loop
      vertex 2.925195e+01 -5.601279e+00 5.000000e+00
      vertex 2.897411e+01 -5.576972e+00 0.000000e+00
      vertex 2.897411e+01 -5.576972e+00 5.000000e+00
    endloop
  endfacet
  facet normal 2.588117e-01 9.659278e-01 0.000000e+00
    outer loop
      vertex 2.897411e+01 -5.576972e+00 5.000000e+00
      vertex 2.897411e+01 -5.576972e+00 0.000000e+00
      vertex 2.870472e+01 -5.504790e+00 0.000000e+00
    endloop
  endfacet
  facet normal 2.588117e-01 9.659278e-01 0.000000e+00
    outer loop
      vertex 2.897411e+01 -5.576972e+00 5.000000e+00
      vertex 2.870472e+01 -5.504790e+00 0.000000e+00
      vertex 2.870472e+01 -5.504790e+00 5.000000e+00
    endloop
  endfacet
  facet normal 4.226210e-01 9.063066e-01 0.000000e+00
    outer loop
      vertex 2.870472e+01 -5.504790e+00 5.000000e+00
      vertex 2.870472e+01 -5.504790e+00 0.000000e+00
      vertex 2.845195e+01 -5.386923e+00 0.000000e+00
    endloop
  endfacet
  facet normal 4.226210e-01 9.063066e-01 0.000000e+00
    outer loop
      vertex 2.870472e+01 -5.504790e+00 5.000000e+00
      vertex 2.845195e+01 -5.386923e+00 0.000000e+00
      vertex 2.845195e+01 -5.386923e+00 5.000000e+00
    endloop
  endfacet
  facet normal 5.735835e-01 8.191471e-01 0.000000e+00
    outer loop
      vertex 2.845195e+01 -5.386923e+00 5.000000e+00
      vertex 2.845195e+01 -5.386923e+00 0.000000e+00
      vertex 2.822349e+01 -5.226952e+00 0.000000e+00
    endloop
  endfacet
  facet normal 5.735835e-01 8.191471e-01 0.000000e+00
    outer loop
      vertex 2.845195e+01 -5.386923e+00 5.000000e+00
      vertex 2.822349e+01 -5.226952e+00 0.000000e+00
      vertex 2.822349e+01 -5.226952e+00 5.000000e+00
    endloop
  endfacet
  facet normal 7.070965e-01 7.071171e-01 0.000000e+00
    outer loop
      vertex 2.822349e+01 -5.226952e+00 5.000000e+00
      vertex 2.822349e+01 -5.226952e+00 0.000000e+00
      vertex 2.802628e+01 -5.029741e+00 0.000000e+00
    endloop
  endfacet
  facet normal 7.070965e-01 7.071171e-01 0.000000e+00
    outer loop
      vertex 2.822349e+01 -5.226952e+00 5.000000e+00
      vertex 2.802628e+01 -5.029741e+00 0.000000e+00
      vertex 2.802628e+01 -5.029741e+00 5.000000e+00
    endloop
  endfacet
  facet normal 8.191655e-01 5.735574e-01 0.000000e+00
    outer loop
      vertex 2.802628e+01 -5.029741e+00 5.000000e+00
      vertex 2.802628e+01 -5.029741e+00 0.000000e+00
      vertex 2.786631e+01 -4.801281e+00 0.000000e+00
    endloop
  endfacet
  facet normal 8.191655e-01 5.735574e-01 0.000000e+00
    outer loop
      vertex 2.802628e+01 -5.029741e+00 5.000000e+00
      vertex 2.786631e+01 -4.801281e+00 0.000000e+00
      vertex 2.786631e+01 -4.801281e+00 5.000000e+00
    endloop
  endfacet
  facet normal 9.063044e-01 4.226254e-01 0.000000e+00
    outer loop
      vertex 2.786631e+01 -4.801281e+00 5.000000e+00
      vertex 2.786631e+01 -4.801281e+00 0.000000e+00
      vertex 2.774844e+01 -4.548512e+00 0.000000e+00
    endloop
  endfacet
  facet normal 9.063044e-01 4.226254e-01 0.000000e+00
    outer loop
      vertex 2.786631e+01 -4.801281e+00 5.000000e+00
      vertex 2.774844e+01 -4.548512e+00 0.000000e+00
      vertex 2.774844e+01 -4.548512e+00 5.000000e+00
    endloop
  endfacet
  facet normal 9.659212e-01 2.588364e-01 0.000000e+00
    outer loop
      vertex 2.774844e+01 -4.548512e+00 5.000000e+00
      vertex 2.774844e+01 -4.548512e+00 0.000000e+00
      vertex 2.767625e+01 -4.279118e+00 0.000000e+00
    endloop
  endfacet
  facet normal 9.659212e-01 2.588364e-01 0.000000e+00
    outer loop
      vertex 2.774844e+01 -4.548512e+00 5.000000e+00
      vertex 2.767625e+01 -4.279118e+00 0.000000e+00
      vertex 2.767625e+01 -4.279118e+00 5.000000e+00
    endloop
  endfacet
  facet normal 9.961936e-01 8.716848e-02 0.000000e+00
    outer loop
      vertex 2.767625e+01 -4.279118e+00 5.000000e+00
      vertex 2.767625e+01 -4.279118e+00 0.000000e+00
      vertex 2.765194e+01 -4.001282e+00 0.000000e+00
    endloop
  endfacet
  facet normal 9.961936e-01 8.716848e-02 0.000000e+00
    outer loop
      vertex 2.767625e+01 -4.279118e+00 5.000000e+00
      vertex 2.765194e+01 -4.001282e+00 0.000000e+00
      vertex 2.765194e+01 -4.001282e+00 5.000000e+00
    endloop
  endfacet
  facet normal 9.961936e-01 -8.716758e-02 0.000000e+00
    outer loop
      vertex 2.765194e+01 -4.001282e+00 5.000000e+00
      vertex 2.765194e+01 -4.001282e+00 0.000000e+00
      vertex 2.767625e+01 -3.723443e+00 0.000000e+00
    endloop
  endfacet
  facet normal 9.961936e-01 -8.716758e-02 0.000000e+00
    outer loop
      vertex 2.765194e+01 -4.001282e+00 5.000000e+00
      vertex 2.767625e+01 -3.723443e+00 0.000000e+00
      vertex 2.767625e+01 -3.723443e+00 5.000000e+00
    endloop
  endfacet
  facet normal 9.659212e-01 -2.588364e-01 0.000000e+00
    outer loop
      vertex 2.767625e+01 -3.723443e+00 5.000000e+00
      vertex 2.767625e+01 -3.723443e+00 0.000000e+00
      vertex 2.774844e+01 -3.454048e+00 0.000000e+00
    endloop
  endfacet
  facet normal 9.659212e-01 -2.588364e-01 0.000000e+00
    outer loop
      vertex 2.767625e+01 -3.723443e+00 5.000000e+00
      vertex 2.774844e+01 -3.454048e+00 0.000000e+00
      vertex 2.774844e+01 -3.454048e+00 5.000000e+00
    endloop
  endfacet
  facet normal 9.063044e-01 -4.226254e-01 0.000000e+00
    outer loop
      vertex 2.774844e+01 -3.454048e+00 5.000000e+00
      vertex 2.774844e+01 -3.454048e+00 0.000000e+00
      vertex 2.786631e+01 -3.201280e+00 0.000000e+00
    endloop
  endfacet
  facet normal 9.063044e-01 -4.226254e-01 0.000000e+00
    outer loop
      vertex 2.774844e+01 -3.454048e+00 5.000000e+00
      vertex 2.786631e+01 -3.201280e+00 0.000000e+00
      vertex 2.786631e+01 -3.201280e+00 5.000000e+00
    endloop
  endfacet
  facet normal 8.191620e-01 -5.735621e-01 0.000000e+00
    outer loop
      vertex 2.786631e+01 -3.201280e+00 5.000000e+00
      vertex 2.786631e+01 -3.201280e+00 0.000000e+00
      vertex 2.802628e+01 -2.972822e+00 0.000000e+00
    endloop
  endfacet
  facet normal 8.191620e-01 -5.735621e-01 0.000000e+00
    outer loop
      vertex 2.786631e+01 -3.201280e+00 5.000000e+00
      vertex 2.802628e+01 -2.972822e+00 0.000000e+00
      vertex 2.802628e+01 -2.972822e+00 5.000000e+00
    endloop
  endfacet
  facet normal 7.071000e-01 -7.071136e-01 0.000000e+00
    outer loop
      vertex 2.802628e+01 -2.972822e+00 5.000000e+00
      vertex 2.802628e+01 -2.972822e+00 0.000000e+00
      vertex 2.822349e+01 -2.775610e+00 0.000000e+00
    endloop
  endfacet
  facet normal 7.071000e-01 -7.071136e-01 0.000000e+00
    outer loop
      vertex 2.802628e+01 -2.972822e+00 5.000000e+00
      vertex 2.822349e+01 -2.775610e+00 0.000000e+00
      vertex 2.822349e+01 -2.775610e+00 5.000000e+00
    endloop
  endfacet
  facet normal 5.735766e-01 -8.191519e-01 0.000000e+00
    outer loop
      vertex 2.822349e+01 -2.775610e+00 5.000000e+00
      vertex 2.822349e+01 -2.775610e+00 0.000000e+00
      vertex 2.845195e+01 -2.615642e+00 0.000000e+00
    endloop
  endfacet
  facet normal 5.735766e-01 -8.191519e-01 0.000000e+00
    outer loop
      vertex 2.822349e+01 -2.775610e+00 5.000000e+00
      vertex 2.845195e+01 -2.615642e+00 0.000000e+00
      vertex 2.845195e+01 -2.615642e+00 5.000000e+00
    endloop
  endfacet
  facet normal 4.226210e-01 -9.063066e-01 0.000000e+00
    outer loop
      vertex 2.845195e+01 -2.615642e+00 5.000000e+00
      vertex 2.845195e+01 -2.615642e+00 0.000000e+00
      vertex 2.870472e+01 -2.497774e+00 0.000000e+00
    endloop
  endfacet
  facet normal 4.226210e-01 -9.063066e-01 0.000000e+00
    outer loop
      vertex 2.845195e+01 -2.615642e+00 5.000000e+00
      vertex 2.870472e+01 -2.497774e+00 0.000000e+00
      vertex 2.870472e+01 -2.497774e+00 5.000000e+00
    endloop
  endfacet
  facet normal 2.588245e-01 -9.659244e-01 0.000000e+00
    outer loop
      vertex 2.870472e+01 -2.497774e+00 5.000000e+00
      vertex 2.870472e+01 -2.497774e+00 0.000000e+00
      vertex 2.897411e+01 -2.425589e+00 0.000000e+00
    endloop
  endfacet
  facet normal 2.588245e-01 -9.659244e-01 0.000000e+00
    outer loop
      vertex 2.870472e+01 -2.497774e+00 5.000000e+00
      vertex 2.897411e+01 -2.425589e+00 0.000000e+00
      vertex 2.897411e+01 -2.425589e+00 5.000000e+00
    endloop
  endfacet
  facet normal 8.715372e-02 -9.961949e-01 0.000000e+00
    outer loop
      vertex 2.897411e+01 -2.425589e+00 5.000000e+00
      vertex 2.897411e+01 -2.425589e+00 0.000000e+00
      vertex 2.925195e+01 -2.401281e+00 0.000000e+00
    endloop
  endfacet
  facet normal 8.715372e-02 -9.961949e-01 0.000000e+00
    outer loop
      vertex 2.897411e+01 -2.425589e+00 5.000000e+00
      vertex 2.925195e+01 -2.401281e+00 0.000000e+00
      vertex 2.925195e+01 -2.401281e+00 5.000000e+00
    endloop
  endfacet
  facet normal -8.715372e-02 -9.961949e-01 -0.000000e+00
    outer loop
      vertex 2.925195e+01 -2.401281e+00 5.000000e+00
      vertex 2.925195e+01 -2.401281e+00 0.000000e+00
      vertex 2.952979e+01 -2.425589e+00 0.000000e+00
    endloop
  endfacet
  facet normal -8.715372e-02 -9.961949e-01 0.000000e+00
    outer loop
      vertex 2.925195e+01 -2.401281e+00 5.000000e+00
      vertex 2.952979e+01 -2.425589e+00 0.000000e+00
      vertex 2.952979e+01 -2.425589e+00 5.000000e+00
    endloop
  endfacet
  facet normal -2.588176e-01 -9.659262e-01 -0.000000e+00
    outer loop
      vertex 2.952979e+01 -2.425589e+00 5.000000e+00
      vertex 2.952979e+01 -2.425589e+00 0.000000e+00
      vertex 2.979919e+01 -2.497774e+00 0.000000e+00
    endloop
  endfacet
  facet normal -2.588176e-01 -9.659262e-01 0.000000e+00
    outer loop
      vertex 2.952979e+01 -2.425589e+00 5.000000e+00
      vertex 2.979919e+01 -2.497774e+00 0.000000e+00
      vertex 2.979919e+01 -2.497774e+00 5.000000e+00
    endloop
  endfacet
  facet normal -4.226262e-01 -9.063041e-01 -0.000000e+00
    outer loop
      vertex 2.979919e+01 -2.497774e+00 5.000000e+00
      vertex 2.979919e+01 -2.497774e+00 0.000000e+00
      vertex 3.005195e+01 -2.615642e+00 0.000000e+00
    endloop
  endfacet
  facet normal -4.226262e-01 -9.063041e-01 0.000000e+00
    outer loop
      vertex 2.979919e+01 -2.497774e+00 5.000000e+00
      vertex 3.005195e+01 -2.615642e+00 0.000000e+00
      vertex 3.005195e+01 -2.615642e+00 5.000000e+00
    endloop
  endfacet
  facet normal -5.735831e-01 -8.191475e-01 -0.000000e+00
    outer loop
      vertex 3.005195e+01 -2.615642e+00 5.000000e+00
      vertex 3.005195e+01 -2.615642e+00 0.000000e+00
      vertex 3.028041e+01 -2.775610e+00 0.000000e+00
    endloop
  endfacet
  facet normal -5.735831e-01 -8.191475e-01 0.000000e+00
    outer loop
      vertex 3.005195e+01 -2.615642e+00 5.000000e+00
      vertex 3.028041e+01 -2.775610e+00 0.000000e+00
      vertex 3.028041e+01 -2.775610e+00 5.000000e+00
    endloop
  endfacet
  facet normal -7.071068e-01 -7.071068e-01 -0.000000e+00
    outer loop
      vertex 3.028041e+01 -2.775610e+00 5.000000e+00
      vertex 3.028041e+01 -2.775610e+00 0.000000e+00
      vertex 3.047762e+01 -2.972822e+00 0.000000e+00
    endloop
  endfacet
  facet normal -7.071068e-01 -7.071068e-01 0.000000e+00
    outer loop
      vertex 3.028041e+01 -2.775610e+00 5.000000e+00
      vertex 3.047762e+01 -2.972822e+00 0.000000e+00
      vertex 3.047762e+01 -2.972822e+00 5.000000e+00
    endloop
  endfacet
  facet normal -8.191556e-01 -5.735713e-01 -0.000000e+00
    outer loop
      vertex 3.047762e+01 -2.972822e+00 5.000000e+00
      vertex 3.047762e+01 -2.972822e+00 0.000000e+00
      vertex 3.063758e+01 -3.201280e+00 0.000000e+00
    endloop
  endfacet
  facet normal -8.191556e-01 -5.735713e-01 0.000000e+00
    outer loop
      vertex 3.047762e+01 -2.972822e+00 5.000000e+00
      vertex 3.063758e+01 -3.201280e+00 0.000000e+00
      vertex 3.063758e+01 -3.201280e+00 5.000000e+00
    endloop
  endfacet
  facet normal -9.063097e-01 -4.226142e-01 -0.000000e+00
    outer loop
      vertex 3.063758e+01 -3.201280e+00 5.000000e+00
      vertex 3.063758e+01 -3.201280e+00 0.000000e+00
      vertex 3.075545e+01 -3.454048e+00 0.000000e+00
    endloop
  endfacet
  facet normal -9.063097e-01 -4.226142e-01 0.000000e+00
    outer loop
      vertex 3.063758e+01 -3.201280e+00 5.000000e+00
      vertex 3.075545e+01 -3.454048e+00 0.000000e+00
      vertex 3.075545e+01 -3.454048e+00 5.000000e+00
    endloop
  endfacet
  facet normal -9.659212e-01 -2.588364e-01 -0.000000e+00
    outer loop
      vertex 3.075545e+01 -3.454048e+00 5.000000e+00
      vertex 3.075545e+01 -3.454048e+00 0.000000e+00
      vertex 3.082764e+01 -3.723443e+00 0.000000e+00
    endloop
  endfacet
  facet normal -9.659212e-01 -2.588364e-01 0.000000e+00
    outer loop
      vertex 3.075545e+01 -3.454048e+00 5.000000e+00
      vertex 3.082764e+01 -3.723443e+00 0.000000e+00
      vertex 3.082764e+01 -3.723443e+00 5.000000e+00
    endloop
  endfacet
  facet normal -9.961925e-01 -8.718116e-02 -0.000000e+00
    outer loop
      vertex 3.082764e+01 -3.723443e+00 5.000000e+00
      vertex 3.082764e+01 -3.723443e+00 0.000000e+00
      vertex 3.085196e+01 -4.001282e+00 0.000000e+00
    endloop
  endfacet
  facet normal -9.961925e-01 -8.718116e-02 0.000000e+00
    outer loop
      vertex 3.082764e+01 -3.723443e+00 5.000000e+00
      vertex 3.085196e+01 -4.001282e+00 0.000000e+00
      vertex 3.085196e+01 -4.001282e+00 5.000000e+00
    endloop
  endfacet
  facet normal -9.961924e-01 8.718205e-02 0.000000e+00
    outer loop
      vertex 3.085196e+01 -4.001282e+00 5.000000e+00
      vertex 3.085196e+01 -4.001282e+00 0.000000e+00
      vertex 3.082764e+01 -4.279118e+00 0.000000e+00
    endloop
  endfacet
  facet normal -9.961924e-01 8.718205e-02 0.000000e+00
    outer loop
      vertex 3.085196e+01 -4.001282e+00 5.000000e+00
      vertex 3.082764e+01 -4.279118e+00 0.000000e+00
      vertex 3.082764e+01 -4.279118e+00 5.000000e+00
    endloop
  endfacet
  facet normal -9.659212e-01 2.588364e-01 0.000000e+00
    outer loop
      vertex 3.082764e+01 -4.279118e+00 5.000000e+00
      vertex 3.082764e+01 -4.279118e+00 0.000000e+00
      vertex 3.075545e+01 -4.548512e+00 0.000000e+00
    endloop
  endfacet
  facet normal -9.659212e-01 2.588364e-01 0.000000e+00
    outer loop
      vertex 3.082764e+01 -4.279118e+00 5.000000e+00
      vertex 3.075545e+01 -4.548512e+00 0.000000e+00
      vertex 3.075545e+01 -4.548512e+00 5.000000e+00
    endloop
  endfacet
  facet normal -9.063097e-01 4.226142e-01 0.000000e+00
    outer loop
      vertex 3.075545e+01 -4.548512e+00 5.000000e+00
      vertex 3.075545e+01 -4.548512e+00 0.000000e+00
      vertex 3.063758e+01 -4.801281e+00 0.000000e+00
    endloop
  endfacet
  facet normal -9.063097e-01 4.226142e-01 0.000000e+00
    outer loop
      vertex 3.075545e+01 -4.548512e+00 5.000000e+00
      vertex 3.063758e+01 -4.801281e+00 0.000000e+00
      vertex 3.063758e+01 -4.801281e+00 5.000000e+00
    endloop
  endfacet
  facet normal -8.191590e-01 5.735666e-01 0.000000e+00
    outer loop
      vertex 3.063758e+01 -4.801281e+00 5.000000e+00
      vertex 3.063758e+01 -4.801281e+00 0.000000e+00
      vertex 3.047762e+01 -5.029741e+00 0.000000e+00
    endloop
  endfacet
  facet normal -8.191590e-01 5.735666e-01 0.000000e+00
    outer loop
      vertex 3.063758e+01 -4.801281e+00 5.000000e+00
      vertex 3.047762e+01 -5.029741e+00 0.000000e+00
      vertex 3.047762e+01 -5.029741e+00 5.000000e+00
    endloop
  endfacet
  facet normal -7.071034e-01 7.071102e-01 0.000000e+00
    outer loop
      vertex 3.047762e+01 -5.029741e+00 5.000000e+00
      vertex 3.047762e+01 -5.029741e+00 0.000000e+00
      vertex 3.028041e+01 -5.226952e+00 0.000000e+00
    endloop
  endfacet
  facet normal -7.071034e-01 7.071102e-01 0.000000e+00
    outer loop
      vertex 3.047762e+01 -5.029741e+00 5.000000e+00
      vertex 3.028041e+01 -5.226952e+00 0.000000e+00
      vertex 3.028041e+01 -5.226952e+00 5.000000e+00
    endloop
  endfacet
  facet normal -5.735900e-01 8.191426e-01 0.000000e+00
    outer loop
      vertex 3.028041e+01 -5.226952e+00 5.000000e+00
      vertex 3.028041e+01 -5.226952e+00 0.000000e+00
      vertex 3.005195e+01 -5.386923e+00 0.000000e+00
    endloop
  endfacet
  facet normal -5.735900e-01 8.191426e-01 0.000000e+00
    outer loop
      vertex 3.028041e+01 -5.226952e+00 5.000000e+00
      vertex 3.005195e+01 -5.386923e+00 0.000000e+00
      vertex 3.005195e+01 -5.386923e+00 5.000000e+00
    endloop
  endfacet
  facet normal -4.226262e-01 9.063041e-01 0.000000e+00
    outer loop
      vertex 3.005195e+01 -5.386923e+00 5.000000e+00
      vertex 3.005195e+01 -5.386923e+00 0.000000e+00
      vertex 2.979919e+01 -5.504790e+00 0.000000e+00
    endloop
  endfacet
  facet normal -4.226262e-01 9.063041e-01 0.000000e+00
    outer loop
      vertex 3.005195e+01 -5.386923e+00 5.000000e+00
      vertex 2.979919e+01 -5.504790e+00 0.000000e+00
      vertex 2.979919e+01 -5.504790e+00 5.000000e+00
    endloop
  endfacet
  facet normal -2.588049e-01 9.659296e-01 0.000000e+00
    outer loop
      vertex 2.979919e+01 -5.504790e+00 5.000000e+00
      vertex 2.979919e+01 -5.504790e+00 0.000000e+00
      vertex 2.952979e+01 -5.576972e+00 0.000000e+00
    endloop
  endfacet
  facet normal -2.588049e-01 9.659296e-01 0.000000e+00
    outer loop
      vertex 2.979919e+01 -5.504790e+00 5.000000e+00
      vertex 2.952979e+01 -5.576972e+00 0.000000e+00
      vertex 2.952979e+01 -5.576972e+00 5.000000e+00
    endloop
  endfacet
  facet normal -8.715372e-02 9.961949e-01 0.000000e+00
    outer loop
      vertex 2.952979e+01 -5.576972e+00 5.000000e+00
      vertex 2.952979e+01 -5.576972e+00 0.000000e+00
      vertex 2.925195e+01 -5.601279e+00 0.000000e+00
    endloop
  endfacet
  facet normal -1.000000e+00 0.000000e+00 0.000000e+00
    outer loop
      vertex -3.550000e+01 -1.383058e+01 5.000000e+00
      vertex -3.550000e+01 1.384441e+01 5.000000e+00
      vertex -3.550000e+01 -1.383058e+01 0.000000e+00
    endloop
  endfacet
  facet normal -1.000000e+00 0.000000e+00 0.000000e+00
    outer loop
      vertex -3.550000e+01 -1.383058e+01 0.000000e+00
      vertex -3.550000e+01 1.384441e+01 5.000000e+00
      vertex -3.550000e+01 1.384441e+01 0.000000e+00
    endloop
  endfacet
  facet normal 1.000000e+00 0.000000e+00 0.000000e+00
    outer loop
      vertex 3.550000e+01 -1.384441e+01 0.000000e+00
      vertex 3.550000e+01 1.383059e+01 0.000000e+00
      vertex 3.550000e+01 -1.384441e+01 5.000000e+00
    endloop
  endfacet
  facet normal 1.000000e+00 0.000000e+00 0.000000e+00
    outer loop
      vertex 3.550000e+01 -1.384441e+01 5.000000e+00
      vertex 3.550000e+01 1.383059e+01 0.000000e+00
      vertex 3.550000e+01 1.383059e+01 5.000000e+00
    endloop
  endfacet
  facet normal 0.000000e+00 -1.000000e+00 0.000000e+00
    outer loop
      vertex -3.159707e+01 6.109573e+00 5.000000e+00
      vertex -3.159707e+01 6.109573e+00 0.000000e+00
      vertex -2.639610e+01 6.109573e+00 5.000000e+00
    endloop
  endfacet
  facet normal 0.000000e+00 -1.000000e+00 0.000000e+00
    outer loop
      vertex -2.639610e+01 6.109573e+00 5.000000e+00
      vertex -3.159707e+01 6.109573e+00 0.000000e+00
      vertex -2.639610e+01 6.109573e+00 0.000000e+00
    endloop
  endfacet
  facet normal -1.000000e+00 -0.000000e+00 -0.000000e+00
    outer loop
      vertex -2.639610e+01 6.109573e+00 5.000000e+00
      vertex -2.639610e+01 6.109573e+00 0.000000e+00
      vertex -2.639610e+01 9.105501e-01 5.000000e+00
    endloop
  endfacet
  facet normal -1.000000e+00 0.000000e+00 0.000000e+00
    outer loop
      vertex -2.639610e+01 9.105501e-01 5.000000e+00
      vertex -2.639610e+01 6.109573e+00 0.000000e+00
      vertex -2.639610e+01 9.105501e-01 0.000000e+00
    endloop
  endfacet
  facet normal 0.000000e+00 1.000000e+00 0.000000e+00
    outer loop
      vertex -2.639610e+01 9.105501e-01 5.000000e+00
      vertex -2.639610e+01 9.105501e-01 0.000000e+00
      vertex -3.159707e+01 9.105501e-01 5.000000e+00
    endloop
  endfacet
  facet normal 0.000000e+00 1.000000e+00 0.000000e+00
    outer loop
      vertex -3.159707e+01 9.105501e-01 5.000000e+00
      vertex -2.639610e+01 9.105501e-01 0.000000e+00
      vertex -3.159707e+01 9.105501e-01 0.000000e+00
    endloop
  endfacet
  facet normal 1.000000e+00 0.000000e+00 0.000000e+00
    outer loop
      vertex -3.159707e+01 9.105501e-01 5.000000e+00
      vertex -3.159707e+01 9.105501e-01 0.000000e+00
      vertex -3.159707e+01 6.109573e+00 5.000000e+00
    endloop
  endfacet
  facet normal 1.000000e+00 0.000000e+00 0.000000e+00
    outer loop
      vertex -3.159707e+01 6.109573e+00 5.000000e+00
      vertex -3.159707e+01 9.105501e-01 0.000000e+00
      vertex -3.159707e+01 6.109573e+00 0.000000e+00
    endloop
  endfacet
  facet normal 1.000000e+00 0.000000e+00 0.000000e+00
    outer loop
      vertex 2.640292e+01 8.992548e-01 5.000000e+00
      vertex 2.640292e+01 8.992548e-01 0.000000e+00
      vertex 2.640292e+01 6.098282e+00 5.000000e+00
    endloop
  endfacet
  facet normal 1.000000e+00 0.000000e+00 0.000000e+00
    outer loop
      vertex 2.640292e+01 6.098282e+00 5.000000e+00
      vertex 2.640292e+01 8.992548e-01 0.000000e+00
      vertex 2.640292e+01 6.098282e+00 0.000000e+00
    endloop
  endfacet
  facet normal 0.000000e+00 -1.000000e+00 0.000000e+00
    outer loop
      vertex 2.640292e+01 6.098282e+00 5.000000e+00
      vertex 2.640292e+01 6.098282e+00 0.000000e+00
      vertex 3.160389e+01 6.098282e+00 5.000000e+00
    endloop
  endfacet
  facet normal 0.000000e+00 -1.000000e+00 0.000000e+00
    outer loop
      vertex 3.160389e+01 6.098282e+00 5.000000e+00
      vertex 2.640292e+01 6.098282e+00 0.000000e+00
      vertex 3.160389e+01 6.098282e+00 0.000000e+00
    endloop
  endfacet
  facet normal -1.000000e+00 -0.000000e+00 -0.000000e+00
    outer loop
      vertex 3.160389e+01 6.098282e+00 5.000000e+00
      vertex 3.160389e+01 6.098282e+00 0.000000e+00
      vertex 3.160389e+01 8.992548e-01 5.000000e+00
    endloop
  endfacet
  facet normal -1.000000e+00 0.000000e+00 0.000000e+00
    outer loop
      vertex 3.160389e+01 8.992548e-01 5.000000e+00
      vertex 3.160389e+01 6.098282e+00 0.000000e+00
      vertex 3.160389e+01 8.992548e-01 0.000000e+00
    endloop
  endfacet
  facet normal 0.000000e+00 1.000000e+00 0.000000e+00
    outer loop
      vertex 3.160389e+01 8.992548e-01 5.000000e+00
      vertex 3.160389e+01 8.992548e-01 0.000000e+00
      vertex 2.640292e+01 8.992548e-01 5.000000e+00
    endloop
  endfacet
  facet normal 0.000000e+00 1.000000e+00 0.000000e+00
    outer loop
      vertex 2.640292e+01 8.992548e-01 5.000000e+00
      vertex 3.160389e+01 8.992548e-01 0.000000e+00
      vertex 2.640292e+01 8.992548e-01 0.000000e+00
    endloop
  endfacet
endsolid Default
